; Drill file
; Format: 2.4 (00.0000)
M48
INCH
T01C0.0197
T02C0.0236
T03C0.0276
T04C0.0283
T05C0.0315
T06C0.0394
T07C0.0551
T08C0.1181
%
G05
G90
T01
X-028640Y-000270
T02
X-031980Y-009050
X-033060Y-007520
X-033090Y-002160
X-033090Y-000160
X-036280Y000280
X-036280Y003280
X-034960Y004320
X-033890Y006470
X-033890Y008470
X-030860Y008670
X-030860Y009670
X-028890Y010520
X-028890Y008520
X-027830Y007030
X-026830Y007030
X-028860Y005410
X-030650Y004320
X-031860Y005410
X-029710Y002760
X-029380Y001170
X-029380Y000170
X-029380Y-000720
X-029380Y-001720
X-027790Y-001160
X-027340Y-003080
X-027340Y-005080
X-027790Y000850
X-026230Y002760
X-023920Y003190
X-023620Y000830
X-020550Y002310
X-019820Y004060
X-019820Y005060
X-018050Y006890
X-016050Y006890
X-018550Y002310
X-014610Y001020
X-012910Y001130
X-012910Y-001550
X-014940Y-002220
X-018020Y-002200
X-020810Y-003340
X-020810Y-005340
X-020220Y-007690
X-016590Y-008500
X-014980Y-007700
X-012730Y-010750
X-012730Y-014750
X-013970Y-015640
X-013970Y-019640
X-020580Y-015390
X-025610Y-014550
T03
X-025160Y-004190
X-025160Y-003190
X-025160Y-002190
X-025160Y-001190
X-025160Y-000190
X-025160Y000810
X-025160Y001810
X-025160Y002810
X-025160Y003810
X-025160Y004810
X-025160Y005810
X-025160Y006810
X-025160Y007810
X-025160Y008810
X-022160Y008810
X-022160Y007810
X-022160Y006810
X-022160Y005810
X-022160Y004810
X-022160Y003810
X-022160Y002810
X-022160Y001810
X-022160Y000810
X-022160Y-000190
X-022160Y-001190
X-022160Y-002190
X-022160Y-003190
X-022160Y-004190
T04
X-040560Y-013840
X-034970Y-011000
X-033590Y-011450
X-033800Y-010140
X-029060Y-007530
X-026060Y-006090
X-025090Y-007500
X-022590Y-007500
X-022560Y-006090
X-026400Y-001430
X-026400Y001380
X-020910Y006810
X-019550Y007810
X-017510Y008600
X-019550Y010200
X-020910Y009830
X-014490Y008600
X-007770Y004190
X-007980Y-013840
X-040560Y004190
T05
X-027420Y-013500
X-027420Y-012500
X-027420Y-011500
X-027420Y-010500
X-027420Y-009500
X-027420Y-008500
X-027420Y-007500
X-027420Y-006500
X-021420Y-006500
X-021420Y-007500
X-021420Y-008500
X-021420Y-009500
X-021440Y-010500
X-021420Y-011500
X-021420Y-012500
X-021420Y-013500
X-014950Y-011300
X-014950Y-010300
X-028540Y003820
X-029300Y004460
X-036030Y006020
X-036030Y008020
X-037910Y004480
T06
X-031690Y-021900
X-031690Y-014860
X-028660Y-005640
X-028640Y-003580
X-031420Y-001290
X-031420Y-000290
X-031420Y000710
X-031180Y006870
X-030180Y006870
X-032180Y006870
X-037910Y005480
X-028620Y012230
X-027630Y012230
X-026630Y012230
X-025620Y012230
X-024620Y012230
X-023620Y012230
X-022630Y012230
X-021630Y012230
X-020620Y012230
X-019620Y012230
X-013390Y005950
X-012390Y005950
X-012390Y004950
X-013390Y004950
X-013390Y003950
X-012390Y003950
X-019380Y-003730
X-019390Y-005800
X-016530Y-014860
X-016530Y-021900
T07
X-012850Y-018800
X-010820Y-017110
X-017100Y009960
X-017100Y012600
T08
X-035450Y-017530
X-035450Y-015560
X-035450Y-013590
M30
