%FSLAX34Y34*%
%MOMM*%
%LNCOPPER_TOP*%
G71*
G01*
%ADD10C, 2.00*%
%ADD11C, 1.60*%
%ADD12C, 0.60*%
%ADD13C, 2.00*%
%ADD14C, 2.50*%
%ADD15C, 3.00*%
%ADD16C, 2.00*%
%ADD17C, 2.00*%
%ADD18C, 1.80*%
%ADD19C, 0.70*%
%ADD20C, 2.60*%
%ADD21C, 1.00*%
%ADD22C, 2.50*%
%ADD23C, 1.80*%
%ADD24C, 3.00*%
%ADD25C, 1.80*%
%ADD26C, 1.40*%
%ADD27C, 1.20*%
%ADD28C, 0.40*%
%ADD29C, 1.30*%
%LPD*%
G36*
X-649000Y233881D02*
X-629000Y233881D01*
X-629000Y213881D01*
X-649000Y213881D01*
X-649000Y233881D01*
G37*
X-639000Y198481D02*
G54D10*
D03*
X-639000Y173081D02*
G54D10*
D03*
X-639000Y147681D02*
G54D10*
D03*
X-562800Y223881D02*
G54D10*
D03*
X-562800Y198481D02*
G54D10*
D03*
X-562800Y173081D02*
G54D10*
D03*
X-562800Y147681D02*
G54D10*
D03*
X-639000Y122281D02*
G54D10*
D03*
X-562800Y122281D02*
G54D10*
D03*
X-639000Y96881D02*
G54D10*
D03*
X-639000Y71481D02*
G54D10*
D03*
X-562800Y96881D02*
G54D11*
D03*
X-562800Y71481D02*
G54D11*
D03*
X-639000Y46081D02*
G54D10*
D03*
X-562800Y46081D02*
G54D10*
D03*
X-639000Y20681D02*
G54D10*
D03*
X-562800Y20681D02*
G54D10*
D03*
X-639000Y-4719D02*
G54D10*
D03*
X-562800Y-4719D02*
G54D10*
D03*
X-639000Y-30119D02*
G54D10*
D03*
X-639000Y-55519D02*
G54D10*
D03*
X-639000Y-80919D02*
G54D10*
D03*
X-639000Y-106319D02*
G54D10*
D03*
X-562800Y-30119D02*
G54D10*
D03*
X-562800Y-55519D02*
G54D10*
D03*
X-562800Y-80919D02*
G54D10*
D03*
X-562800Y-106319D02*
G54D10*
D03*
G36*
X-506491Y208481D02*
X-486491Y208481D01*
X-486491Y188481D01*
X-506491Y188481D01*
X-506491Y208481D01*
G37*
G54D12*
X-496491Y259160D02*
X-496491Y198481D01*
X-496094Y198085D01*
G54D12*
X-531019Y249634D02*
X-531019Y173081D01*
X-544034Y-241330D02*
G54D13*
D03*
X-544034Y-215930D02*
G54D13*
D03*
X-696428Y-292099D02*
G54D13*
D03*
X-696428Y-266699D02*
G54D13*
D03*
X-696428Y-241299D02*
G54D13*
D03*
G36*
X-506491Y269160D02*
X-486491Y269160D01*
X-486491Y249160D01*
X-506491Y249160D01*
X-506491Y269160D01*
G37*
G36*
X-541019Y183081D02*
X-521019Y183081D01*
X-521019Y163081D01*
X-541019Y163081D01*
X-541019Y183081D01*
G37*
G36*
X-541019Y259634D02*
X-521019Y259634D01*
X-521019Y239634D01*
X-541019Y239634D01*
X-541019Y259634D01*
G37*
X-804822Y-377400D02*
G54D14*
D03*
X-419853Y-377400D02*
G54D14*
D03*
X-419922Y-556378D02*
G54D14*
D03*
X-804822Y-556378D02*
G54D14*
D03*
X-326266Y-477547D02*
G54D15*
D03*
X-274941Y-434481D02*
G54D15*
D03*
X-340121Y125811D02*
G54D16*
D03*
X-314721Y125811D02*
G54D16*
D03*
G36*
X-304721Y110411D02*
X-304721Y90411D01*
X-324721Y90411D01*
X-324721Y110411D01*
X-304721Y110411D01*
G37*
X-340121Y100311D02*
G54D16*
D03*
X-340021Y151211D02*
G54D16*
D03*
X-314721Y151211D02*
G54D16*
D03*
G54D12*
X-327818Y28576D02*
X-327818Y-39247D01*
G54D12*
X-666155Y70092D02*
X-754658Y70092D01*
X-503555Y128647D02*
G54D17*
D03*
X-503555Y103247D02*
G54D17*
D03*
G36*
X-434699Y228524D02*
X-434699Y208524D01*
X-454699Y208524D01*
X-454699Y228524D01*
X-434699Y228524D01*
G37*
G36*
X-358102Y228524D02*
X-358102Y208524D01*
X-378102Y208524D01*
X-378102Y228524D01*
X-358102Y228524D01*
G37*
G54D12*
X-368102Y218524D02*
X-444699Y218524D01*
X-705941Y21531D02*
G54D17*
D03*
X-705941Y-29469D02*
G54D17*
D03*
G36*
X-660521Y45167D02*
X-660521Y25167D01*
X-680521Y25167D01*
X-680521Y45167D01*
X-660521Y45167D01*
G37*
G36*
X-660521Y-26270D02*
X-660521Y-46270D01*
X-680521Y-46270D01*
X-680521Y-26270D01*
X-660521Y-26270D01*
G37*
G54D12*
X-670521Y-36270D02*
X-670521Y35167D01*
X-371078Y25797D02*
G54D18*
D03*
G54D19*
X-380604Y-195616D02*
X-513160Y-195615D01*
X-738188Y-191294D02*
G54D20*
D03*
G36*
X-583088Y-144737D02*
X-563088Y-144737D01*
X-563088Y-164737D01*
X-583088Y-164737D01*
X-583088Y-144737D01*
G37*
G54D12*
X-573088Y-154737D02*
X-661988Y-154737D01*
G36*
X-647381Y-180500D02*
X-627381Y-180500D01*
X-627381Y-200500D01*
X-647381Y-200500D01*
X-647381Y-180500D01*
G37*
G36*
X-583881Y-180500D02*
X-563881Y-180500D01*
X-563881Y-200500D01*
X-583881Y-200500D01*
X-583881Y-180500D01*
G37*
G54D12*
X-573881Y-190103D02*
X-637381Y-190500D01*
G36*
X-671988Y-144737D02*
X-651988Y-144737D01*
X-651988Y-164737D01*
X-671988Y-164737D01*
X-671988Y-144737D01*
G37*
X-783829Y220266D02*
G54D18*
D03*
G36*
X-792829Y236666D02*
X-792829Y254666D01*
X-774829Y254666D01*
X-774829Y236666D01*
X-792829Y236666D01*
G37*
G54D21*
X-778471Y109779D02*
X-888008Y109780D01*
X-706836Y178595D02*
G54D18*
D03*
G36*
X-690436Y187595D02*
X-672436Y187595D01*
X-672436Y169595D01*
X-690436Y169595D01*
X-690436Y187595D01*
G37*
X-354806Y-397272D02*
G54D22*
D03*
X-354806Y-498872D02*
G54D22*
D03*
X-379675Y-261683D02*
G54D23*
D03*
G36*
X-388675Y-296083D02*
X-388675Y-278083D01*
X-370675Y-278083D01*
X-370675Y-296083D01*
X-388675Y-296083D01*
G37*
X-858441Y-257572D02*
G54D24*
D03*
X-888206Y-279400D02*
G54D24*
D03*
G54D25*
X-553030Y-342930D02*
X-535030Y-342930D01*
G54D25*
X-553034Y-215930D02*
X-535034Y-215930D01*
G54D12*
X-379413Y-56312D02*
X-379413Y-4763D01*
X-370681Y3969D01*
X-370681Y25400D01*
X-371078Y25797D01*
G54D12*
X-607616Y81006D02*
X-607616Y56357D01*
X-600472Y49212D01*
X-600472Y21475D01*
X-600075Y21078D01*
G54D12*
X-457597Y-55916D02*
X-457597Y18257D01*
X-438150Y37703D01*
X-406003Y37703D01*
X-390128Y53578D01*
X-390128Y109934D01*
X-374650Y125412D01*
X-340520Y125412D01*
X-340121Y125811D01*
X-327818Y28576D02*
G54D18*
D03*
X-327818Y-39247D02*
G54D18*
D03*
X-379413Y-56312D02*
G54D18*
D03*
X-457597Y-55916D02*
G54D18*
D03*
X-380604Y-195616D02*
G54D18*
D03*
X-754658Y70092D02*
G54D18*
D03*
X-888008Y109780D02*
G54D18*
D03*
X-778471Y109779D02*
G54D18*
D03*
X-666155Y70092D02*
G54D18*
D03*
X-607616Y81006D02*
G54D18*
D03*
X-600075Y21078D02*
G54D18*
D03*
G54D21*
X-544030Y-342930D02*
X-465901Y-342930D01*
X-459184Y-349647D01*
X-373062Y-349647D01*
X-355203Y-367506D01*
X-355203Y-396875D01*
X-354806Y-397272D01*
X-812403Y-229791D02*
G54D18*
D03*
G54D21*
X-696428Y-266699D02*
X-673101Y-266699D01*
X-662781Y-277019D01*
X-662781Y-357188D01*
X-650478Y-369491D01*
X-650478Y-369491D02*
G54D26*
D03*
G54D21*
X-696428Y-241299D02*
X-606426Y-241299D01*
X-596106Y-251619D01*
X-596106Y-351631D01*
X-577056Y-370681D01*
X-542925Y-370681D01*
X-522684Y-390922D01*
X-522684Y-390922D02*
G54D26*
D03*
X-853281Y-290909D02*
G54D24*
D03*
X-724873Y96918D02*
G54D23*
D03*
G36*
X-745440Y125924D02*
X-731651Y114354D01*
X-743222Y100565D01*
X-757010Y112135D01*
X-745440Y125924D01*
G37*
G54D27*
X-738188Y-191294D02*
X-839391Y-191294D01*
X-839788Y-190897D01*
X-839788Y-190897D02*
G54D18*
D03*
G54D28*
X-503555Y128647D02*
X-485041Y128647D01*
X-480219Y123825D01*
X-480219Y98028D01*
X-495697Y82550D01*
X-495697Y-44847D01*
X-461169Y-79375D01*
X-375841Y-79375D01*
X-354409Y-100806D01*
X-354409Y-219075D01*
X-365919Y-230584D01*
X-459581Y-230584D01*
X-470694Y-241697D01*
X-543668Y-241697D01*
X-544034Y-241330D01*
G54D21*
X-544034Y-215930D02*
X-421512Y-215930D01*
X-421481Y-215900D01*
X-421481Y-215900D02*
G54D26*
D03*
X-513556Y-195218D02*
G54D26*
D03*
G54D21*
X-812403Y-229791D02*
X-793750Y-248444D01*
X-767159Y-248444D01*
X-723504Y-292099D01*
X-696428Y-292099D01*
G54D29*
X-853281Y-290909D02*
X-838597Y-290909D01*
X-825897Y-278209D01*
X-794941Y-278209D01*
X-759222Y-313928D01*
X-759222Y-507603D01*
X-702072Y-564753D01*
X-508794Y-564753D01*
X-471091Y-527050D01*
X-471091Y-396478D01*
X-452012Y-377400D01*
X-419853Y-377400D01*
X-434344Y253044D02*
G54D15*
D03*
X-434344Y320044D02*
G54D15*
D03*
G54D12*
X-639000Y223881D02*
X-639000Y266272D01*
X-621506Y283766D01*
X-442516Y283766D01*
X-434181Y275431D01*
X-434181Y253208D01*
X-434344Y253044D01*
G54D12*
X-434344Y253044D02*
X-434344Y228878D01*
X-444699Y218524D01*
M02*
