%FSLAX34Y34*%
%MOMM*%
%LNSILK_BOTTOM_*%
G71*
G01*
%ADD10C, 0.14*%
%LPD*%
G54D10*
X-563166Y-591591D02*
X-565766Y-598091D01*
X-568366Y-591591D01*
X-570966Y-598091D01*
X-572699Y-591591D01*
G54D10*
X-575877Y-591591D02*
X-578477Y-598091D01*
X-581077Y-591591D01*
X-583677Y-598091D01*
X-585410Y-591591D01*
G54D10*
X-588588Y-591591D02*
X-591188Y-598091D01*
X-593788Y-591591D01*
X-596388Y-598091D01*
X-598121Y-591591D01*
G54D10*
X-601299Y-598091D02*
X-601299Y-598091D01*
G54D10*
X-609677Y-598091D02*
X-609677Y-586535D01*
G54D10*
X-609677Y-593468D02*
X-608810Y-592024D01*
X-607077Y-591591D01*
X-605343Y-592024D01*
X-604477Y-593468D01*
X-604477Y-596357D01*
X-605343Y-597802D01*
X-607077Y-598091D01*
X-608810Y-597802D01*
X-609677Y-596357D01*
G54D10*
X-617188Y-592024D02*
X-615455Y-591591D01*
X-613721Y-592024D01*
X-612855Y-593468D01*
X-612855Y-596357D01*
X-613721Y-597802D01*
X-615455Y-598091D01*
X-617188Y-597802D01*
G54D10*
X-625566Y-591591D02*
X-625566Y-598091D01*
G54D10*
X-625566Y-596646D02*
X-624699Y-597802D01*
X-622966Y-598091D01*
X-621232Y-597802D01*
X-620366Y-596646D01*
X-620366Y-591591D01*
G54D10*
X-628744Y-598091D02*
X-628744Y-586535D01*
G54D10*
X-628744Y-593468D02*
X-629610Y-592024D01*
X-631344Y-591591D01*
X-633077Y-592024D01*
X-633944Y-593468D01*
X-633944Y-596357D01*
X-633077Y-597802D01*
X-631344Y-598091D01*
X-629610Y-597802D01*
X-628744Y-596357D01*
G54D10*
X-642322Y-597368D02*
X-640935Y-598091D01*
X-639202Y-598091D01*
X-637468Y-597368D01*
X-637122Y-595924D01*
X-637122Y-593468D01*
X-637988Y-592024D01*
X-639722Y-591591D01*
X-641455Y-592024D01*
X-642322Y-593035D01*
X-642322Y-594480D01*
X-637122Y-594480D01*
G54D10*
X-645500Y-598091D02*
X-645500Y-598091D01*
G54D10*
X-648678Y-598091D02*
X-648678Y-586535D01*
G54D10*
X-651856Y-598091D02*
X-651856Y-586535D01*
G54D10*
X-654456Y-593757D02*
X-657056Y-598091D01*
G54D10*
X-651856Y-595202D02*
X-657056Y-591591D01*
G54D10*
X-868759Y45823D02*
X-869626Y44378D01*
X-871359Y43656D01*
X-873093Y43656D01*
X-874826Y44378D01*
X-875693Y45823D01*
X-875693Y47267D01*
X-874826Y48712D01*
X-873093Y49434D01*
X-871359Y49434D01*
X-869626Y50156D01*
X-868759Y51601D01*
X-868759Y53045D01*
X-869626Y54490D01*
X-871359Y55212D01*
X-873093Y55212D01*
X-874826Y54490D01*
X-875693Y53045D01*
G54D10*
X-884070Y50156D02*
X-884070Y43656D01*
G54D10*
X-884070Y45101D02*
X-883204Y43945D01*
X-881470Y43656D01*
X-879737Y43945D01*
X-878870Y45101D01*
X-878870Y50156D01*
G54D10*
X-887248Y43656D02*
X-887248Y50156D01*
G54D10*
X-887248Y49001D02*
X-888982Y50156D01*
X-890715Y49723D01*
X-891582Y48712D01*
X-891582Y43656D01*
G54D10*
X-891582Y49001D02*
X-893315Y50156D01*
X-895048Y49723D01*
X-895915Y48712D01*
X-895915Y43656D01*
G54D10*
X-904293Y44378D02*
X-902907Y43656D01*
X-901173Y43656D01*
X-899440Y44378D01*
X-899093Y45823D01*
X-899093Y48278D01*
X-899960Y49723D01*
X-901693Y50156D01*
X-903427Y49723D01*
X-904293Y48712D01*
X-904293Y47267D01*
X-899093Y47267D01*
G54D10*
X-912671Y43656D02*
X-912671Y55212D01*
G54D10*
X-912671Y48278D02*
X-911805Y49723D01*
X-910071Y50156D01*
X-908338Y49723D01*
X-907471Y48278D01*
X-907471Y45390D01*
X-908338Y43945D01*
X-910071Y43656D01*
X-911805Y43945D01*
X-912671Y45390D01*
G54D10*
X-915849Y43656D02*
X-915849Y55212D01*
G54D10*
X-915849Y48278D02*
X-916716Y49723D01*
X-918449Y50156D01*
X-920183Y49723D01*
X-921049Y48278D01*
X-921049Y43656D01*
G54D10*
X-924227Y49434D02*
X-925961Y50156D01*
X-928041Y50156D01*
X-929427Y48712D01*
X-929427Y43656D01*
G54D10*
X-929427Y45823D02*
X-928561Y47267D01*
X-926827Y47556D01*
X-925094Y47267D01*
X-924227Y45823D01*
X-924574Y44378D01*
X-925961Y43656D01*
X-926827Y43656D01*
X-927174Y43656D01*
X-928561Y44378D01*
X-929427Y45823D01*
G54D10*
X-942890Y45823D02*
X-942023Y44378D01*
X-940290Y43656D01*
X-938556Y43656D01*
X-936823Y44378D01*
X-935956Y45823D01*
X-935956Y53045D01*
X-936823Y54490D01*
X-938556Y55212D01*
X-940290Y55212D01*
X-942023Y54490D01*
X-942890Y53045D01*
G54D10*
X-951267Y45390D02*
X-951267Y48278D01*
X-950401Y49723D01*
X-948667Y50156D01*
X-946934Y49723D01*
X-946067Y48278D01*
X-946067Y45390D01*
X-946934Y43945D01*
X-948667Y43656D01*
X-950401Y43945D01*
X-951267Y45390D01*
G54D10*
X-954445Y43656D02*
X-954445Y55212D01*
G54D10*
X-957623Y43656D02*
X-957623Y55212D01*
G54D10*
X-966001Y44378D02*
X-964615Y43656D01*
X-962881Y43656D01*
X-961148Y44378D01*
X-960801Y45823D01*
X-960801Y48278D01*
X-961668Y49723D01*
X-963401Y50156D01*
X-965135Y49723D01*
X-966001Y48712D01*
X-966001Y47267D01*
X-960801Y47267D01*
G54D10*
X-969179Y41490D02*
X-970913Y40767D01*
X-972126Y40767D01*
X-973859Y41490D01*
X-974379Y42934D01*
X-974379Y50156D01*
G54D10*
X-974379Y48278D02*
X-973513Y49723D01*
X-971779Y50156D01*
X-970046Y49723D01*
X-969179Y48278D01*
X-969179Y45390D01*
X-970046Y43945D01*
X-971779Y43656D01*
X-973513Y43945D01*
X-974379Y45390D01*
G54D10*
X-982757Y44378D02*
X-981371Y43656D01*
X-979637Y43656D01*
X-977904Y44378D01*
X-977557Y45823D01*
X-977557Y48278D01*
X-978424Y49723D01*
X-980157Y50156D01*
X-981891Y49723D01*
X-982757Y48712D01*
X-982757Y47267D01*
X-977557Y47267D01*
M02*
