%FSLAX34Y34*%
%MOMM*%
%LNSOLDERMASK_BOTTOM*%
G71*
G01*
%ADD10C, 2.60*%
%ADD11C, 2.20*%
%ADD12C, 2.50*%
%ADD13C, 2.60*%
%ADD14C, 3.10*%
%ADD15C, 3.60*%
%ADD16C, 4.60*%
%ADD17C, 4.60*%
%ADD18C, 2.60*%
%ADD19C, 3.60*%
%ADD20C, 3.60*%
%ADD21C, 2.50*%
%ADD22C, 2.60*%
%ADD23C, 2.10*%
%ADD24C, 2.30*%
%ADD25C, 2.50*%
%ADD26C, 2.60*%
%ADD27C, 2.40*%
%ADD28C, 3.20*%
%ADD29C, 3.10*%
%ADD30C, 2.40*%
%ADD31C, 3.60*%
%ADD32C, 2.40*%
%ADD33C, 2.00*%
%LPD*%
G36*
X-652000Y236881D02*
X-626000Y236881D01*
X-626000Y210881D01*
X-652000Y210881D01*
X-652000Y236881D01*
G37*
X-639000Y198481D02*
G54D10*
D03*
X-639000Y173081D02*
G54D10*
D03*
X-639000Y147681D02*
G54D10*
D03*
X-562800Y223881D02*
G54D10*
D03*
X-562800Y198481D02*
G54D10*
D03*
X-562800Y173081D02*
G54D10*
D03*
X-562800Y147681D02*
G54D10*
D03*
X-639000Y122281D02*
G54D10*
D03*
X-562800Y122281D02*
G54D10*
D03*
X-639000Y96881D02*
G54D10*
D03*
X-639000Y71481D02*
G54D10*
D03*
X-562800Y96881D02*
G54D11*
D03*
X-562800Y71481D02*
G54D11*
D03*
X-639000Y46081D02*
G54D10*
D03*
X-562800Y46081D02*
G54D10*
D03*
X-639000Y20681D02*
G54D10*
D03*
X-562800Y20681D02*
G54D10*
D03*
X-639000Y-4719D02*
G54D10*
D03*
X-562800Y-4719D02*
G54D10*
D03*
X-639000Y-30119D02*
G54D10*
D03*
X-639000Y-55519D02*
G54D10*
D03*
X-639000Y-80919D02*
G54D10*
D03*
X-639000Y-106319D02*
G54D10*
D03*
X-562800Y-30119D02*
G54D10*
D03*
X-562800Y-55519D02*
G54D10*
D03*
X-562800Y-80919D02*
G54D10*
D03*
X-562800Y-106319D02*
G54D10*
D03*
G36*
X-739575Y323253D02*
X-714575Y323253D01*
X-714575Y298253D01*
X-739575Y298253D01*
X-739575Y323253D01*
G37*
X-701675Y310753D02*
G54D12*
D03*
X-676275Y310753D02*
G54D12*
D03*
X-650875Y310753D02*
G54D12*
D03*
X-625475Y310753D02*
G54D12*
D03*
X-600075Y310753D02*
G54D12*
D03*
X-574675Y310753D02*
G54D12*
D03*
X-549275Y310753D02*
G54D12*
D03*
X-523875Y310753D02*
G54D12*
D03*
X-498475Y310753D02*
G54D12*
D03*
G36*
X-509491Y211481D02*
X-483491Y211481D01*
X-483491Y185481D01*
X-509491Y185481D01*
X-509491Y211481D01*
G37*
X-544030Y-342930D02*
G54D13*
D03*
X-544034Y-317530D02*
G54D13*
D03*
X-544034Y-292130D02*
G54D13*
D03*
X-544034Y-266730D02*
G54D13*
D03*
X-544034Y-241330D02*
G54D13*
D03*
X-544034Y-215930D02*
G54D13*
D03*
X-544034Y-190530D02*
G54D13*
D03*
X-544034Y-165130D02*
G54D13*
D03*
X-696425Y-342898D02*
G54D13*
D03*
X-696428Y-317499D02*
G54D13*
D03*
X-696428Y-292099D02*
G54D13*
D03*
X-696428Y-266699D02*
G54D13*
D03*
X-696428Y-241299D02*
G54D13*
D03*
X-696430Y-215900D02*
G54D13*
D03*
X-696428Y-190499D02*
G54D13*
D03*
X-696428Y-165099D02*
G54D13*
D03*
G36*
X-509491Y272160D02*
X-483491Y272160D01*
X-483491Y246160D01*
X-509491Y246160D01*
X-509491Y272160D01*
G37*
G36*
X-544019Y186081D02*
X-518019Y186081D01*
X-518019Y160081D01*
X-544019Y160081D01*
X-544019Y186081D01*
G37*
G36*
X-544019Y262634D02*
X-518019Y262634D01*
X-518019Y236634D01*
X-544019Y236634D01*
X-544019Y262634D01*
G37*
X-804822Y-377400D02*
G54D14*
D03*
X-419853Y-377400D02*
G54D14*
D03*
X-419922Y-556378D02*
G54D14*
D03*
X-804822Y-556378D02*
G54D14*
D03*
X-326266Y-477547D02*
G54D15*
D03*
X-274941Y-434481D02*
G54D15*
D03*
X-900509Y-345281D02*
G54D16*
D03*
X-900509Y-395288D02*
G54D16*
D03*
X-900508Y-445294D02*
G54D16*
D03*
G54D17*
X-920509Y-345281D02*
X-880509Y-345281D01*
G54D17*
X-920509Y-395288D02*
X-880509Y-395288D01*
G54D17*
X-920508Y-445294D02*
X-880508Y-445294D01*
X-340121Y125811D02*
G54D18*
D03*
X-314721Y125811D02*
G54D18*
D03*
G36*
X-301721Y113411D02*
X-301721Y87411D01*
X-327721Y87411D01*
X-327721Y113411D01*
X-301721Y113411D01*
G37*
X-340121Y100311D02*
G54D18*
D03*
X-340021Y151211D02*
G54D18*
D03*
X-314721Y151211D02*
G54D18*
D03*
X-492125Y-94853D02*
G54D19*
D03*
X-492522Y-147241D02*
G54D19*
D03*
X-727472Y-90884D02*
G54D19*
D03*
X-727869Y-143272D02*
G54D19*
D03*
X-915194Y152797D02*
G54D20*
D03*
X-915194Y203597D02*
G54D20*
D03*
X-797991Y-32708D02*
G54D18*
D03*
X-797991Y-7308D02*
G54D18*
D03*
X-797991Y18092D02*
G54D18*
D03*
X-766473Y174585D02*
G54D21*
D03*
X-791873Y174585D02*
G54D21*
D03*
X-817273Y174585D02*
G54D21*
D03*
X-962819Y139303D02*
G54D12*
D03*
X-962819Y113903D02*
G54D12*
D03*
X-503555Y128647D02*
G54D22*
D03*
X-503555Y103247D02*
G54D22*
D03*
X-458391Y174951D02*
G54D22*
D03*
X-407591Y174951D02*
G54D22*
D03*
G36*
X-431699Y231524D02*
X-431699Y205524D01*
X-457699Y205524D01*
X-457699Y231524D01*
X-431699Y231524D01*
G37*
G36*
X-355102Y231524D02*
X-355102Y205524D01*
X-381102Y205524D01*
X-381102Y231524D01*
X-355102Y231524D01*
G37*
X-1030288Y106362D02*
G54D23*
D03*
X-197247Y106362D02*
G54D23*
D03*
X-202803Y-351631D02*
G54D23*
D03*
X-1030288Y-351632D02*
G54D23*
D03*
X-705941Y21531D02*
G54D22*
D03*
X-705941Y-29469D02*
G54D22*
D03*
X-746125Y29765D02*
G54D22*
D03*
X-746125Y4365D02*
G54D22*
D03*
X-746125Y-18256D02*
G54D22*
D03*
X-746125Y-43656D02*
G54D22*
D03*
X-727472Y-6748D02*
G54D24*
D03*
G36*
X-657521Y48167D02*
X-657521Y22167D01*
X-683521Y22167D01*
X-683521Y48167D01*
X-657521Y48167D01*
G37*
G36*
X-657521Y-23270D02*
X-657521Y-49270D01*
X-683521Y-49270D01*
X-683521Y-23270D01*
X-657521Y-23270D01*
G37*
G54D25*
X-817273Y184085D02*
X-817273Y165085D01*
G54D25*
X-791873Y184085D02*
X-791873Y165085D01*
G54D25*
X-766473Y184085D02*
X-766473Y165085D01*
G54D26*
X-787991Y18092D02*
X-807991Y18092D01*
G54D26*
X-787991Y-7308D02*
X-807991Y-7308D01*
G54D26*
X-787991Y-32708D02*
X-807991Y-32708D01*
G54D25*
X-625475Y301253D02*
X-625475Y320253D01*
G54D25*
X-600075Y301253D02*
X-600075Y320253D01*
G54D25*
X-701675Y301253D02*
X-701675Y320253D01*
G54D25*
X-727075Y301253D02*
X-727075Y320253D01*
G54D25*
X-676275Y301253D02*
X-676275Y320253D01*
G54D25*
X-650875Y301253D02*
X-650875Y320253D01*
G54D25*
X-574675Y301253D02*
X-574675Y320253D01*
G54D25*
X-549275Y301253D02*
X-549275Y320253D01*
G54D25*
X-498475Y301253D02*
X-498475Y320253D01*
G54D25*
X-523875Y301253D02*
X-523875Y320253D01*
X-371078Y25797D02*
G54D27*
D03*
X-738188Y-191294D02*
G54D28*
D03*
G36*
X-586088Y-141737D02*
X-560088Y-141737D01*
X-560088Y-167737D01*
X-586088Y-167737D01*
X-586088Y-141737D01*
G37*
G36*
X-650381Y-177500D02*
X-624381Y-177500D01*
X-624381Y-203500D01*
X-650381Y-203500D01*
X-650381Y-177500D01*
G37*
G36*
X-586881Y-177500D02*
X-560881Y-177500D01*
X-560881Y-203500D01*
X-586881Y-203500D01*
X-586881Y-177500D01*
G37*
G36*
X-674988Y-141737D02*
X-648988Y-141737D01*
X-648988Y-167737D01*
X-674988Y-167737D01*
X-674988Y-141737D01*
G37*
X-783829Y220266D02*
G54D27*
D03*
G36*
X-795829Y233666D02*
X-795829Y257666D01*
X-771829Y257666D01*
X-771829Y233666D01*
X-795829Y233666D01*
G37*
X-706836Y178595D02*
G54D27*
D03*
G36*
X-693436Y190595D02*
X-669436Y190595D01*
X-669436Y166595D01*
X-693436Y166595D01*
X-693436Y190595D01*
G37*
X-354806Y-397272D02*
G54D29*
D03*
X-354806Y-498872D02*
G54D29*
D03*
X-379675Y-261683D02*
G54D30*
D03*
G36*
X-391675Y-299083D02*
X-391675Y-275083D01*
X-367675Y-275083D01*
X-367675Y-299083D01*
X-391675Y-299083D01*
G37*
X-323453Y-273050D02*
G54D29*
D03*
X-323453Y-374650D02*
G54D29*
D03*
X-809228Y137319D02*
G54D22*
D03*
X-733028Y137319D02*
G54D22*
D03*
X-858441Y-257572D02*
G54D31*
D03*
X-888206Y-279400D02*
G54D31*
D03*
G54D25*
X-953319Y139303D02*
X-972319Y139303D01*
G54D25*
X-946572Y113903D02*
X-965572Y113903D01*
G54D32*
X-553512Y-266700D02*
X-535512Y-266700D01*
G54D32*
X-553034Y-292130D02*
X-535034Y-292130D01*
G54D32*
X-553034Y-317530D02*
X-535034Y-317530D01*
G54D32*
X-553030Y-342930D02*
X-535030Y-342930D01*
G54D32*
X-553034Y-215930D02*
X-535034Y-215930D01*
G54D32*
X-553034Y-165130D02*
X-535034Y-165130D01*
G54D32*
X-705430Y-215900D02*
X-687430Y-215900D01*
G54D32*
X-705428Y-190499D02*
X-687428Y-190499D01*
X-840581Y-3968D02*
G54D27*
D03*
X-840581Y-54768D02*
G54D27*
D03*
X-471090Y58738D02*
G54D27*
D03*
X-521890Y58738D02*
G54D27*
D03*
X-733822Y216297D02*
G54D27*
D03*
X-733822Y267097D02*
G54D27*
D03*
X-327818Y28576D02*
G54D27*
D03*
X-327818Y-39247D02*
G54D27*
D03*
X-379413Y-56312D02*
G54D27*
D03*
X-457597Y-55916D02*
G54D27*
D03*
X-380604Y-195616D02*
G54D27*
D03*
X-860822Y164306D02*
G54D27*
D03*
X-860822Y215106D02*
G54D27*
D03*
X-754658Y70092D02*
G54D27*
D03*
X-888008Y109780D02*
G54D27*
D03*
X-778471Y109779D02*
G54D27*
D03*
X-666155Y70092D02*
G54D27*
D03*
X-607616Y81006D02*
G54D27*
D03*
X-600075Y21078D02*
G54D27*
D03*
X-812403Y-229791D02*
G54D27*
D03*
X-650478Y-369491D02*
G54D33*
D03*
X-522684Y-390922D02*
G54D33*
D03*
X-853281Y-290909D02*
G54D31*
D03*
X-724873Y96918D02*
G54D30*
D03*
G36*
X-745810Y130151D02*
X-727425Y114724D01*
X-742852Y96339D01*
X-761237Y111766D01*
X-745810Y130151D01*
G37*
X-528637Y-135731D02*
G54D27*
D03*
X-528637Y-84931D02*
G54D27*
D03*
X-694531Y-128984D02*
G54D27*
D03*
X-694531Y-78184D02*
G54D27*
D03*
X-839788Y-190897D02*
G54D27*
D03*
X-421481Y-215900D02*
G54D33*
D03*
X-513556Y-195218D02*
G54D33*
D03*
X-921471Y7103D02*
G54D29*
D03*
X-921471Y83303D02*
G54D29*
D03*
X-434344Y253044D02*
G54D15*
D03*
X-434344Y320044D02*
G54D15*
D03*
M02*
