%FSLAX34Y34*%
%MOMM*%
%LNSILK_TOP*%
G71*
G01*
%ADD10C, 2.00*%
%ADD11C, 1.60*%
%ADD12C, 1.90*%
%ADD13C, 0.80*%
%ADD14C, 2.00*%
%ADD15C, 1.00*%
%ADD16C, 0.70*%
%ADD17C, 2.50*%
%ADD18C, 3.00*%
%ADD19C, 4.00*%
%ADD20C, 4.00*%
%ADD21C, 2.00*%
%ADD22C, 3.00*%
%ADD23C, 3.00*%
%ADD24C, 1.90*%
%ADD25C, 1.20*%
%ADD26C, 2.00*%
%ADD27C, 0.30*%
%ADD28C, 0.50*%
%ADD29C, 1.50*%
%ADD30C, 0.60*%
%ADD31C, 1.70*%
%ADD32C, 1.90*%
%ADD33C, 2.00*%
%ADD34C, 1.80*%
%ADD35C, 2.60*%
%ADD36C, 0.90*%
%ADD37C, 2.50*%
%ADD38C, 1.80*%
%ADD39C, 1.50*%
%ADD40C, 3.00*%
%ADD41C, 1.30*%
%ADD42C, 1.80*%
%ADD43C, 1.40*%
%ADD44C, 1.40*%
%LPD*%
G36*
X-649000Y233881D02*
X-629000Y233881D01*
X-629000Y213881D01*
X-649000Y213881D01*
X-649000Y233881D01*
G37*
X-639000Y198481D02*
G54D10*
D03*
X-639000Y173081D02*
G54D10*
D03*
X-639000Y147681D02*
G54D10*
D03*
X-562800Y223881D02*
G54D10*
D03*
X-562800Y198481D02*
G54D10*
D03*
X-562800Y173081D02*
G54D10*
D03*
X-562800Y147681D02*
G54D10*
D03*
X-639000Y122281D02*
G54D10*
D03*
X-562800Y122281D02*
G54D10*
D03*
X-639000Y96881D02*
G54D10*
D03*
X-639000Y71481D02*
G54D10*
D03*
X-562800Y96881D02*
G54D11*
D03*
X-562800Y71481D02*
G54D11*
D03*
X-639000Y46081D02*
G54D10*
D03*
X-562800Y46081D02*
G54D10*
D03*
X-639000Y20681D02*
G54D10*
D03*
X-562800Y20681D02*
G54D10*
D03*
X-639000Y-4719D02*
G54D10*
D03*
X-562800Y-4719D02*
G54D10*
D03*
X-639000Y-30119D02*
G54D10*
D03*
X-639000Y-55519D02*
G54D10*
D03*
X-639000Y-80919D02*
G54D10*
D03*
X-639000Y-106319D02*
G54D10*
D03*
X-562800Y-30119D02*
G54D10*
D03*
X-562800Y-55519D02*
G54D10*
D03*
X-562800Y-80919D02*
G54D10*
D03*
X-562800Y-106319D02*
G54D10*
D03*
G36*
X-736575Y320253D02*
X-717575Y320253D01*
X-717575Y301253D01*
X-736575Y301253D01*
X-736575Y320253D01*
G37*
X-701675Y310753D02*
G54D12*
D03*
X-676275Y310753D02*
G54D12*
D03*
X-650875Y310753D02*
G54D12*
D03*
X-625475Y310753D02*
G54D12*
D03*
X-600075Y310753D02*
G54D12*
D03*
X-574675Y310753D02*
G54D12*
D03*
X-549275Y310753D02*
G54D12*
D03*
X-523875Y310753D02*
G54D12*
D03*
X-498475Y310753D02*
G54D12*
D03*
G54D13*
X-498475Y310753D02*
X-523875Y310753D01*
G36*
X-506491Y208481D02*
X-486491Y208481D01*
X-486491Y188481D01*
X-506491Y188481D01*
X-506491Y208481D01*
G37*
X-544030Y-342930D02*
G54D14*
D03*
X-544034Y-317530D02*
G54D14*
D03*
X-544034Y-292130D02*
G54D14*
D03*
X-544034Y-266730D02*
G54D14*
D03*
X-544034Y-241330D02*
G54D14*
D03*
X-544034Y-215930D02*
G54D14*
D03*
X-544034Y-190530D02*
G54D14*
D03*
X-544034Y-165130D02*
G54D14*
D03*
X-696425Y-342898D02*
G54D14*
D03*
X-696428Y-317499D02*
G54D14*
D03*
X-696428Y-292099D02*
G54D14*
D03*
X-696428Y-266699D02*
G54D14*
D03*
X-696428Y-241299D02*
G54D14*
D03*
X-696430Y-215900D02*
G54D14*
D03*
X-696428Y-190499D02*
G54D14*
D03*
X-696428Y-165099D02*
G54D14*
D03*
G54D15*
X-562800Y223881D02*
X-482953Y223881D01*
X-468313Y238522D01*
X-468313Y303213D01*
X-476250Y311150D01*
X-523478Y311150D01*
X-523875Y310753D01*
G54D15*
X-562800Y198481D02*
X-496447Y198481D01*
G36*
X-506491Y269160D02*
X-486491Y269160D01*
X-486491Y249160D01*
X-506491Y249160D01*
X-506491Y269160D01*
G37*
G36*
X-541019Y183081D02*
X-521019Y183081D01*
X-521019Y163081D01*
X-541019Y163081D01*
X-541019Y183081D01*
G37*
G36*
X-541019Y259634D02*
X-521019Y259634D01*
X-521019Y239634D01*
X-541019Y239634D01*
X-541019Y259634D01*
G37*
G54D15*
X-531019Y173081D02*
X-562800Y173081D01*
G54D16*
X-562800Y147681D02*
X-572338Y147681D01*
X-581025Y156369D01*
X-581025Y260350D01*
X-600075Y279400D01*
X-600075Y310753D01*
G54D13*
X-562800Y122281D02*
X-592578Y122281D01*
X-599282Y128984D01*
X-599282Y257175D01*
X-624682Y282575D01*
X-624682Y309960D01*
X-625475Y310753D01*
G54D16*
X-562800Y122281D02*
X-592578Y122281D01*
X-599282Y128984D01*
X-804822Y-377400D02*
G54D17*
D03*
X-419853Y-377400D02*
G54D17*
D03*
X-419922Y-556378D02*
G54D17*
D03*
X-804822Y-556378D02*
G54D17*
D03*
X-326266Y-477547D02*
G54D18*
D03*
X-274941Y-434481D02*
G54D18*
D03*
X-900509Y-345281D02*
G54D19*
D03*
X-900509Y-395288D02*
G54D19*
D03*
X-900508Y-445294D02*
G54D19*
D03*
G54D20*
X-920509Y-345281D02*
X-880509Y-345281D01*
G54D20*
X-920509Y-395288D02*
X-880509Y-395288D01*
G54D20*
X-920508Y-445294D02*
X-880508Y-445294D01*
X-340121Y125811D02*
G54D21*
D03*
X-314721Y125811D02*
G54D21*
D03*
G36*
X-304721Y110411D02*
X-304721Y90411D01*
X-324721Y90411D01*
X-324721Y110411D01*
X-304721Y110411D01*
G37*
X-340121Y100311D02*
G54D21*
D03*
X-340021Y151211D02*
G54D21*
D03*
X-314721Y151211D02*
G54D21*
D03*
X-492125Y-94853D02*
G54D22*
D03*
X-492522Y-147241D02*
G54D22*
D03*
X-727472Y-90884D02*
G54D22*
D03*
X-727869Y-143272D02*
G54D22*
D03*
G54D13*
X-639000Y-55519D02*
X-623931Y-55519D01*
X-616347Y-63103D01*
X-616347Y-282972D01*
X-607616Y-291703D01*
X-544461Y-291703D01*
X-544034Y-292130D01*
G54D13*
X-639000Y-30119D02*
X-610438Y-30119D01*
X-596106Y-44450D01*
X-596106Y-251619D01*
X-581422Y-266303D01*
X-544461Y-266303D01*
X-544034Y-266730D01*
G54D15*
X-696425Y-342898D02*
X-544062Y-342898D01*
X-544030Y-342930D01*
G54D15*
X-781845Y-207522D02*
X-781845Y-154783D01*
X-769541Y-142478D01*
X-728662Y-142478D01*
X-727869Y-143272D01*
X-915194Y152797D02*
G54D23*
D03*
X-915194Y203597D02*
G54D23*
D03*
X-797991Y-32708D02*
G54D21*
D03*
X-797991Y-7308D02*
G54D21*
D03*
X-797991Y18092D02*
G54D21*
D03*
X-766473Y174585D02*
G54D24*
D03*
X-791873Y174585D02*
G54D24*
D03*
X-817273Y174585D02*
G54D24*
D03*
G54D25*
X-817273Y174585D02*
X-817273Y220556D01*
X-727075Y310753D01*
G54D25*
X-860822Y215106D02*
X-822325Y215106D01*
X-821928Y214709D01*
G54D15*
X-666155Y70092D02*
X-640389Y70092D01*
X-639000Y71481D01*
X-962819Y139303D02*
G54D12*
D03*
X-962819Y113903D02*
G54D12*
D03*
G54D25*
X-701675Y310753D02*
X-701675Y346472D01*
X-503555Y128647D02*
G54D26*
D03*
X-503555Y103247D02*
G54D26*
D03*
G54D27*
X-579834Y84138D02*
X-542528Y84138D01*
G54D28*
X-503555Y103247D02*
X-523419Y103247D01*
X-542528Y84138D01*
X-458391Y174951D02*
G54D26*
D03*
X-407591Y174951D02*
G54D26*
D03*
G54D15*
X-915194Y203597D02*
X-915194Y237728D01*
X-865981Y286941D01*
X-723503Y348456D01*
X-505222Y352425D01*
X-419497Y312341D01*
G36*
X-434699Y228524D02*
X-434699Y208524D01*
X-454699Y208524D01*
X-454699Y228524D01*
X-434699Y228524D01*
G37*
G36*
X-358102Y228524D02*
X-358102Y208524D01*
X-378102Y208524D01*
X-378102Y228524D01*
X-358102Y228524D01*
G37*
X-1030288Y106362D02*
G54D29*
D03*
X-197247Y106362D02*
G54D29*
D03*
X-202803Y-351631D02*
G54D29*
D03*
X-1030288Y-351632D02*
G54D29*
D03*
G54D15*
X-826963Y-7308D02*
X-777643Y-7308D01*
X-777081Y-6747D01*
X-705941Y21531D02*
G54D26*
D03*
X-705941Y-29469D02*
G54D26*
D03*
G54D30*
X-639000Y-4719D02*
X-697662Y-4719D01*
X-705644Y-12700D01*
X-705644Y-29172D01*
X-705941Y-29469D01*
X-746125Y29765D02*
G54D26*
D03*
X-746125Y4365D02*
G54D26*
D03*
X-746125Y-18256D02*
G54D26*
D03*
X-746125Y-43656D02*
G54D26*
D03*
X-727472Y-6748D02*
G54D31*
D03*
G36*
X-660521Y45167D02*
X-660521Y25167D01*
X-680521Y25167D01*
X-680521Y45167D01*
X-660521Y45167D01*
G37*
G36*
X-660521Y-26270D02*
X-660521Y-46270D01*
X-680521Y-46270D01*
X-680521Y-26270D01*
X-660521Y-26270D01*
G37*
G54D32*
X-817273Y184085D02*
X-817273Y165085D01*
G54D32*
X-791873Y184085D02*
X-791873Y165085D01*
G54D32*
X-766473Y184085D02*
X-766473Y165085D01*
G54D33*
X-787991Y18092D02*
X-807991Y18092D01*
G54D33*
X-787991Y-7308D02*
X-807991Y-7308D01*
G54D33*
X-787991Y-32708D02*
X-807991Y-32708D01*
G54D32*
X-625475Y301253D02*
X-625475Y320253D01*
G54D32*
X-600075Y301253D02*
X-600075Y320253D01*
G54D32*
X-701675Y301253D02*
X-701675Y320253D01*
G54D32*
X-727075Y301253D02*
X-727075Y320253D01*
G54D32*
X-676275Y301253D02*
X-676275Y320253D01*
G54D32*
X-650875Y301253D02*
X-650875Y320253D01*
G54D32*
X-574675Y301253D02*
X-574675Y320253D01*
G54D32*
X-549275Y301253D02*
X-549275Y320253D01*
G54D32*
X-498475Y301253D02*
X-498475Y320253D01*
G54D32*
X-523875Y301253D02*
X-523875Y320253D01*
X-371078Y25797D02*
G54D34*
D03*
X-738188Y-191294D02*
G54D35*
D03*
G36*
X-583088Y-144737D02*
X-563088Y-144737D01*
X-563088Y-164737D01*
X-583088Y-164737D01*
X-583088Y-144737D01*
G37*
G36*
X-647381Y-180500D02*
X-627381Y-180500D01*
X-627381Y-200500D01*
X-647381Y-200500D01*
X-647381Y-180500D01*
G37*
G36*
X-583881Y-180500D02*
X-563881Y-180500D01*
X-563881Y-200500D01*
X-583881Y-200500D01*
X-583881Y-180500D01*
G37*
G36*
X-671988Y-144737D02*
X-651988Y-144737D01*
X-651988Y-164737D01*
X-671988Y-164737D01*
X-671988Y-144737D01*
G37*
G54D13*
X-696516Y-190500D02*
X-676364Y-190500D01*
X-641438Y-225426D01*
X-641438Y-307976D01*
X-631883Y-317531D01*
X-544122Y-317531D01*
G54D15*
X-544034Y-165130D02*
X-562695Y-165130D01*
X-573088Y-154737D01*
G54D15*
X-544034Y-190530D02*
X-573851Y-190530D01*
X-573881Y-190500D01*
G54D15*
X-696430Y-215900D02*
X-681434Y-215900D01*
X-667544Y-229791D01*
X-667544Y-340916D01*
G54D15*
X-544034Y-165130D02*
X-525035Y-165130D01*
X-513556Y-176609D01*
X-513556Y-195218D01*
X-513160Y-195615D01*
G54D30*
X-637381Y-190500D02*
X-637381Y-140891D01*
X-670719Y-107553D01*
X-670719Y-36468D01*
X-670521Y-36270D01*
G54D15*
X-746125Y-6748D02*
X-727472Y-6748D01*
G54D15*
X-777081Y-6747D02*
X-746125Y-6748D01*
G54D36*
X-670521Y35167D02*
X-676120Y35167D01*
X-700484Y59531D01*
X-700484Y89694D01*
X-667941Y122238D01*
X-639044Y122238D01*
X-639000Y122281D01*
G54D16*
X-496491Y259160D02*
X-549275Y289719D01*
X-549275Y310753D01*
G54D15*
X-531019Y249634D02*
X-574675Y287338D01*
X-574675Y310753D01*
G54D13*
X-696428Y-190499D02*
X-682227Y-190499D01*
X-661988Y-170259D01*
X-661988Y-154737D01*
G54D25*
X-696428Y-165099D02*
X-711993Y-165099D01*
X-738188Y-191294D01*
X-783829Y220266D02*
G54D34*
D03*
G36*
X-792829Y236666D02*
X-792829Y254666D01*
X-774829Y254666D01*
X-774829Y236666D01*
X-792829Y236666D01*
G37*
G54D15*
X-860822Y189706D02*
X-901303Y189706D01*
X-915194Y203597D01*
G54D25*
X-766473Y174585D02*
X-766473Y121777D01*
X-778471Y109779D01*
X-706836Y178595D02*
G54D34*
D03*
G36*
X-690436Y187595D02*
X-672436Y187595D01*
X-672436Y169595D01*
X-690436Y169595D01*
X-690436Y187595D01*
G37*
X-354806Y-397272D02*
G54D37*
D03*
X-354806Y-498872D02*
G54D37*
D03*
X-379675Y-261683D02*
G54D38*
D03*
G36*
X-388675Y-296083D02*
X-388675Y-278083D01*
X-370675Y-278083D01*
X-370675Y-296083D01*
X-388675Y-296083D01*
G37*
X-323453Y-273050D02*
G54D37*
D03*
X-323453Y-374650D02*
G54D37*
D03*
G54D15*
X-379675Y-261683D02*
X-334820Y-261683D01*
X-323453Y-273050D01*
G54D15*
X-354806Y-397272D02*
X-346075Y-397272D01*
X-323453Y-374650D01*
X-809228Y137319D02*
G54D26*
D03*
X-733028Y137319D02*
G54D26*
D03*
G54D39*
X-379413Y-56312D02*
X-379413Y-194425D01*
X-380604Y-195616D01*
G54D15*
X-314721Y151211D02*
X-314721Y205184D01*
X-329009Y219472D01*
X-367154Y219472D01*
X-368102Y218524D01*
G54D15*
X-354806Y-498872D02*
X-347590Y-498872D01*
X-326266Y-477547D01*
X-858441Y-257572D02*
G54D40*
D03*
X-888206Y-279400D02*
G54D40*
D03*
G54D32*
X-953319Y139303D02*
X-972319Y139303D01*
G54D32*
X-946572Y113903D02*
X-965572Y113903D01*
G54D15*
X-797991Y-7308D02*
X-834464Y-7308D01*
X-850106Y8334D01*
X-850106Y119062D01*
X-836612Y132556D01*
X-813991Y132556D01*
X-809228Y137319D01*
X-805656Y137319D01*
X-791873Y151102D01*
X-791873Y174585D01*
G54D15*
X-962819Y139303D02*
X-962819Y194072D01*
X-953294Y203597D01*
X-915194Y203597D01*
G54D15*
X-962819Y113903D02*
X-937419Y113903D01*
X-917972Y133350D01*
X-917972Y150019D01*
X-915194Y152797D01*
G54D15*
X-405210Y150019D02*
X-405209Y182889D01*
G54D15*
X-405210Y150019D02*
X-405210Y298053D01*
X-419497Y312341D01*
G54D15*
X-444699Y218524D02*
X-456009Y182889D01*
X-472210Y150020D01*
G54D15*
X-503555Y128647D02*
X-472210Y150020D01*
G54D15*
X-314721Y100411D02*
X-314721Y41673D01*
X-327818Y28576D01*
G54D15*
X-274941Y-434481D02*
X-274941Y-270762D01*
X-312738Y-232966D01*
X-312738Y-54327D01*
X-327818Y-39247D01*
G54D15*
X-562800Y-30119D02*
X-336946Y-30119D01*
X-327818Y-39247D01*
G54D15*
X-562800Y-4719D02*
X-493360Y-4719D01*
X-491331Y-6747D01*
X-302022Y-6747D01*
X-284162Y11112D01*
X-284162Y117078D01*
X-292895Y125811D01*
X-314721Y125811D01*
G54D15*
X-860822Y189706D02*
X-860822Y156765D01*
X-836612Y132556D01*
G54D13*
X-562800Y96881D02*
X-615553Y109141D01*
X-615553Y248047D01*
X-651669Y284163D01*
X-651669Y309960D01*
X-650875Y310753D01*
G54D13*
X-746125Y29765D02*
X-714175Y29765D01*
X-705941Y21531D01*
G54D13*
X-746125Y-43656D02*
X-720128Y-43656D01*
X-705941Y-29469D01*
G54D13*
X-746125Y4365D02*
X-746125Y-18256D01*
G54D30*
X-705941Y21531D02*
X-696317Y11906D01*
X-653256Y11906D01*
X-639000Y20681D01*
G54D41*
X-962819Y139303D02*
X-1000125Y139303D01*
X-1009253Y130175D01*
X-1009253Y116284D01*
X-982662Y89694D01*
X-982662Y76994D01*
X-983456Y-433784D01*
X-933450Y-483791D01*
X-815578Y-483791D01*
X-800456Y-498912D01*
X-800456Y-547250D01*
G54D41*
X-840581Y-54768D02*
X-868760Y-31749D01*
X-877888Y-22622D01*
X-877888Y98865D01*
X-888802Y109780D01*
G54D25*
X-791873Y174585D02*
X-791873Y212223D01*
X-783829Y220266D01*
G54D16*
X-578247Y84931D02*
X-639000Y71481D01*
G54D15*
X-600075Y21078D02*
X-563197Y21078D01*
X-562800Y20681D01*
G54D15*
X-562800Y46081D02*
X-534547Y46081D01*
X-521890Y58738D01*
G54D15*
X-405210Y150019D02*
X-341213Y150019D01*
X-340021Y151211D01*
G54D15*
X-639000Y46081D02*
X-594916Y54372D01*
X-562800Y71481D01*
G54D15*
X-562800Y20681D02*
X-535825Y20681D01*
X-528638Y13494D01*
X-383381Y13494D01*
X-371078Y25797D01*
X-340121Y100311D01*
G54D15*
X-562800Y-55519D02*
X-439384Y-55519D01*
X-421084Y-73819D01*
X-421481Y-215900D01*
G54D42*
X-553512Y-266700D02*
X-535512Y-266700D01*
G54D42*
X-553034Y-292130D02*
X-535034Y-292130D01*
G54D42*
X-553034Y-317530D02*
X-535034Y-317530D01*
G54D42*
X-553030Y-342930D02*
X-535030Y-342930D01*
G54D42*
X-553034Y-215930D02*
X-535034Y-215930D01*
G54D42*
X-553034Y-165130D02*
X-535034Y-165130D01*
G54D42*
X-705430Y-215900D02*
X-687430Y-215900D01*
G54D42*
X-705428Y-190499D02*
X-687428Y-190499D01*
X-840581Y-3968D02*
G54D34*
D03*
X-840581Y-54768D02*
G54D34*
D03*
X-471090Y58738D02*
G54D34*
D03*
X-521890Y58738D02*
G54D34*
D03*
G54D30*
X-471090Y58738D02*
X-471090Y107553D01*
X-461169Y117475D01*
X-413544Y117475D01*
X-405606Y125412D01*
X-405606Y149623D01*
X-405210Y150019D01*
X-733822Y216297D02*
G54D34*
D03*
X-733822Y267097D02*
G54D34*
D03*
G54D36*
X-733822Y216297D02*
X-748903Y216297D01*
X-766366Y198834D01*
X-766366Y174692D01*
X-766473Y174585D01*
G54D36*
X-701675Y310753D02*
X-701675Y279003D01*
X-710803Y269875D01*
X-731043Y269875D01*
X-733822Y267097D01*
G54D39*
X-900509Y-345281D02*
X-862012Y-345281D01*
X-829866Y-377428D01*
X-804850Y-377428D01*
X-804822Y-377400D01*
G54D15*
X-419922Y-556378D02*
X-419922Y-477469D01*
X-404019Y-461566D01*
X-374253Y-461566D01*
X-351631Y-438944D01*
X-351631Y-400447D01*
X-354806Y-397272D01*
G54D15*
X-419922Y-556378D02*
X-487144Y-556378D01*
X-507822Y-577056D01*
X-754062Y-577056D01*
X-774741Y-556378D01*
X-804822Y-556378D01*
X-327818Y28576D02*
G54D34*
D03*
X-327818Y-39247D02*
G54D34*
D03*
X-379413Y-56312D02*
G54D34*
D03*
X-457597Y-55916D02*
G54D34*
D03*
X-380604Y-195616D02*
G54D34*
D03*
X-860822Y164306D02*
G54D34*
D03*
X-860822Y215106D02*
G54D34*
D03*
X-754658Y70092D02*
G54D34*
D03*
X-888008Y109780D02*
G54D34*
D03*
X-778471Y109779D02*
G54D34*
D03*
X-666155Y70092D02*
G54D34*
D03*
X-607616Y81006D02*
G54D34*
D03*
X-600075Y21078D02*
G54D34*
D03*
G54D15*
X-379675Y-287083D02*
X-379675Y-361816D01*
X-396081Y-378222D01*
X-419031Y-378222D01*
X-419853Y-377400D01*
X-812403Y-229791D02*
G54D34*
D03*
X-650478Y-369491D02*
G54D43*
D03*
G54D15*
X-492522Y-147241D02*
X-483394Y-156369D01*
X-483394Y-353219D01*
X-499269Y-369094D01*
X-650478Y-369491D01*
G54D15*
X-492125Y-94853D02*
X-473472Y-94853D01*
X-456406Y-111919D01*
X-456406Y-367506D01*
X-482997Y-394097D01*
X-519509Y-394097D01*
X-522684Y-390922D01*
X-522684Y-390922D02*
G54D43*
D03*
G54D15*
X-727472Y-90884D02*
X-727869Y-90488D01*
X-766366Y-90488D01*
X-812403Y-136525D01*
X-812403Y-229791D01*
G54D15*
X-727869Y-143272D02*
X-770334Y-143272D01*
X-781845Y-154783D01*
X-781845Y-291305D01*
X-755650Y-317500D01*
X-696428Y-317499D01*
X-853281Y-290909D02*
G54D40*
D03*
X-724873Y96918D02*
G54D38*
D03*
G36*
X-745440Y125924D02*
X-731651Y114354D01*
X-743222Y100565D01*
X-757010Y112135D01*
X-745440Y125924D01*
G37*
G54D15*
X-733028Y137319D02*
X-733028Y124548D01*
X-744331Y113245D01*
G54D15*
X-706836Y178595D02*
X-706836Y255590D01*
X-718344Y267097D01*
X-733822Y267097D01*
G54D15*
X-676275Y310753D02*
X-676275Y183756D01*
X-681436Y178595D01*
G54D15*
X-681436Y178595D02*
X-681436Y140355D01*
X-724873Y96918D01*
G54D15*
X-797991Y18092D02*
X-797991Y26760D01*
X-754658Y70092D01*
X-724873Y96918D01*
X-528637Y-135731D02*
G54D34*
D03*
X-528637Y-84931D02*
G54D34*
D03*
G54D15*
X-492522Y-147241D02*
X-528637Y-135731D01*
G54D15*
X-492125Y-94853D02*
X-528637Y-84931D01*
X-694531Y-128984D02*
G54D34*
D03*
X-694531Y-78184D02*
G54D34*
D03*
G54D15*
X-694531Y-128984D02*
X-727869Y-143272D01*
G54D15*
X-694531Y-78184D02*
X-727472Y-90884D01*
X-839788Y-190897D02*
G54D34*
D03*
X-421481Y-215900D02*
G54D43*
D03*
X-513556Y-195218D02*
G54D43*
D03*
G54D44*
X-888206Y-279400D02*
X-888206Y-332978D01*
X-900509Y-345281D01*
G54D44*
X-797991Y-32708D02*
X-818521Y-32708D01*
X-840581Y-54768D01*
X-840581Y-239712D01*
X-858441Y-257572D01*
X-921471Y7103D02*
G54D37*
D03*
X-921471Y83303D02*
G54D37*
D03*
G54D15*
X-921471Y83303D02*
X-932219Y83303D01*
X-962819Y113903D01*
G54D15*
X-921471Y7103D02*
X-914328Y-41D01*
X-914328Y-239640D01*
X-960834Y-286147D01*
X-960834Y-377031D01*
X-942578Y-395288D01*
X-900509Y-395288D01*
X-434344Y253044D02*
G54D18*
D03*
X-434344Y320044D02*
G54D18*
D03*
M02*
