%FSLAX34Y34*%
%MOMM*%
%LNCOPPER_BOTTOM*%
G71*
G01*
%ADD10C, 0.00*%
%ADD11C, 0.04*%
%ADD12C, 0.04*%
%ADD13C, 0.07*%
%ADD14C, 0.06*%
%ADD15C, 0.03*%
%ADD16C, 0.15*%
%ADD17C, 0.32*%
%ADD18C, 0.19*%
%ADD19C, 0.10*%
%ADD20C, 0.08*%
%ADD21C, 0.13*%
%ADD22C, 0.33*%
%ADD23C, 0.09*%
%ADD24C, 0.17*%
%ADD25C, 0.02*%
%ADD26C, 0.11*%
%ADD27C, 0.14*%
%LPD*%
G54D10*
X-637319Y235838D02*
X-564294Y235838D01*
X-564294Y-119762D01*
X-637319Y-119762D01*
X-637319Y235838D01*
G54D10*
X-640494Y226313D02*
X-637319Y226313D01*
X-637319Y221550D01*
X-640494Y221550D01*
X-640494Y226313D01*
G54D10*
X-640494Y226313D02*
X-637319Y226313D01*
X-637319Y215994D01*
X-640494Y215994D01*
X-640494Y226313D01*
G54D10*
X-564294Y226313D02*
X-561119Y226313D01*
X-561119Y221550D01*
X-564294Y221550D01*
X-564294Y226313D01*
G54D10*
X-564294Y226313D02*
X-561119Y226313D01*
X-561119Y215994D01*
X-564294Y215994D01*
X-564294Y226313D01*
G54D10*
X-640550Y200844D02*
X-637375Y200844D01*
X-637375Y196081D01*
X-640550Y196081D01*
X-640550Y200844D01*
G54D10*
X-640550Y206400D02*
X-637375Y206400D01*
X-637375Y190525D01*
X-640550Y190525D01*
X-640550Y206400D01*
G54D10*
X-640550Y175444D02*
X-637375Y175444D01*
X-637375Y170681D01*
X-640550Y170681D01*
X-640550Y175444D01*
G54D10*
X-640550Y181000D02*
X-637375Y181000D01*
X-637375Y165125D01*
X-640550Y165125D01*
X-640550Y181000D01*
G54D10*
X-640550Y150044D02*
X-637375Y150044D01*
X-637375Y145281D01*
X-640550Y145281D01*
X-640550Y150044D01*
G54D10*
X-640550Y155600D02*
X-637375Y155600D01*
X-637375Y139725D01*
X-640550Y139725D01*
X-640550Y155600D01*
G54D10*
X-640550Y124644D02*
X-637375Y124644D01*
X-637375Y119881D01*
X-640550Y119881D01*
X-640550Y124644D01*
G54D10*
X-640550Y130200D02*
X-637375Y130200D01*
X-637375Y114325D01*
X-640550Y114325D01*
X-640550Y130200D01*
G54D10*
X-640550Y99244D02*
X-637375Y99244D01*
X-637375Y94481D01*
X-640550Y94481D01*
X-640550Y99244D01*
G54D10*
X-640550Y104800D02*
X-637375Y104800D01*
X-637375Y88925D01*
X-640550Y88925D01*
X-640550Y104800D01*
G54D10*
X-640550Y73844D02*
X-637375Y73844D01*
X-637375Y69081D01*
X-640550Y69081D01*
X-640550Y73844D01*
G54D10*
X-640550Y79400D02*
X-637375Y79400D01*
X-637375Y63525D01*
X-640550Y63525D01*
X-640550Y79400D01*
G54D10*
X-640550Y48444D02*
X-637375Y48444D01*
X-637375Y43681D01*
X-640550Y43681D01*
X-640550Y48444D01*
G54D10*
X-640550Y54000D02*
X-637375Y54000D01*
X-637375Y38125D01*
X-640550Y38125D01*
X-640550Y54000D01*
G54D10*
X-640550Y23044D02*
X-637375Y23044D01*
X-637375Y18281D01*
X-640550Y18281D01*
X-640550Y23044D01*
G54D10*
X-640550Y28600D02*
X-637375Y28600D01*
X-637375Y12725D01*
X-640550Y12725D01*
X-640550Y28600D01*
G54D10*
X-640550Y-2356D02*
X-637375Y-2356D01*
X-637375Y-7118D01*
X-640550Y-7118D01*
X-640550Y-2356D01*
G54D10*
X-640550Y3200D02*
X-637375Y3200D01*
X-637375Y-12675D01*
X-640550Y-12675D01*
X-640550Y3200D01*
G54D10*
X-640550Y-27756D02*
X-637375Y-27756D01*
X-637375Y-32519D01*
X-640550Y-32519D01*
X-640550Y-27756D01*
G54D10*
X-640550Y-22200D02*
X-637375Y-22200D01*
X-637375Y-38075D01*
X-640550Y-38075D01*
X-640550Y-22200D01*
G54D10*
X-640550Y-53156D02*
X-637375Y-53156D01*
X-637375Y-57919D01*
X-640550Y-57919D01*
X-640550Y-53156D01*
G54D10*
X-640550Y-47600D02*
X-637375Y-47600D01*
X-637375Y-63475D01*
X-640550Y-63475D01*
X-640550Y-47600D01*
G54D10*
X-640550Y-78556D02*
X-637375Y-78556D01*
X-637375Y-83319D01*
X-640550Y-83319D01*
X-640550Y-78556D01*
G54D10*
X-640550Y-73000D02*
X-637375Y-73000D01*
X-637375Y-88875D01*
X-640550Y-88875D01*
X-640550Y-73000D01*
G54D10*
X-640550Y-103956D02*
X-637375Y-103956D01*
X-637375Y-108719D01*
X-640550Y-108719D01*
X-640550Y-103956D01*
G54D10*
X-640550Y-98400D02*
X-637375Y-98400D01*
X-637375Y-108719D01*
X-640550Y-108719D01*
X-640550Y-98400D01*
G54D10*
X-564350Y200844D02*
X-561175Y200844D01*
X-561175Y196081D01*
X-564350Y196081D01*
X-564350Y200844D01*
G54D10*
X-564350Y206400D02*
X-561175Y206400D01*
X-561175Y190525D01*
X-564350Y190525D01*
X-564350Y206400D01*
G54D10*
X-564350Y175444D02*
X-561175Y175444D01*
X-561175Y170681D01*
X-564350Y170681D01*
X-564350Y175444D01*
G54D10*
X-564350Y181000D02*
X-561175Y181000D01*
X-561175Y165125D01*
X-564350Y165125D01*
X-564350Y181000D01*
G54D10*
X-564350Y150044D02*
X-561175Y150044D01*
X-561175Y145281D01*
X-564350Y145281D01*
X-564350Y150044D01*
G54D10*
X-564350Y155600D02*
X-561175Y155600D01*
X-561175Y139725D01*
X-564350Y139725D01*
X-564350Y155600D01*
G54D10*
X-564350Y124644D02*
X-561175Y124644D01*
X-561175Y119881D01*
X-564350Y119881D01*
X-564350Y124644D01*
G54D10*
X-564350Y130200D02*
X-561175Y130200D01*
X-561175Y114325D01*
X-564350Y114325D01*
X-564350Y130200D01*
G54D10*
X-564350Y99244D02*
X-561175Y99244D01*
X-561175Y94481D01*
X-564350Y94481D01*
X-564350Y99244D01*
G54D10*
X-564350Y104800D02*
X-561175Y104800D01*
X-561175Y88925D01*
X-564350Y88925D01*
X-564350Y104800D01*
G54D10*
X-564350Y73844D02*
X-561175Y73844D01*
X-561175Y69081D01*
X-564350Y69081D01*
X-564350Y73844D01*
G54D10*
X-564350Y79400D02*
X-561175Y79400D01*
X-561175Y63525D01*
X-564350Y63525D01*
X-564350Y79400D01*
G54D10*
X-564350Y48444D02*
X-561175Y48444D01*
X-561175Y43681D01*
X-564350Y43681D01*
X-564350Y48444D01*
G54D10*
X-564350Y54000D02*
X-561175Y54000D01*
X-561175Y38125D01*
X-564350Y38125D01*
X-564350Y54000D01*
G54D10*
X-564350Y23044D02*
X-561175Y23044D01*
X-561175Y18281D01*
X-564350Y18281D01*
X-564350Y23044D01*
G54D10*
X-564350Y28600D02*
X-561175Y28600D01*
X-561175Y12725D01*
X-564350Y12725D01*
X-564350Y28600D01*
G54D10*
X-564350Y-2356D02*
X-561175Y-2356D01*
X-561175Y-7118D01*
X-564350Y-7118D01*
X-564350Y-2356D01*
G54D10*
X-564350Y3200D02*
X-561175Y3200D01*
X-561175Y-12675D01*
X-564350Y-12675D01*
X-564350Y3200D01*
G54D10*
X-564350Y-27756D02*
X-561175Y-27756D01*
X-561175Y-32519D01*
X-564350Y-32519D01*
X-564350Y-27756D01*
G54D10*
X-564350Y-22200D02*
X-561175Y-22200D01*
X-561175Y-38075D01*
X-564350Y-38075D01*
X-564350Y-22200D01*
G54D10*
X-564350Y-53156D02*
X-561175Y-53156D01*
X-561175Y-57919D01*
X-564350Y-57919D01*
X-564350Y-53156D01*
G54D10*
X-564350Y-47600D02*
X-561175Y-47600D01*
X-561175Y-63475D01*
X-564350Y-63475D01*
X-564350Y-47600D01*
G54D10*
X-564350Y-78556D02*
X-561175Y-78556D01*
X-561175Y-83319D01*
X-564350Y-83319D01*
X-564350Y-78556D01*
G54D10*
X-564350Y-73000D02*
X-561175Y-73000D01*
X-561175Y-88875D01*
X-564350Y-88875D01*
X-564350Y-73000D01*
G54D10*
X-564350Y-103956D02*
X-561175Y-103956D01*
X-561175Y-108719D01*
X-564350Y-108719D01*
X-564350Y-103956D01*
G54D10*
X-564350Y-98400D02*
X-561175Y-98400D01*
X-561175Y-108719D01*
X-564350Y-108719D01*
X-564350Y-98400D01*
G54D10*
G75*
G01X-619863Y223863D02*
G03X-619863Y223863I-6400J0D01*
G01*
G54D10*
G75*
G01X-610363Y235769D02*
G03X-591363Y235769I9500J0D01*
G01*
G54D11*
X-634463Y229818D02*
X-634996Y229596D01*
X-635263Y229152D01*
X-635263Y226929D01*
X-634996Y226485D01*
X-634463Y226263D01*
G54D11*
X-633463Y226263D02*
X-633463Y229818D01*
X-632129Y229818D01*
X-631596Y229596D01*
X-631329Y229152D01*
X-631329Y228707D01*
X-631596Y228263D01*
X-632129Y228040D01*
X-633463Y228040D01*
G54D11*
X-628229Y226929D02*
X-628496Y226485D01*
X-629029Y226263D01*
X-629563Y226263D01*
X-630096Y226485D01*
X-630363Y226929D01*
X-630363Y229152D01*
X-630096Y229596D01*
X-629563Y229818D01*
X-629029Y229818D01*
X-628496Y229596D01*
X-628229Y229152D01*
G54D11*
X-627263Y226263D02*
X-627263Y229818D01*
G54D11*
X-626263Y226263D02*
X-626263Y229818D01*
X-624129Y226263D01*
X-624129Y229818D01*
G54D11*
X-622096Y226263D02*
X-622096Y229818D01*
G54D11*
X-623163Y229818D02*
X-621029Y229818D01*
G54D11*
X-620063Y228485D02*
X-618729Y229818D01*
X-618729Y226263D01*
G54D11*
X-616163Y226263D02*
X-616163Y229818D01*
X-617763Y227596D01*
X-617763Y227152D01*
X-615629Y227152D01*
G54D11*
X-614663Y226263D02*
X-612529Y229818D01*
G54D11*
X-610496Y228040D02*
X-609696Y227596D01*
X-609429Y227152D01*
X-609429Y226263D01*
G54D11*
X-611563Y226263D02*
X-611563Y229818D01*
X-610229Y229818D01*
X-609696Y229596D01*
X-609429Y229152D01*
X-609429Y228707D01*
X-609696Y228263D01*
X-610229Y228040D01*
X-611563Y228040D01*
G54D11*
X-606596Y226263D02*
X-608463Y226263D01*
X-608463Y229818D01*
X-606596Y229818D01*
G54D11*
X-608463Y228040D02*
X-606596Y228040D01*
G54D11*
X-605563Y226929D02*
X-605296Y226485D01*
X-604763Y226263D01*
X-604229Y226263D01*
X-603696Y226485D01*
X-603429Y226929D01*
X-603429Y227374D01*
X-603696Y227818D01*
X-604229Y228040D01*
X-604763Y228040D01*
X-605296Y228263D01*
X-605563Y228707D01*
X-605563Y229152D01*
X-605296Y229596D01*
X-604763Y229818D01*
X-604229Y229818D01*
X-603696Y229596D01*
X-603429Y229152D01*
G54D11*
X-600596Y226263D02*
X-602463Y226263D01*
X-602463Y229818D01*
X-600596Y229818D01*
G54D11*
X-602463Y228040D02*
X-600596Y228040D01*
G54D11*
X-598496Y226263D02*
X-598496Y229818D01*
G54D11*
X-599563Y229818D02*
X-597429Y229818D01*
G54D11*
X-596463Y229818D02*
X-595929Y229596D01*
X-595663Y229152D01*
X-595663Y226929D01*
X-595929Y226485D01*
X-596463Y226263D01*
G54D11*
X-593563Y226263D02*
X-593563Y229818D01*
X-592229Y229818D01*
X-591696Y229596D01*
X-591429Y229152D01*
X-591429Y228707D01*
X-591696Y228263D01*
X-592229Y228040D01*
X-593563Y228040D01*
G54D11*
X-588329Y226929D02*
X-588596Y226485D01*
X-589129Y226263D01*
X-589663Y226263D01*
X-590196Y226485D01*
X-590463Y226929D01*
X-590463Y229152D01*
X-590196Y229596D01*
X-589663Y229818D01*
X-589129Y229818D01*
X-588596Y229596D01*
X-588329Y229152D01*
G54D11*
X-585229Y229152D02*
X-585496Y229596D01*
X-586029Y229818D01*
X-586563Y229818D01*
X-587096Y229596D01*
X-587363Y229152D01*
X-587363Y228040D01*
X-587363Y227818D01*
X-586563Y228263D01*
X-586029Y228263D01*
X-585496Y228040D01*
X-585229Y227596D01*
X-585229Y226929D01*
X-585496Y226485D01*
X-586029Y226263D01*
X-586563Y226263D01*
X-587096Y226485D01*
X-587363Y226929D01*
X-587363Y228040D01*
G54D11*
X-633863Y207018D02*
X-634396Y206796D01*
X-634663Y206352D01*
X-634663Y204129D01*
X-634396Y203685D01*
X-633863Y203463D01*
G54D11*
X-632863Y203463D02*
X-632863Y207018D01*
X-631529Y207018D01*
X-630996Y206796D01*
X-630729Y206352D01*
X-630729Y205907D01*
X-630996Y205463D01*
X-631529Y205240D01*
X-632863Y205240D01*
G54D11*
X-627629Y204129D02*
X-627896Y203685D01*
X-628429Y203463D01*
X-628963Y203463D01*
X-629496Y203685D01*
X-629763Y204129D01*
X-629763Y206352D01*
X-629496Y206796D01*
X-628963Y207018D01*
X-628429Y207018D01*
X-627896Y206796D01*
X-627629Y206352D01*
G54D11*
X-626663Y203463D02*
X-626663Y207018D01*
G54D11*
X-625663Y203463D02*
X-625663Y207018D01*
X-623529Y203463D01*
X-623529Y207018D01*
G54D11*
X-621496Y203463D02*
X-621496Y207018D01*
G54D11*
X-622563Y207018D02*
X-620429Y207018D01*
G54D11*
X-619463Y205685D02*
X-618129Y207018D01*
X-618129Y203463D01*
G54D11*
X-615029Y206352D02*
X-615296Y206796D01*
X-615829Y207018D01*
X-616363Y207018D01*
X-616896Y206796D01*
X-617163Y206352D01*
X-617163Y205240D01*
X-617163Y205018D01*
X-616363Y205463D01*
X-615829Y205463D01*
X-615296Y205240D01*
X-615029Y204796D01*
X-615029Y204129D01*
X-615296Y203685D01*
X-615829Y203463D01*
X-616363Y203463D01*
X-616896Y203685D01*
X-617163Y204129D01*
X-617163Y205240D01*
G54D11*
X-614063Y203463D02*
X-611929Y207018D01*
G54D11*
X-609896Y205240D02*
X-609096Y204796D01*
X-608829Y204352D01*
X-608829Y203463D01*
G54D11*
X-610963Y203463D02*
X-610963Y207018D01*
X-609629Y207018D01*
X-609096Y206796D01*
X-608829Y206352D01*
X-608829Y205907D01*
X-609096Y205463D01*
X-609629Y205240D01*
X-610963Y205240D01*
G54D11*
X-607863Y207018D02*
X-605196Y203463D01*
G54D11*
X-607863Y203463D02*
X-605196Y207018D01*
G54D11*
X-604163Y203463D02*
X-604163Y207018D01*
X-602829Y207018D01*
X-602296Y206796D01*
X-602029Y206352D01*
X-602029Y204129D01*
X-602296Y203685D01*
X-602829Y203463D01*
X-604163Y203463D01*
G54D11*
X-601063Y207018D02*
X-600529Y206796D01*
X-600263Y206352D01*
X-600263Y204129D01*
X-600529Y203685D01*
X-601063Y203463D01*
G54D11*
X-598163Y203463D02*
X-598163Y207018D01*
X-596829Y207018D01*
X-596296Y206796D01*
X-596029Y206352D01*
X-596029Y205907D01*
X-596296Y205463D01*
X-596829Y205240D01*
X-598163Y205240D01*
G54D11*
X-595063Y203463D02*
X-595063Y207018D01*
X-593729Y207018D01*
X-593196Y206796D01*
X-592929Y206352D01*
X-592929Y204129D01*
X-593196Y203685D01*
X-593729Y203463D01*
X-595063Y203463D01*
G54D11*
X-589829Y206352D02*
X-589829Y204129D01*
X-590096Y203685D01*
X-590629Y203463D01*
X-591163Y203463D01*
X-591696Y203685D01*
X-591963Y204129D01*
X-591963Y206352D01*
X-591696Y206796D01*
X-591163Y207018D01*
X-590629Y207018D01*
X-590096Y206796D01*
X-589829Y206352D01*
G54D11*
X-635063Y179618D02*
X-635596Y179396D01*
X-635863Y178952D01*
X-635863Y176729D01*
X-635596Y176285D01*
X-635063Y176063D01*
G54D11*
X-634063Y176063D02*
X-634063Y179618D01*
X-632729Y179618D01*
X-632196Y179396D01*
X-631929Y178952D01*
X-631929Y178507D01*
X-632196Y178063D01*
X-632729Y177840D01*
X-634063Y177840D01*
G54D11*
X-628829Y176729D02*
X-629096Y176285D01*
X-629629Y176063D01*
X-630163Y176063D01*
X-630696Y176285D01*
X-630963Y176729D01*
X-630963Y178952D01*
X-630696Y179396D01*
X-630163Y179618D01*
X-629629Y179618D01*
X-629096Y179396D01*
X-628829Y178952D01*
G54D11*
X-627863Y176063D02*
X-627863Y179618D01*
G54D11*
X-626863Y176063D02*
X-626863Y179618D01*
X-624729Y176063D01*
X-624729Y179618D01*
G54D11*
X-622696Y176063D02*
X-622696Y179618D01*
G54D11*
X-623763Y179618D02*
X-621629Y179618D01*
G54D11*
X-620663Y178285D02*
X-619329Y179618D01*
X-619329Y176063D01*
G54D11*
X-618363Y179618D02*
X-616229Y179618D01*
X-616496Y179174D01*
X-617029Y178507D01*
X-617563Y177618D01*
X-617829Y176952D01*
X-617829Y176063D01*
G54D11*
X-615263Y176063D02*
X-613129Y179618D01*
G54D11*
X-611096Y176063D02*
X-611096Y179618D01*
G54D11*
X-612163Y179618D02*
X-610029Y179618D01*
G54D11*
X-609063Y179618D02*
X-606396Y176063D01*
G54D11*
X-609063Y176063D02*
X-606396Y179618D01*
G54D11*
X-605363Y176063D02*
X-605363Y179618D01*
X-604029Y179618D01*
X-603496Y179396D01*
X-603229Y178952D01*
X-603229Y176729D01*
X-603496Y176285D01*
X-604029Y176063D01*
X-605363Y176063D01*
G54D11*
X-602263Y179618D02*
X-601729Y179396D01*
X-601463Y178952D01*
X-601463Y176729D01*
X-601729Y176285D01*
X-602263Y176063D01*
G54D11*
X-599363Y176063D02*
X-599363Y179618D01*
X-598029Y179618D01*
X-597496Y179396D01*
X-597229Y178952D01*
X-597229Y178507D01*
X-597496Y178063D01*
X-598029Y177840D01*
X-599363Y177840D01*
G54D11*
X-596263Y176063D02*
X-596263Y179618D01*
X-594929Y179618D01*
X-594396Y179396D01*
X-594129Y178952D01*
X-594129Y176729D01*
X-594396Y176285D01*
X-594929Y176063D01*
X-596263Y176063D01*
G54D11*
X-593163Y178285D02*
X-591829Y179618D01*
X-591829Y176063D01*
G54D11*
X-633413Y154218D02*
X-633946Y153996D01*
X-634213Y153552D01*
X-634213Y151329D01*
X-633946Y150885D01*
X-633413Y150663D01*
G54D11*
X-632413Y150663D02*
X-632413Y154218D01*
X-631079Y154218D01*
X-630546Y153996D01*
X-630279Y153552D01*
X-630279Y153107D01*
X-630546Y152663D01*
X-631079Y152440D01*
X-632413Y152440D01*
G54D11*
X-627179Y151329D02*
X-627446Y150885D01*
X-627979Y150663D01*
X-628513Y150663D01*
X-629046Y150885D01*
X-629313Y151329D01*
X-629313Y153552D01*
X-629046Y153996D01*
X-628513Y154218D01*
X-627979Y154218D01*
X-627446Y153996D01*
X-627179Y153552D01*
G54D11*
X-626213Y150663D02*
X-626213Y154218D01*
G54D11*
X-625213Y150663D02*
X-625213Y154218D01*
X-623079Y150663D01*
X-623079Y154218D01*
G54D11*
X-621046Y150663D02*
X-621046Y154218D01*
G54D11*
X-622113Y154218D02*
X-619979Y154218D01*
G54D11*
X-619013Y152885D02*
X-617679Y154218D01*
X-617679Y150663D01*
G54D11*
X-615379Y152440D02*
X-615913Y152440D01*
X-616446Y152663D01*
X-616713Y153107D01*
X-616713Y153552D01*
X-616446Y153996D01*
X-615913Y154218D01*
X-615379Y154218D01*
X-614846Y153996D01*
X-614579Y153552D01*
X-614579Y153107D01*
X-614846Y152663D01*
X-615379Y152440D01*
X-614846Y152218D01*
X-614579Y151774D01*
X-614579Y151329D01*
X-614846Y150885D01*
X-615379Y150663D01*
X-615913Y150663D01*
X-616446Y150885D01*
X-616713Y151329D01*
X-616713Y151774D01*
X-616446Y152218D01*
X-615913Y152440D01*
G54D11*
X-613613Y150663D02*
X-611479Y154218D01*
G54D11*
X-610513Y150663D02*
X-610513Y154218D01*
G54D11*
X-609513Y150663D02*
X-609513Y154218D01*
X-607379Y150663D01*
X-607379Y154218D01*
G54D11*
X-605346Y150663D02*
X-605346Y154218D01*
G54D11*
X-606413Y154218D02*
X-604279Y154218D01*
G54D11*
X-601179Y153552D02*
X-601179Y151329D01*
X-601446Y150885D01*
X-601979Y150663D01*
X-602513Y150663D01*
X-603046Y150885D01*
X-603313Y151329D01*
X-603313Y153552D01*
X-603046Y153996D01*
X-602513Y154218D01*
X-601979Y154218D01*
X-601446Y153996D01*
X-601179Y153552D01*
G54D11*
X-600213Y154218D02*
X-599679Y153996D01*
X-599413Y153552D01*
X-599413Y151329D01*
X-599679Y150885D01*
X-600213Y150663D01*
G54D11*
X-597313Y150663D02*
X-597313Y154218D01*
X-595979Y154218D01*
X-595446Y153996D01*
X-595179Y153552D01*
X-595179Y153107D01*
X-595446Y152663D01*
X-595979Y152440D01*
X-597313Y152440D01*
G54D11*
X-594213Y150663D02*
X-594213Y154218D01*
X-592879Y154218D01*
X-592346Y153996D01*
X-592079Y153552D01*
X-592079Y151329D01*
X-592346Y150885D01*
X-592879Y150663D01*
X-594213Y150663D01*
G54D11*
X-588979Y150663D02*
X-591113Y150663D01*
X-591113Y150885D01*
X-590846Y151329D01*
X-589246Y152663D01*
X-588979Y153107D01*
X-588979Y153552D01*
X-589246Y153996D01*
X-589779Y154218D01*
X-590313Y154218D01*
X-590846Y153996D01*
X-591113Y153552D01*
G54D11*
X-635163Y129818D02*
X-635696Y129596D01*
X-635963Y129152D01*
X-635963Y126929D01*
X-635696Y126485D01*
X-635163Y126263D01*
G54D11*
X-634163Y126263D02*
X-634163Y129818D01*
X-632829Y129818D01*
X-632296Y129596D01*
X-632029Y129152D01*
X-632029Y128707D01*
X-632296Y128263D01*
X-632829Y128040D01*
X-634163Y128040D01*
G54D11*
X-628929Y126929D02*
X-629196Y126485D01*
X-629729Y126263D01*
X-630263Y126263D01*
X-630796Y126485D01*
X-631063Y126929D01*
X-631063Y129152D01*
X-630796Y129596D01*
X-630263Y129818D01*
X-629729Y129818D01*
X-629196Y129596D01*
X-628929Y129152D01*
G54D11*
X-627963Y126263D02*
X-627963Y129818D01*
G54D11*
X-626963Y126263D02*
X-626963Y129818D01*
X-624829Y126263D01*
X-624829Y129818D01*
G54D11*
X-622796Y126263D02*
X-622796Y129818D01*
G54D11*
X-623863Y129818D02*
X-621729Y129818D01*
G54D11*
X-620763Y128485D02*
X-619429Y129818D01*
X-619429Y126263D01*
G54D11*
X-618463Y126929D02*
X-618196Y126485D01*
X-617663Y126263D01*
X-617129Y126263D01*
X-616596Y126485D01*
X-616329Y126929D01*
X-616329Y128040D01*
X-616329Y128263D01*
X-617129Y127818D01*
X-617663Y127818D01*
X-618196Y128040D01*
X-618463Y128485D01*
X-618463Y129152D01*
X-618196Y129596D01*
X-617663Y129818D01*
X-617129Y129818D01*
X-616596Y129596D01*
X-616329Y129152D01*
X-616329Y128040D01*
G54D11*
X-615363Y126263D02*
X-613229Y129818D01*
G54D11*
X-610129Y129152D02*
X-610129Y126929D01*
X-610396Y126485D01*
X-610929Y126263D01*
X-611463Y126263D01*
X-611996Y126485D01*
X-612263Y126929D01*
X-612263Y129152D01*
X-611996Y129596D01*
X-611463Y129818D01*
X-610929Y129818D01*
X-610396Y129596D01*
X-610129Y129152D01*
G54D11*
X-607029Y126929D02*
X-607296Y126485D01*
X-607829Y126263D01*
X-608363Y126263D01*
X-608896Y126485D01*
X-609163Y126929D01*
X-609163Y129152D01*
X-608896Y129596D01*
X-608363Y129818D01*
X-607829Y129818D01*
X-607296Y129596D01*
X-607029Y129152D01*
G54D11*
X-603929Y126263D02*
X-606063Y126263D01*
X-606063Y126485D01*
X-605796Y126929D01*
X-604196Y128263D01*
X-603929Y128707D01*
X-603929Y129152D01*
X-604196Y129596D01*
X-604729Y129818D01*
X-605263Y129818D01*
X-605796Y129596D01*
X-606063Y129152D01*
G54D11*
X-602963Y126263D02*
X-602963Y129818D01*
X-601629Y129818D01*
X-601096Y129596D01*
X-600829Y129152D01*
X-600829Y128707D01*
X-601096Y128263D01*
X-601629Y128040D01*
X-601096Y127818D01*
X-600829Y127374D01*
X-600829Y126929D01*
X-601096Y126485D01*
X-601629Y126263D01*
X-602963Y126263D01*
G54D11*
X-602963Y128040D02*
X-601629Y128040D01*
G54D11*
X-599863Y126263D02*
X-597729Y129818D01*
G54D11*
X-596763Y126263D02*
X-596763Y129818D01*
G54D11*
X-595763Y126263D02*
X-595763Y129818D01*
X-593629Y126263D01*
X-593629Y129818D01*
G54D11*
X-591596Y126263D02*
X-591596Y129818D01*
G54D11*
X-592663Y129818D02*
X-590529Y129818D01*
G54D11*
X-589563Y128485D02*
X-588229Y129818D01*
X-588229Y126263D01*
G54D11*
X-587263Y129818D02*
X-586729Y129596D01*
X-586463Y129152D01*
X-586463Y126929D01*
X-586729Y126485D01*
X-587263Y126263D01*
G54D11*
X-584363Y126263D02*
X-584363Y129818D01*
X-583029Y129818D01*
X-582496Y129596D01*
X-582229Y129152D01*
X-582229Y128707D01*
X-582496Y128263D01*
X-583029Y128040D01*
X-584363Y128040D01*
G54D11*
X-581263Y126263D02*
X-581263Y129818D01*
X-579929Y129818D01*
X-579396Y129596D01*
X-579129Y129152D01*
X-579129Y126929D01*
X-579396Y126485D01*
X-579929Y126263D01*
X-581263Y126263D01*
G54D11*
X-578163Y129152D02*
X-577896Y129596D01*
X-577363Y129818D01*
X-576829Y129818D01*
X-576296Y129596D01*
X-576029Y129152D01*
X-576029Y128707D01*
X-576296Y128263D01*
X-576829Y128040D01*
X-576296Y127818D01*
X-576029Y127374D01*
X-576029Y126929D01*
X-576296Y126485D01*
X-576829Y126263D01*
X-577363Y126263D01*
X-577896Y126485D01*
X-578163Y126929D01*
G54D11*
X-633213Y104418D02*
X-633746Y104196D01*
X-634013Y103752D01*
X-634013Y101529D01*
X-633746Y101085D01*
X-633213Y100863D01*
G54D11*
X-632213Y100863D02*
X-632213Y104418D01*
X-630879Y104418D01*
X-630346Y104196D01*
X-630079Y103752D01*
X-630079Y103307D01*
X-630346Y102863D01*
X-630879Y102640D01*
X-632213Y102640D01*
G54D11*
X-626979Y101529D02*
X-627246Y101085D01*
X-627779Y100863D01*
X-628313Y100863D01*
X-628846Y101085D01*
X-629113Y101529D01*
X-629113Y103752D01*
X-628846Y104196D01*
X-628313Y104418D01*
X-627779Y104418D01*
X-627246Y104196D01*
X-626979Y103752D01*
G54D11*
X-626013Y100863D02*
X-626013Y104418D01*
G54D11*
X-625013Y100863D02*
X-625013Y104418D01*
X-622879Y100863D01*
X-622879Y104418D01*
G54D11*
X-620846Y100863D02*
X-620846Y104418D01*
G54D11*
X-621913Y104418D02*
X-619779Y104418D01*
G54D11*
X-616679Y100863D02*
X-618813Y100863D01*
X-618813Y101085D01*
X-618546Y101529D01*
X-616946Y102863D01*
X-616679Y103307D01*
X-616679Y103752D01*
X-616946Y104196D01*
X-617479Y104418D01*
X-618013Y104418D01*
X-618546Y104196D01*
X-618813Y103752D01*
G54D11*
X-613579Y103752D02*
X-613579Y101529D01*
X-613846Y101085D01*
X-614379Y100863D01*
X-614913Y100863D01*
X-615446Y101085D01*
X-615713Y101529D01*
X-615713Y103752D01*
X-615446Y104196D01*
X-614913Y104418D01*
X-614379Y104418D01*
X-613846Y104196D01*
X-613579Y103752D01*
G54D11*
X-612613Y100863D02*
X-610479Y104418D01*
G54D11*
X-609513Y104418D02*
X-606846Y100863D01*
G54D11*
X-609513Y100863D02*
X-606846Y104418D01*
G54D11*
X-603679Y101529D02*
X-603946Y101085D01*
X-604479Y100863D01*
X-605013Y100863D01*
X-605546Y101085D01*
X-605813Y101529D01*
X-605813Y103752D01*
X-605546Y104196D01*
X-605013Y104418D01*
X-604479Y104418D01*
X-603946Y104196D01*
X-603679Y103752D01*
G54D11*
X-602713Y100863D02*
X-602713Y104418D01*
G54D11*
X-602713Y101974D02*
X-600579Y104418D01*
G54D11*
X-601913Y102640D02*
X-600579Y100863D01*
G54D11*
X-599613Y100863D02*
X-597479Y104418D01*
G54D11*
X-595446Y100863D02*
X-595446Y104418D01*
G54D11*
X-596513Y104418D02*
X-594379Y104418D01*
G54D11*
X-591279Y103752D02*
X-591279Y101529D01*
X-591546Y101085D01*
X-592079Y100863D01*
X-592613Y100863D01*
X-593146Y101085D01*
X-593413Y101529D01*
X-593413Y103752D01*
X-593146Y104196D01*
X-592613Y104418D01*
X-592079Y104418D01*
X-591546Y104196D01*
X-591279Y103752D01*
G54D11*
X-590313Y104418D02*
X-589779Y104196D01*
X-589513Y103752D01*
X-589513Y101529D01*
X-589779Y101085D01*
X-590313Y100863D01*
G54D11*
X-587413Y100863D02*
X-587413Y104418D01*
X-586079Y104418D01*
X-585546Y104196D01*
X-585279Y103752D01*
X-585279Y103307D01*
X-585546Y102863D01*
X-586079Y102640D01*
X-587413Y102640D01*
G54D11*
X-584313Y100863D02*
X-584313Y104418D01*
X-582979Y104418D01*
X-582446Y104196D01*
X-582179Y103752D01*
X-582179Y101529D01*
X-582446Y101085D01*
X-582979Y100863D01*
X-584313Y100863D01*
G54D11*
X-579613Y100863D02*
X-579613Y104418D01*
X-581213Y102196D01*
X-581213Y101752D01*
X-579079Y101752D01*
G54D11*
X-630163Y71918D02*
X-628829Y68363D01*
X-627496Y71918D01*
G54D11*
X-624329Y69029D02*
X-624596Y68585D01*
X-625129Y68363D01*
X-625663Y68363D01*
X-626196Y68585D01*
X-626463Y69029D01*
X-626463Y71252D01*
X-626196Y71696D01*
X-625663Y71918D01*
X-625129Y71918D01*
X-624596Y71696D01*
X-624329Y71252D01*
G54D11*
X-621229Y69029D02*
X-621496Y68585D01*
X-622029Y68363D01*
X-622563Y68363D01*
X-623096Y68585D01*
X-623363Y69029D01*
X-623363Y71252D01*
X-623096Y71696D01*
X-622563Y71918D01*
X-622029Y71918D01*
X-621496Y71696D01*
X-621229Y71252D01*
G54D11*
X-628196Y46340D02*
X-627129Y46340D01*
X-627129Y45229D01*
X-627396Y44785D01*
X-627929Y44563D01*
X-628463Y44563D01*
X-628996Y44785D01*
X-629263Y45229D01*
X-629263Y47452D01*
X-628996Y47896D01*
X-628463Y48118D01*
X-627929Y48118D01*
X-627396Y47896D01*
X-627129Y47452D01*
G54D11*
X-626163Y44563D02*
X-626163Y48118D01*
X-624029Y44563D01*
X-624029Y48118D01*
G54D11*
X-623063Y44563D02*
X-623063Y48118D01*
X-621729Y48118D01*
X-621196Y47896D01*
X-620929Y47452D01*
X-620929Y45229D01*
X-621196Y44785D01*
X-621729Y44563D01*
X-623063Y44563D01*
G54D11*
X-636613Y29218D02*
X-637146Y28996D01*
X-637413Y28552D01*
X-637413Y26329D01*
X-637146Y25885D01*
X-636613Y25663D01*
G54D11*
X-635613Y25663D02*
X-635613Y29218D01*
X-634279Y29218D01*
X-633746Y28996D01*
X-633479Y28552D01*
X-633479Y28107D01*
X-633746Y27663D01*
X-634279Y27440D01*
X-635613Y27440D01*
G54D11*
X-630379Y26329D02*
X-630646Y25885D01*
X-631179Y25663D01*
X-631713Y25663D01*
X-632246Y25885D01*
X-632513Y26329D01*
X-632513Y28552D01*
X-632246Y28996D01*
X-631713Y29218D01*
X-631179Y29218D01*
X-630646Y28996D01*
X-630379Y28552D01*
G54D11*
X-629413Y25663D02*
X-629413Y29218D01*
G54D11*
X-628413Y25663D02*
X-628413Y29218D01*
X-626279Y25663D01*
X-626279Y29218D01*
G54D11*
X-624246Y25663D02*
X-624246Y29218D01*
G54D11*
X-625313Y29218D02*
X-623179Y29218D01*
G54D11*
X-620079Y28552D02*
X-620346Y28996D01*
X-620879Y29218D01*
X-621413Y29218D01*
X-621946Y28996D01*
X-622213Y28552D01*
X-622213Y27440D01*
X-622213Y27218D01*
X-621413Y27663D01*
X-620879Y27663D01*
X-620346Y27440D01*
X-620079Y26996D01*
X-620079Y26329D01*
X-620346Y25885D01*
X-620879Y25663D01*
X-621413Y25663D01*
X-621946Y25885D01*
X-622213Y26329D01*
X-622213Y27440D01*
G54D11*
X-619113Y25663D02*
X-616979Y29218D01*
G54D11*
X-616013Y29218D02*
X-613346Y25663D01*
G54D11*
X-616013Y25663D02*
X-613346Y29218D01*
G54D11*
X-611246Y25663D02*
X-611246Y29218D01*
G54D11*
X-612313Y29218D02*
X-610179Y29218D01*
G54D11*
X-609213Y25663D02*
X-607879Y29218D01*
X-606546Y25663D01*
G54D11*
X-608679Y26996D02*
X-607079Y26996D01*
G54D11*
X-605513Y29218D02*
X-605513Y25663D01*
X-603646Y25663D01*
G54D11*
X-602613Y27885D02*
X-601279Y29218D01*
X-601279Y25663D01*
G54D11*
X-600313Y25663D02*
X-598179Y29218D01*
G54D11*
X-596146Y25663D02*
X-596146Y29218D01*
G54D11*
X-597213Y29218D02*
X-595079Y29218D01*
G54D11*
X-591979Y28552D02*
X-591979Y26329D01*
X-592246Y25885D01*
X-592779Y25663D01*
X-593313Y25663D01*
X-593846Y25885D01*
X-594113Y26329D01*
X-594113Y28552D01*
X-593846Y28996D01*
X-593313Y29218D01*
X-592779Y29218D01*
X-592246Y28996D01*
X-591979Y28552D01*
G54D11*
X-591013Y26329D02*
X-590746Y25885D01*
X-590213Y25663D01*
X-589679Y25663D01*
X-589146Y25885D01*
X-588879Y26329D01*
X-588879Y26774D01*
X-589146Y27218D01*
X-589679Y27440D01*
X-590213Y27440D01*
X-590746Y27663D01*
X-591013Y28107D01*
X-591013Y28552D01*
X-590746Y28996D01*
X-590213Y29218D01*
X-589679Y29218D01*
X-589146Y28996D01*
X-588879Y28552D01*
G54D11*
X-585779Y26329D02*
X-586046Y25885D01*
X-586579Y25663D01*
X-587113Y25663D01*
X-587646Y25885D01*
X-587913Y26329D01*
X-587913Y28552D01*
X-587646Y28996D01*
X-587113Y29218D01*
X-586579Y29218D01*
X-586046Y28996D01*
X-585779Y28552D01*
G54D11*
X-584813Y27885D02*
X-583479Y29218D01*
X-583479Y25663D01*
G54D11*
X-582513Y29218D02*
X-581979Y28996D01*
X-581713Y28552D01*
X-581713Y26329D01*
X-581979Y25885D01*
X-582513Y25663D01*
G54D11*
X-579613Y25663D02*
X-579613Y29218D01*
X-578279Y29218D01*
X-577746Y28996D01*
X-577479Y28552D01*
X-577479Y28107D01*
X-577746Y27663D01*
X-578279Y27440D01*
X-579613Y27440D01*
G54D11*
X-576513Y25663D02*
X-576513Y29218D01*
X-575179Y29218D01*
X-574646Y28996D01*
X-574379Y28552D01*
X-574379Y28107D01*
X-574646Y27663D01*
X-575179Y27440D01*
X-574646Y27218D01*
X-574379Y26774D01*
X-574379Y26329D01*
X-574646Y25885D01*
X-575179Y25663D01*
X-576513Y25663D01*
G54D11*
X-576513Y27440D02*
X-575179Y27440D01*
G54D11*
X-571279Y28552D02*
X-571546Y28996D01*
X-572079Y29218D01*
X-572613Y29218D01*
X-573146Y28996D01*
X-573413Y28552D01*
X-573413Y27440D01*
X-573413Y27218D01*
X-572613Y27663D01*
X-572079Y27663D01*
X-571546Y27440D01*
X-571279Y26996D01*
X-571279Y26329D01*
X-571546Y25885D01*
X-572079Y25663D01*
X-572613Y25663D01*
X-573146Y25885D01*
X-573413Y26329D01*
X-573413Y27440D01*
G54D11*
X-637063Y4318D02*
X-637596Y4096D01*
X-637863Y3652D01*
X-637863Y1429D01*
X-637596Y985D01*
X-637063Y763D01*
G54D11*
X-636063Y763D02*
X-636063Y4318D01*
X-634729Y4318D01*
X-634196Y4096D01*
X-633929Y3652D01*
X-633929Y3207D01*
X-634196Y2763D01*
X-634729Y2540D01*
X-636063Y2540D01*
G54D11*
X-630829Y1429D02*
X-631096Y985D01*
X-631629Y763D01*
X-632163Y763D01*
X-632696Y985D01*
X-632963Y1429D01*
X-632963Y3652D01*
X-632696Y4096D01*
X-632163Y4318D01*
X-631629Y4318D01*
X-631096Y4096D01*
X-630829Y3652D01*
G54D11*
X-629863Y763D02*
X-629863Y4318D01*
G54D11*
X-628863Y763D02*
X-628863Y4318D01*
X-626729Y763D01*
X-626729Y4318D01*
G54D11*
X-624696Y763D02*
X-624696Y4318D01*
G54D11*
X-625763Y4318D02*
X-623629Y4318D01*
G54D11*
X-622663Y4318D02*
X-620529Y4318D01*
X-620796Y3874D01*
X-621329Y3207D01*
X-621863Y2318D01*
X-622129Y1652D01*
X-622129Y763D01*
G54D11*
X-619563Y763D02*
X-617429Y4318D01*
G54D11*
X-616463Y4318D02*
X-613796Y763D01*
G54D11*
X-616463Y763D02*
X-613796Y4318D01*
G54D11*
X-611696Y763D02*
X-611696Y4318D01*
G54D11*
X-612763Y4318D02*
X-610629Y4318D01*
G54D11*
X-609663Y763D02*
X-608329Y4318D01*
X-606996Y763D01*
G54D11*
X-609129Y2096D02*
X-607529Y2096D01*
G54D11*
X-605963Y4318D02*
X-605963Y763D01*
X-604096Y763D01*
G54D11*
X-600929Y763D02*
X-603063Y763D01*
X-603063Y985D01*
X-602796Y1429D01*
X-601196Y2763D01*
X-600929Y3207D01*
X-600929Y3652D01*
X-601196Y4096D01*
X-601729Y4318D01*
X-602263Y4318D01*
X-602796Y4096D01*
X-603063Y3652D01*
G54D11*
X-599963Y763D02*
X-597829Y4318D01*
G54D11*
X-595796Y763D02*
X-595796Y4318D01*
G54D11*
X-596863Y4318D02*
X-594729Y4318D01*
G54D11*
X-591629Y3652D02*
X-591629Y1429D01*
X-591896Y985D01*
X-592429Y763D01*
X-592963Y763D01*
X-593496Y985D01*
X-593763Y1429D01*
X-593763Y3652D01*
X-593496Y4096D01*
X-592963Y4318D01*
X-592429Y4318D01*
X-591896Y4096D01*
X-591629Y3652D01*
G54D11*
X-590663Y1429D02*
X-590396Y985D01*
X-589863Y763D01*
X-589329Y763D01*
X-588796Y985D01*
X-588529Y1429D01*
X-588529Y1874D01*
X-588796Y2318D01*
X-589329Y2540D01*
X-589863Y2540D01*
X-590396Y2763D01*
X-590663Y3207D01*
X-590663Y3652D01*
X-590396Y4096D01*
X-589863Y4318D01*
X-589329Y4318D01*
X-588796Y4096D01*
X-588529Y3652D01*
G54D11*
X-585429Y1429D02*
X-585696Y985D01*
X-586229Y763D01*
X-586763Y763D01*
X-587296Y985D01*
X-587563Y1429D01*
X-587563Y3652D01*
X-587296Y4096D01*
X-586763Y4318D01*
X-586229Y4318D01*
X-585696Y4096D01*
X-585429Y3652D01*
G54D11*
X-582329Y763D02*
X-584463Y763D01*
X-584463Y985D01*
X-584196Y1429D01*
X-582596Y2763D01*
X-582329Y3207D01*
X-582329Y3652D01*
X-582596Y4096D01*
X-583129Y4318D01*
X-583663Y4318D01*
X-584196Y4096D01*
X-584463Y3652D01*
G54D11*
X-581363Y4318D02*
X-580829Y4096D01*
X-580563Y3652D01*
X-580563Y1429D01*
X-580829Y985D01*
X-581363Y763D01*
G54D11*
X-578463Y763D02*
X-578463Y4318D01*
X-577129Y4318D01*
X-576596Y4096D01*
X-576329Y3652D01*
X-576329Y3207D01*
X-576596Y2763D01*
X-577129Y2540D01*
X-578463Y2540D01*
G54D11*
X-575363Y763D02*
X-575363Y4318D01*
X-574029Y4318D01*
X-573496Y4096D01*
X-573229Y3652D01*
X-573229Y3207D01*
X-573496Y2763D01*
X-574029Y2540D01*
X-573496Y2318D01*
X-573229Y1874D01*
X-573229Y1429D01*
X-573496Y985D01*
X-574029Y763D01*
X-575363Y763D01*
G54D11*
X-575363Y2540D02*
X-574029Y2540D01*
G54D11*
X-572263Y4318D02*
X-570129Y4318D01*
X-570396Y3874D01*
X-570929Y3207D01*
X-571463Y2318D01*
X-571729Y1652D01*
X-571729Y763D01*
G54D11*
X-637663Y-20582D02*
X-638196Y-20804D01*
X-638463Y-21248D01*
X-638463Y-23470D01*
X-638196Y-23915D01*
X-637663Y-24137D01*
G54D11*
X-636663Y-24137D02*
X-636663Y-20582D01*
X-635329Y-20582D01*
X-634796Y-20804D01*
X-634529Y-21248D01*
X-634529Y-21693D01*
X-634796Y-22137D01*
X-635329Y-22360D01*
X-636663Y-22360D01*
G54D11*
X-631429Y-23470D02*
X-631696Y-23915D01*
X-632229Y-24137D01*
X-632763Y-24137D01*
X-633296Y-23915D01*
X-633563Y-23470D01*
X-633563Y-21248D01*
X-633296Y-20804D01*
X-632763Y-20582D01*
X-632229Y-20582D01*
X-631696Y-20804D01*
X-631429Y-21248D01*
G54D11*
X-630463Y-24137D02*
X-630463Y-20582D01*
G54D11*
X-629463Y-24137D02*
X-629463Y-20582D01*
X-627329Y-24137D01*
X-627329Y-20582D01*
G54D11*
X-625296Y-24137D02*
X-625296Y-20582D01*
G54D11*
X-626363Y-20582D02*
X-624229Y-20582D01*
G54D11*
X-621129Y-24137D02*
X-623263Y-24137D01*
X-623263Y-23915D01*
X-622996Y-23470D01*
X-621396Y-22137D01*
X-621129Y-21693D01*
X-621129Y-21248D01*
X-621396Y-20804D01*
X-621929Y-20582D01*
X-622463Y-20582D01*
X-622996Y-20804D01*
X-623263Y-21248D01*
G54D11*
X-620163Y-21915D02*
X-618829Y-20582D01*
X-618829Y-24137D01*
G54D11*
X-617863Y-24137D02*
X-615729Y-20582D01*
G54D11*
X-612629Y-21248D02*
X-612629Y-23470D01*
X-612896Y-23915D01*
X-613429Y-24137D01*
X-613963Y-24137D01*
X-614496Y-23915D01*
X-614763Y-23470D01*
X-614763Y-21248D01*
X-614496Y-20804D01*
X-613963Y-20582D01*
X-613429Y-20582D01*
X-612896Y-20804D01*
X-612629Y-21248D01*
G54D11*
X-609529Y-23470D02*
X-609796Y-23915D01*
X-610329Y-24137D01*
X-610863Y-24137D01*
X-611396Y-23915D01*
X-611663Y-23470D01*
X-611663Y-21248D01*
X-611396Y-20804D01*
X-610863Y-20582D01*
X-610329Y-20582D01*
X-609796Y-20804D01*
X-609529Y-21248D01*
G54D11*
X-606429Y-21248D02*
X-606429Y-23470D01*
X-606696Y-23915D01*
X-607229Y-24137D01*
X-607763Y-24137D01*
X-608296Y-23915D01*
X-608563Y-23470D01*
X-608563Y-21248D01*
X-608296Y-20804D01*
X-607763Y-20582D01*
X-607229Y-20582D01*
X-606696Y-20804D01*
X-606429Y-21248D01*
G54D11*
X-605463Y-24137D02*
X-605463Y-20582D01*
X-604129Y-20582D01*
X-603596Y-20804D01*
X-603329Y-21248D01*
X-603329Y-21693D01*
X-603596Y-22137D01*
X-604129Y-22360D01*
X-603596Y-22582D01*
X-603329Y-23026D01*
X-603329Y-23470D01*
X-603596Y-23915D01*
X-604129Y-24137D01*
X-605463Y-24137D01*
G54D11*
X-605463Y-22360D02*
X-604129Y-22360D01*
G54D11*
X-602363Y-24137D02*
X-600229Y-20582D01*
G54D11*
X-598196Y-24137D02*
X-598196Y-20582D01*
G54D11*
X-599263Y-20582D02*
X-597129Y-20582D01*
G54D11*
X-596163Y-21915D02*
X-594829Y-20582D01*
X-594829Y-24137D01*
G54D11*
X-593863Y-20582D02*
X-593329Y-20804D01*
X-593063Y-21248D01*
X-593063Y-23470D01*
X-593329Y-23915D01*
X-593863Y-24137D01*
G54D11*
X-590963Y-24137D02*
X-590963Y-20582D01*
X-589629Y-20582D01*
X-589096Y-20804D01*
X-588829Y-21248D01*
X-588829Y-21693D01*
X-589096Y-22137D01*
X-589629Y-22360D01*
X-590963Y-22360D01*
G54D11*
X-587863Y-24137D02*
X-587863Y-20582D01*
X-586529Y-20582D01*
X-585996Y-20804D01*
X-585729Y-21248D01*
X-585729Y-23470D01*
X-585996Y-23915D01*
X-586529Y-24137D01*
X-587863Y-24137D01*
G54D11*
X-582629Y-20582D02*
X-584763Y-20582D01*
X-584763Y-22137D01*
X-584496Y-22137D01*
X-583963Y-21915D01*
X-583429Y-21915D01*
X-582896Y-22137D01*
X-582629Y-22582D01*
X-582629Y-23470D01*
X-582896Y-23915D01*
X-583429Y-24137D01*
X-583963Y-24137D01*
X-584496Y-23915D01*
X-584763Y-23470D01*
G54D11*
X-635613Y-48482D02*
X-636146Y-48704D01*
X-636413Y-49148D01*
X-636413Y-51370D01*
X-636146Y-51815D01*
X-635613Y-52037D01*
G54D11*
X-634613Y-52037D02*
X-634613Y-48482D01*
X-633279Y-48482D01*
X-632746Y-48704D01*
X-632479Y-49148D01*
X-632479Y-49593D01*
X-632746Y-50037D01*
X-633279Y-50260D01*
X-634613Y-50260D01*
G54D11*
X-629379Y-51370D02*
X-629646Y-51815D01*
X-630179Y-52037D01*
X-630713Y-52037D01*
X-631246Y-51815D01*
X-631513Y-51370D01*
X-631513Y-49148D01*
X-631246Y-48704D01*
X-630713Y-48482D01*
X-630179Y-48482D01*
X-629646Y-48704D01*
X-629379Y-49148D01*
G54D11*
X-628413Y-52037D02*
X-628413Y-48482D01*
G54D11*
X-627413Y-52037D02*
X-627413Y-48482D01*
X-625279Y-52037D01*
X-625279Y-48482D01*
G54D11*
X-623246Y-52037D02*
X-623246Y-48482D01*
G54D11*
X-624313Y-48482D02*
X-622179Y-48482D01*
G54D11*
X-619079Y-52037D02*
X-621213Y-52037D01*
X-621213Y-51815D01*
X-620946Y-51370D01*
X-619346Y-50037D01*
X-619079Y-49593D01*
X-619079Y-49148D01*
X-619346Y-48704D01*
X-619879Y-48482D01*
X-620413Y-48482D01*
X-620946Y-48704D01*
X-621213Y-49148D01*
G54D11*
X-615979Y-52037D02*
X-618113Y-52037D01*
X-618113Y-51815D01*
X-617846Y-51370D01*
X-616246Y-50037D01*
X-615979Y-49593D01*
X-615979Y-49148D01*
X-616246Y-48704D01*
X-616779Y-48482D01*
X-617313Y-48482D01*
X-617846Y-48704D01*
X-618113Y-49148D01*
G54D11*
X-615013Y-52037D02*
X-612879Y-48482D01*
G54D11*
X-609779Y-49148D02*
X-609779Y-51370D01*
X-610046Y-51815D01*
X-610579Y-52037D01*
X-611113Y-52037D01*
X-611646Y-51815D01*
X-611913Y-51370D01*
X-611913Y-49148D01*
X-611646Y-48704D01*
X-611113Y-48482D01*
X-610579Y-48482D01*
X-610046Y-48704D01*
X-609779Y-49148D01*
G54D11*
X-606679Y-51370D02*
X-606946Y-51815D01*
X-607479Y-52037D01*
X-608013Y-52037D01*
X-608546Y-51815D01*
X-608813Y-51370D01*
X-608813Y-49148D01*
X-608546Y-48704D01*
X-608013Y-48482D01*
X-607479Y-48482D01*
X-606946Y-48704D01*
X-606679Y-49148D01*
G54D11*
X-603579Y-49148D02*
X-603579Y-51370D01*
X-603846Y-51815D01*
X-604379Y-52037D01*
X-604913Y-52037D01*
X-605446Y-51815D01*
X-605713Y-51370D01*
X-605713Y-49148D01*
X-605446Y-48704D01*
X-604913Y-48482D01*
X-604379Y-48482D01*
X-603846Y-48704D01*
X-603579Y-49148D01*
G54D11*
X-602613Y-52037D02*
X-601279Y-48482D01*
X-599946Y-52037D01*
G54D11*
X-602079Y-50704D02*
X-600479Y-50704D01*
G54D11*
X-598913Y-52037D02*
X-596779Y-48482D01*
G54D11*
X-595813Y-52037D02*
X-594479Y-48482D01*
X-593146Y-52037D01*
G54D11*
X-595279Y-50704D02*
X-593679Y-50704D01*
G54D11*
X-592113Y-52037D02*
X-592113Y-48482D01*
G54D11*
X-591113Y-52037D02*
X-591113Y-48482D01*
X-588979Y-52037D01*
X-588979Y-48482D01*
G54D11*
X-585879Y-49148D02*
X-585879Y-51370D01*
X-586146Y-51815D01*
X-586679Y-52037D01*
X-587213Y-52037D01*
X-587746Y-51815D01*
X-588013Y-51370D01*
X-588013Y-49148D01*
X-587746Y-48704D01*
X-587213Y-48482D01*
X-586679Y-48482D01*
X-586146Y-48704D01*
X-585879Y-49148D01*
G54D11*
X-584913Y-48482D02*
X-584379Y-48704D01*
X-584113Y-49148D01*
X-584113Y-51370D01*
X-584379Y-51815D01*
X-584913Y-52037D01*
G54D11*
X-582013Y-52037D02*
X-582013Y-48482D01*
X-580679Y-48482D01*
X-580146Y-48704D01*
X-579879Y-49148D01*
X-579879Y-49593D01*
X-580146Y-50037D01*
X-580679Y-50260D01*
X-582013Y-50260D01*
G54D11*
X-578913Y-52037D02*
X-578913Y-48482D01*
X-577579Y-48482D01*
X-577046Y-48704D01*
X-576779Y-49148D01*
X-576779Y-51370D01*
X-577046Y-51815D01*
X-577579Y-52037D01*
X-578913Y-52037D01*
G54D11*
X-573679Y-49148D02*
X-573946Y-48704D01*
X-574479Y-48482D01*
X-575013Y-48482D01*
X-575546Y-48704D01*
X-575813Y-49148D01*
X-575813Y-50260D01*
X-575813Y-50482D01*
X-575013Y-50037D01*
X-574479Y-50037D01*
X-573946Y-50260D01*
X-573679Y-50704D01*
X-573679Y-51370D01*
X-573946Y-51815D01*
X-574479Y-52037D01*
X-575013Y-52037D01*
X-575546Y-51815D01*
X-575813Y-51370D01*
X-575813Y-50260D01*
G54D12*
X-628163Y-78437D02*
X-628163Y-74882D01*
X-626829Y-74882D01*
X-626296Y-75104D01*
X-626029Y-75548D01*
X-626029Y-75993D01*
X-626296Y-76437D01*
X-626829Y-76660D01*
X-628163Y-76660D01*
G54D12*
X-625052Y-78437D02*
X-625052Y-74882D01*
X-623718Y-74882D01*
X-623185Y-75104D01*
X-622918Y-75548D01*
X-622918Y-77771D01*
X-623185Y-78215D01*
X-623718Y-78437D01*
X-625052Y-78437D01*
G54D12*
X-621941Y-74882D02*
X-619807Y-74882D01*
X-620074Y-75326D01*
X-620607Y-75993D01*
X-621141Y-76882D01*
X-621407Y-77548D01*
X-621407Y-78437D01*
G54D11*
X-636463Y-98782D02*
X-636996Y-99004D01*
X-637263Y-99448D01*
X-637263Y-101670D01*
X-636996Y-102115D01*
X-636463Y-102337D01*
G54D11*
X-635463Y-102337D02*
X-635463Y-98782D01*
X-634129Y-98782D01*
X-633596Y-99004D01*
X-633329Y-99448D01*
X-633329Y-99893D01*
X-633596Y-100337D01*
X-634129Y-100560D01*
X-635463Y-100560D01*
G54D11*
X-630229Y-101670D02*
X-630496Y-102115D01*
X-631029Y-102337D01*
X-631563Y-102337D01*
X-632096Y-102115D01*
X-632363Y-101670D01*
X-632363Y-99448D01*
X-632096Y-99004D01*
X-631563Y-98782D01*
X-631029Y-98782D01*
X-630496Y-99004D01*
X-630229Y-99448D01*
G54D11*
X-629263Y-102337D02*
X-629263Y-98782D01*
G54D11*
X-628263Y-102337D02*
X-628263Y-98782D01*
X-626129Y-102337D01*
X-626129Y-98782D01*
G54D11*
X-624096Y-102337D02*
X-624096Y-98782D01*
G54D11*
X-625163Y-98782D02*
X-623029Y-98782D01*
G54D11*
X-619929Y-99448D02*
X-619929Y-101670D01*
X-620196Y-102115D01*
X-620729Y-102337D01*
X-621263Y-102337D01*
X-621796Y-102115D01*
X-622063Y-101670D01*
X-622063Y-99448D01*
X-621796Y-99004D01*
X-621263Y-98782D01*
X-620729Y-98782D01*
X-620196Y-99004D01*
X-619929Y-99448D01*
G54D11*
X-618963Y-102337D02*
X-616829Y-98782D01*
G54D11*
X-613729Y-101670D02*
X-613996Y-102115D01*
X-614529Y-102337D01*
X-615063Y-102337D01*
X-615596Y-102115D01*
X-615863Y-101670D01*
X-615863Y-99448D01*
X-615596Y-99004D01*
X-615063Y-98782D01*
X-614529Y-98782D01*
X-613996Y-99004D01*
X-613729Y-99448D01*
G54D11*
X-612763Y-98782D02*
X-612763Y-102337D01*
X-610896Y-102337D01*
G54D11*
X-609863Y-102337D02*
X-609863Y-98782D01*
G54D11*
X-609863Y-101226D02*
X-607729Y-98782D01*
G54D11*
X-609063Y-100560D02*
X-607729Y-102337D01*
G54D11*
X-604629Y-99448D02*
X-604629Y-101670D01*
X-604896Y-102115D01*
X-605429Y-102337D01*
X-605963Y-102337D01*
X-606496Y-102115D01*
X-606763Y-101670D01*
X-606763Y-99448D01*
X-606496Y-99004D01*
X-605963Y-98782D01*
X-605429Y-98782D01*
X-604896Y-99004D01*
X-604629Y-99448D01*
G54D11*
X-603663Y-102337D02*
X-601529Y-98782D01*
G54D11*
X-600563Y-102337D02*
X-600563Y-98782D01*
G54D11*
X-597429Y-101670D02*
X-597696Y-102115D01*
X-598229Y-102337D01*
X-598763Y-102337D01*
X-599296Y-102115D01*
X-599563Y-101670D01*
X-599563Y-99448D01*
X-599296Y-99004D01*
X-598763Y-98782D01*
X-598229Y-98782D01*
X-597696Y-99004D01*
X-597429Y-99448D01*
G54D11*
X-596463Y-102337D02*
X-596463Y-98782D01*
X-595129Y-98782D01*
X-594596Y-99004D01*
X-594329Y-99448D01*
X-594329Y-99893D01*
X-594596Y-100337D01*
X-595129Y-100560D01*
X-596463Y-100560D01*
G54D11*
X-593363Y-100115D02*
X-592029Y-98782D01*
X-592029Y-102337D01*
G54D11*
X-591063Y-98782D02*
X-590529Y-99004D01*
X-590263Y-99448D01*
X-590263Y-101670D01*
X-590529Y-102115D01*
X-591063Y-102337D01*
G54D11*
X-588163Y-102337D02*
X-588163Y-98782D01*
X-586829Y-98782D01*
X-586296Y-99004D01*
X-586029Y-99448D01*
X-586029Y-99893D01*
X-586296Y-100337D01*
X-586829Y-100560D01*
X-588163Y-100560D01*
G54D11*
X-585063Y-102337D02*
X-585063Y-98782D01*
X-583729Y-98782D01*
X-583196Y-99004D01*
X-582929Y-99448D01*
X-582929Y-99893D01*
X-583196Y-100337D01*
X-583729Y-100560D01*
X-583196Y-100782D01*
X-582929Y-101226D01*
X-582929Y-101670D01*
X-583196Y-102115D01*
X-583729Y-102337D01*
X-585063Y-102337D01*
G54D11*
X-585063Y-100560D02*
X-583729Y-100560D01*
G54D11*
X-579829Y-99448D02*
X-579829Y-101670D01*
X-580096Y-102115D01*
X-580629Y-102337D01*
X-581163Y-102337D01*
X-581696Y-102115D01*
X-581963Y-101670D01*
X-581963Y-99448D01*
X-581696Y-99004D01*
X-581163Y-98782D01*
X-580629Y-98782D01*
X-580096Y-99004D01*
X-579829Y-99448D01*
G54D11*
X-621213Y216363D02*
X-621213Y219918D01*
X-619879Y219918D01*
X-619346Y219696D01*
X-619079Y219252D01*
X-619079Y218807D01*
X-619346Y218363D01*
X-619879Y218140D01*
X-621213Y218140D01*
G54D11*
X-615979Y217029D02*
X-616246Y216585D01*
X-616779Y216363D01*
X-617313Y216363D01*
X-617846Y216585D01*
X-618113Y217029D01*
X-618113Y219252D01*
X-617846Y219696D01*
X-617313Y219918D01*
X-616779Y219918D01*
X-616246Y219696D01*
X-615979Y219252D01*
G54D11*
X-612879Y219918D02*
X-615013Y219918D01*
X-615013Y218363D01*
X-614746Y218363D01*
X-614213Y218585D01*
X-613679Y218585D01*
X-613146Y218363D01*
X-612879Y217918D01*
X-612879Y217029D01*
X-613146Y216585D01*
X-613679Y216363D01*
X-614213Y216363D01*
X-614746Y216585D01*
X-615013Y217029D01*
G54D11*
X-610013Y219918D02*
X-610546Y219696D01*
X-610813Y219252D01*
X-610813Y217029D01*
X-610546Y216585D01*
X-610013Y216363D01*
G54D11*
X-609013Y216363D02*
X-607679Y219918D01*
X-606346Y216363D01*
G54D11*
X-608479Y217696D02*
X-606879Y217696D01*
G54D11*
X-605313Y216363D02*
X-605313Y219918D01*
X-603979Y219918D01*
X-603446Y219696D01*
X-603179Y219252D01*
X-603179Y217029D01*
X-603446Y216585D01*
X-603979Y216363D01*
X-605313Y216363D01*
G54D11*
X-600079Y217029D02*
X-600346Y216585D01*
X-600879Y216363D01*
X-601413Y216363D01*
X-601946Y216585D01*
X-602213Y217029D01*
X-602213Y219252D01*
X-601946Y219696D01*
X-601413Y219918D01*
X-600879Y219918D01*
X-600346Y219696D01*
X-600079Y219252D01*
G54D11*
X-596979Y219918D02*
X-599113Y219918D01*
X-599113Y218363D01*
X-598846Y218363D01*
X-598313Y218585D01*
X-597779Y218585D01*
X-597246Y218363D01*
X-596979Y217918D01*
X-596979Y217029D01*
X-597246Y216585D01*
X-597779Y216363D01*
X-598313Y216363D01*
X-598846Y216585D01*
X-599113Y217029D01*
G54D11*
X-596013Y216363D02*
X-593879Y219918D01*
G54D11*
X-592913Y217029D02*
X-592646Y216585D01*
X-592113Y216363D01*
X-591579Y216363D01*
X-591046Y216585D01*
X-590779Y217029D01*
X-590779Y217474D01*
X-591046Y217918D01*
X-591579Y218140D01*
X-592113Y218140D01*
X-592646Y218363D01*
X-592913Y218807D01*
X-592913Y219252D01*
X-592646Y219696D01*
X-592113Y219918D01*
X-591579Y219918D01*
X-591046Y219696D01*
X-590779Y219252D01*
G54D11*
X-587679Y217029D02*
X-587946Y216585D01*
X-588479Y216363D01*
X-589013Y216363D01*
X-589546Y216585D01*
X-589813Y217029D01*
X-589813Y219252D01*
X-589546Y219696D01*
X-589013Y219918D01*
X-588479Y219918D01*
X-587946Y219696D01*
X-587679Y219252D01*
G54D11*
X-586713Y219918D02*
X-586713Y216363D01*
X-584846Y216363D01*
G54D11*
X-583813Y216363D02*
X-581679Y219918D01*
G54D11*
X-580713Y216363D02*
X-580713Y219918D01*
X-579379Y219918D01*
X-578846Y219696D01*
X-578579Y219252D01*
X-578579Y218807D01*
X-578846Y218363D01*
X-579379Y218140D01*
X-580713Y218140D01*
G54D11*
X-575479Y217029D02*
X-575746Y216585D01*
X-576279Y216363D01*
X-576813Y216363D01*
X-577346Y216585D01*
X-577613Y217029D01*
X-577613Y219252D01*
X-577346Y219696D01*
X-576813Y219918D01*
X-576279Y219918D01*
X-575746Y219696D01*
X-575479Y219252D01*
G54D11*
X-574513Y216363D02*
X-574513Y219918D01*
G54D11*
X-573513Y216363D02*
X-573513Y219918D01*
X-571379Y216363D01*
X-571379Y219918D01*
G54D11*
X-569346Y216363D02*
X-569346Y219918D01*
G54D11*
X-570413Y219918D02*
X-568279Y219918D01*
G54D11*
X-567313Y218585D02*
X-565979Y219918D01*
X-565979Y216363D01*
G54D11*
X-565013Y219252D02*
X-564746Y219696D01*
X-564213Y219918D01*
X-563679Y219918D01*
X-563146Y219696D01*
X-562879Y219252D01*
X-562879Y218807D01*
X-563146Y218363D01*
X-563679Y218140D01*
X-563146Y217918D01*
X-562879Y217474D01*
X-562879Y217029D01*
X-563146Y216585D01*
X-563679Y216363D01*
X-564213Y216363D01*
X-564746Y216585D01*
X-565013Y217029D01*
G54D11*
X-561913Y219918D02*
X-561379Y219696D01*
X-561113Y219252D01*
X-561113Y217029D01*
X-561379Y216585D01*
X-561913Y216363D01*
G54D11*
X-628513Y192463D02*
X-628513Y196018D01*
X-627179Y196018D01*
X-626646Y195796D01*
X-626379Y195352D01*
X-626379Y194907D01*
X-626646Y194463D01*
X-627179Y194240D01*
X-628513Y194240D01*
G54D11*
X-623279Y193129D02*
X-623546Y192685D01*
X-624079Y192463D01*
X-624613Y192463D01*
X-625146Y192685D01*
X-625413Y193129D01*
X-625413Y195352D01*
X-625146Y195796D01*
X-624613Y196018D01*
X-624079Y196018D01*
X-623546Y195796D01*
X-623279Y195352D01*
G54D11*
X-620713Y192463D02*
X-620713Y196018D01*
X-622313Y193796D01*
X-622313Y193352D01*
X-620179Y193352D01*
G54D11*
X-617313Y196018D02*
X-617846Y195796D01*
X-618113Y195352D01*
X-618113Y193129D01*
X-617846Y192685D01*
X-617313Y192463D01*
G54D11*
X-616313Y192463D02*
X-614979Y196018D01*
X-613646Y192463D01*
G54D11*
X-615779Y193796D02*
X-614179Y193796D01*
G54D11*
X-612613Y192463D02*
X-612613Y196018D01*
X-611279Y196018D01*
X-610746Y195796D01*
X-610479Y195352D01*
X-610479Y193129D01*
X-610746Y192685D01*
X-611279Y192463D01*
X-612613Y192463D01*
G54D11*
X-607379Y193129D02*
X-607646Y192685D01*
X-608179Y192463D01*
X-608713Y192463D01*
X-609246Y192685D01*
X-609513Y193129D01*
X-609513Y195352D01*
X-609246Y195796D01*
X-608713Y196018D01*
X-608179Y196018D01*
X-607646Y195796D01*
X-607379Y195352D01*
G54D11*
X-604813Y192463D02*
X-604813Y196018D01*
X-606413Y193796D01*
X-606413Y193352D01*
X-604279Y193352D01*
G54D11*
X-603313Y192463D02*
X-601179Y196018D01*
G54D11*
X-600213Y193129D02*
X-599946Y192685D01*
X-599413Y192463D01*
X-598879Y192463D01*
X-598346Y192685D01*
X-598079Y193129D01*
X-598079Y193574D01*
X-598346Y194018D01*
X-598879Y194240D01*
X-599413Y194240D01*
X-599946Y194463D01*
X-600213Y194907D01*
X-600213Y195352D01*
X-599946Y195796D01*
X-599413Y196018D01*
X-598879Y196018D01*
X-598346Y195796D01*
X-598079Y195352D01*
G54D11*
X-597113Y192463D02*
X-597113Y196018D01*
X-595779Y196018D01*
X-595246Y195796D01*
X-594979Y195352D01*
X-594979Y193129D01*
X-595246Y192685D01*
X-595779Y192463D01*
X-597113Y192463D01*
G54D11*
X-594013Y192463D02*
X-592679Y196018D01*
X-591346Y192463D01*
G54D11*
X-593479Y193796D02*
X-591879Y193796D01*
G54D11*
X-590313Y192463D02*
X-588179Y196018D01*
G54D11*
X-587213Y192463D02*
X-587213Y196018D01*
X-585879Y196018D01*
X-585346Y195796D01*
X-585079Y195352D01*
X-585079Y194907D01*
X-585346Y194463D01*
X-585879Y194240D01*
X-587213Y194240D01*
G54D11*
X-581979Y193129D02*
X-582246Y192685D01*
X-582779Y192463D01*
X-583313Y192463D01*
X-583846Y192685D01*
X-584113Y193129D01*
X-584113Y195352D01*
X-583846Y195796D01*
X-583313Y196018D01*
X-582779Y196018D01*
X-582246Y195796D01*
X-581979Y195352D01*
G54D11*
X-581013Y192463D02*
X-581013Y196018D01*
G54D11*
X-580013Y192463D02*
X-580013Y196018D01*
X-577879Y192463D01*
X-577879Y196018D01*
G54D11*
X-575846Y192463D02*
X-575846Y196018D01*
G54D11*
X-576913Y196018D02*
X-574779Y196018D01*
G54D11*
X-573813Y194685D02*
X-572479Y196018D01*
X-572479Y192463D01*
G54D11*
X-569379Y192463D02*
X-571513Y192463D01*
X-571513Y192685D01*
X-571246Y193129D01*
X-569646Y194463D01*
X-569379Y194907D01*
X-569379Y195352D01*
X-569646Y195796D01*
X-570179Y196018D01*
X-570713Y196018D01*
X-571246Y195796D01*
X-571513Y195352D01*
G54D11*
X-568413Y196018D02*
X-567879Y195796D01*
X-567613Y195352D01*
X-567613Y193129D01*
X-567879Y192685D01*
X-568413Y192463D01*
G54D11*
X-616113Y166563D02*
X-616113Y170118D01*
X-614779Y170118D01*
X-614246Y169896D01*
X-613979Y169452D01*
X-613979Y169007D01*
X-614246Y168563D01*
X-614779Y168340D01*
X-616113Y168340D01*
G54D11*
X-610879Y167229D02*
X-611146Y166785D01*
X-611679Y166563D01*
X-612213Y166563D01*
X-612746Y166785D01*
X-613013Y167229D01*
X-613013Y169452D01*
X-612746Y169896D01*
X-612213Y170118D01*
X-611679Y170118D01*
X-611146Y169896D01*
X-610879Y169452D01*
G54D11*
X-609913Y169452D02*
X-609646Y169896D01*
X-609113Y170118D01*
X-608579Y170118D01*
X-608046Y169896D01*
X-607779Y169452D01*
X-607779Y169007D01*
X-608046Y168563D01*
X-608579Y168340D01*
X-608046Y168118D01*
X-607779Y167674D01*
X-607779Y167229D01*
X-608046Y166785D01*
X-608579Y166563D01*
X-609113Y166563D01*
X-609646Y166785D01*
X-609913Y167229D01*
G54D11*
X-604913Y170118D02*
X-605446Y169896D01*
X-605713Y169452D01*
X-605713Y167229D01*
X-605446Y166785D01*
X-604913Y166563D01*
G54D11*
X-603913Y166563D02*
X-602579Y170118D01*
X-601246Y166563D01*
G54D11*
X-603379Y167896D02*
X-601779Y167896D01*
G54D11*
X-600213Y166563D02*
X-600213Y170118D01*
X-598879Y170118D01*
X-598346Y169896D01*
X-598079Y169452D01*
X-598079Y167229D01*
X-598346Y166785D01*
X-598879Y166563D01*
X-600213Y166563D01*
G54D11*
X-594979Y167229D02*
X-595246Y166785D01*
X-595779Y166563D01*
X-596313Y166563D01*
X-596846Y166785D01*
X-597113Y167229D01*
X-597113Y169452D01*
X-596846Y169896D01*
X-596313Y170118D01*
X-595779Y170118D01*
X-595246Y169896D01*
X-594979Y169452D01*
G54D11*
X-594013Y169452D02*
X-593746Y169896D01*
X-593213Y170118D01*
X-592679Y170118D01*
X-592146Y169896D01*
X-591879Y169452D01*
X-591879Y169007D01*
X-592146Y168563D01*
X-592679Y168340D01*
X-592146Y168118D01*
X-591879Y167674D01*
X-591879Y167229D01*
X-592146Y166785D01*
X-592679Y166563D01*
X-593213Y166563D01*
X-593746Y166785D01*
X-594013Y167229D01*
G54D11*
X-590913Y166563D02*
X-588779Y170118D01*
G54D11*
X-587813Y166563D02*
X-587813Y170118D01*
X-586479Y170118D01*
X-585946Y169896D01*
X-585679Y169452D01*
X-585679Y169007D01*
X-585946Y168563D01*
X-586479Y168340D01*
X-587813Y168340D01*
G54D11*
X-582579Y167229D02*
X-582846Y166785D01*
X-583379Y166563D01*
X-583913Y166563D01*
X-584446Y166785D01*
X-584713Y167229D01*
X-584713Y169452D01*
X-584446Y169896D01*
X-583913Y170118D01*
X-583379Y170118D01*
X-582846Y169896D01*
X-582579Y169452D01*
G54D11*
X-581613Y166563D02*
X-581613Y170118D01*
G54D11*
X-580613Y166563D02*
X-580613Y170118D01*
X-578479Y166563D01*
X-578479Y170118D01*
G54D11*
X-576446Y166563D02*
X-576446Y170118D01*
G54D11*
X-577513Y170118D02*
X-575379Y170118D01*
G54D11*
X-574413Y168785D02*
X-573079Y170118D01*
X-573079Y166563D01*
G54D11*
X-572113Y168785D02*
X-570779Y170118D01*
X-570779Y166563D01*
G54D11*
X-569813Y170118D02*
X-569279Y169896D01*
X-569013Y169452D01*
X-569013Y167229D01*
X-569279Y166785D01*
X-569813Y166563D01*
G54D11*
X-616013Y140663D02*
X-616013Y144218D01*
X-614679Y144218D01*
X-614146Y143996D01*
X-613879Y143552D01*
X-613879Y143107D01*
X-614146Y142663D01*
X-614679Y142440D01*
X-616013Y142440D01*
G54D11*
X-610779Y141329D02*
X-611046Y140885D01*
X-611579Y140663D01*
X-612113Y140663D01*
X-612646Y140885D01*
X-612913Y141329D01*
X-612913Y143552D01*
X-612646Y143996D01*
X-612113Y144218D01*
X-611579Y144218D01*
X-611046Y143996D01*
X-610779Y143552D01*
G54D11*
X-607679Y140663D02*
X-609813Y140663D01*
X-609813Y140885D01*
X-609546Y141329D01*
X-607946Y142663D01*
X-607679Y143107D01*
X-607679Y143552D01*
X-607946Y143996D01*
X-608479Y144218D01*
X-609013Y144218D01*
X-609546Y143996D01*
X-609813Y143552D01*
G54D11*
X-604813Y144218D02*
X-605346Y143996D01*
X-605613Y143552D01*
X-605613Y141329D01*
X-605346Y140885D01*
X-604813Y140663D01*
G54D11*
X-603813Y140663D02*
X-602479Y144218D01*
X-601146Y140663D01*
G54D11*
X-603279Y141996D02*
X-601679Y141996D01*
G54D11*
X-600113Y140663D02*
X-600113Y144218D01*
X-598779Y144218D01*
X-598246Y143996D01*
X-597979Y143552D01*
X-597979Y141329D01*
X-598246Y140885D01*
X-598779Y140663D01*
X-600113Y140663D01*
G54D11*
X-594879Y141329D02*
X-595146Y140885D01*
X-595679Y140663D01*
X-596213Y140663D01*
X-596746Y140885D01*
X-597013Y141329D01*
X-597013Y143552D01*
X-596746Y143996D01*
X-596213Y144218D01*
X-595679Y144218D01*
X-595146Y143996D01*
X-594879Y143552D01*
G54D11*
X-591779Y140663D02*
X-593913Y140663D01*
X-593913Y140885D01*
X-593646Y141329D01*
X-592046Y142663D01*
X-591779Y143107D01*
X-591779Y143552D01*
X-592046Y143996D01*
X-592579Y144218D01*
X-593113Y144218D01*
X-593646Y143996D01*
X-593913Y143552D01*
G54D11*
X-590813Y140663D02*
X-588679Y144218D01*
G54D11*
X-587713Y140663D02*
X-587713Y144218D01*
X-586379Y144218D01*
X-585846Y143996D01*
X-585579Y143552D01*
X-585579Y143107D01*
X-585846Y142663D01*
X-586379Y142440D01*
X-587713Y142440D01*
G54D11*
X-582479Y141329D02*
X-582746Y140885D01*
X-583279Y140663D01*
X-583813Y140663D01*
X-584346Y140885D01*
X-584613Y141329D01*
X-584613Y143552D01*
X-584346Y143996D01*
X-583813Y144218D01*
X-583279Y144218D01*
X-582746Y143996D01*
X-582479Y143552D01*
G54D11*
X-581513Y140663D02*
X-581513Y144218D01*
G54D11*
X-580513Y140663D02*
X-580513Y144218D01*
X-578379Y140663D01*
X-578379Y144218D01*
G54D11*
X-576346Y140663D02*
X-576346Y144218D01*
G54D11*
X-577413Y144218D02*
X-575279Y144218D01*
G54D11*
X-574313Y142885D02*
X-572979Y144218D01*
X-572979Y140663D01*
G54D11*
X-569879Y143552D02*
X-569879Y141329D01*
X-570146Y140885D01*
X-570679Y140663D01*
X-571213Y140663D01*
X-571746Y140885D01*
X-572013Y141329D01*
X-572013Y143552D01*
X-571746Y143996D01*
X-571213Y144218D01*
X-570679Y144218D01*
X-570146Y143996D01*
X-569879Y143552D01*
G54D11*
X-568913Y144218D02*
X-568379Y143996D01*
X-568113Y143552D01*
X-568113Y141329D01*
X-568379Y140885D01*
X-568913Y140663D01*
G54D11*
X-613113Y115763D02*
X-613113Y119318D01*
X-611779Y119318D01*
X-611246Y119096D01*
X-610979Y118652D01*
X-610979Y118207D01*
X-611246Y117763D01*
X-611779Y117540D01*
X-613113Y117540D01*
G54D11*
X-607879Y116429D02*
X-608146Y115985D01*
X-608679Y115763D01*
X-609213Y115763D01*
X-609746Y115985D01*
X-610013Y116429D01*
X-610013Y118652D01*
X-609746Y119096D01*
X-609213Y119318D01*
X-608679Y119318D01*
X-608146Y119096D01*
X-607879Y118652D01*
G54D11*
X-606913Y117985D02*
X-605579Y119318D01*
X-605579Y115763D01*
G54D11*
X-602713Y119318D02*
X-603246Y119096D01*
X-603513Y118652D01*
X-603513Y116429D01*
X-603246Y115985D01*
X-602713Y115763D01*
G54D11*
X-601713Y115763D02*
X-600379Y119318D01*
X-599046Y115763D01*
G54D11*
X-601179Y117096D02*
X-599579Y117096D01*
G54D11*
X-598013Y115763D02*
X-598013Y119318D01*
X-596679Y119318D01*
X-596146Y119096D01*
X-595879Y118652D01*
X-595879Y116429D01*
X-596146Y115985D01*
X-596679Y115763D01*
X-598013Y115763D01*
G54D11*
X-592779Y116429D02*
X-593046Y115985D01*
X-593579Y115763D01*
X-594113Y115763D01*
X-594646Y115985D01*
X-594913Y116429D01*
X-594913Y118652D01*
X-594646Y119096D01*
X-594113Y119318D01*
X-593579Y119318D01*
X-593046Y119096D01*
X-592779Y118652D01*
G54D11*
X-591813Y117985D02*
X-590479Y119318D01*
X-590479Y115763D01*
G54D11*
X-589513Y115763D02*
X-587379Y119318D01*
G54D11*
X-586413Y115763D02*
X-586413Y119318D01*
X-585079Y119318D01*
X-584546Y119096D01*
X-584279Y118652D01*
X-584279Y118207D01*
X-584546Y117763D01*
X-585079Y117540D01*
X-586413Y117540D01*
G54D11*
X-581179Y116429D02*
X-581446Y115985D01*
X-581979Y115763D01*
X-582513Y115763D01*
X-583046Y115985D01*
X-583313Y116429D01*
X-583313Y118652D01*
X-583046Y119096D01*
X-582513Y119318D01*
X-581979Y119318D01*
X-581446Y119096D01*
X-581179Y118652D01*
G54D11*
X-580213Y115763D02*
X-580213Y119318D01*
G54D11*
X-579213Y115763D02*
X-579213Y119318D01*
X-577079Y115763D01*
X-577079Y119318D01*
G54D11*
X-575046Y115763D02*
X-575046Y119318D01*
G54D11*
X-576113Y119318D02*
X-573979Y119318D01*
G54D11*
X-573013Y116429D02*
X-572746Y115985D01*
X-572213Y115763D01*
X-571679Y115763D01*
X-571146Y115985D01*
X-570879Y116429D01*
X-570879Y117540D01*
X-570879Y117763D01*
X-571679Y117318D01*
X-572213Y117318D01*
X-572746Y117540D01*
X-573013Y117985D01*
X-573013Y118652D01*
X-572746Y119096D01*
X-572213Y119318D01*
X-571679Y119318D01*
X-571146Y119096D01*
X-570879Y118652D01*
X-570879Y117540D01*
G54D11*
X-569913Y119318D02*
X-569379Y119096D01*
X-569113Y118652D01*
X-569113Y116429D01*
X-569379Y115985D01*
X-569913Y115763D01*
G54D11*
X-613413Y89863D02*
X-613413Y93418D01*
X-612079Y93418D01*
X-611546Y93196D01*
X-611279Y92752D01*
X-611279Y92307D01*
X-611546Y91863D01*
X-612079Y91640D01*
X-613413Y91640D01*
G54D11*
X-608179Y90529D02*
X-608446Y90085D01*
X-608979Y89863D01*
X-609513Y89863D01*
X-610046Y90085D01*
X-610313Y90529D01*
X-610313Y92752D01*
X-610046Y93196D01*
X-609513Y93418D01*
X-608979Y93418D01*
X-608446Y93196D01*
X-608179Y92752D01*
G54D11*
X-605079Y92752D02*
X-605079Y90529D01*
X-605346Y90085D01*
X-605879Y89863D01*
X-606413Y89863D01*
X-606946Y90085D01*
X-607213Y90529D01*
X-607213Y92752D01*
X-606946Y93196D01*
X-606413Y93418D01*
X-605879Y93418D01*
X-605346Y93196D01*
X-605079Y92752D01*
G54D11*
X-602213Y93418D02*
X-602746Y93196D01*
X-603013Y92752D01*
X-603013Y90529D01*
X-602746Y90085D01*
X-602213Y89863D01*
G54D11*
X-601213Y89863D02*
X-599879Y93418D01*
X-598546Y89863D01*
G54D11*
X-600679Y91196D02*
X-599079Y91196D01*
G54D11*
X-597513Y89863D02*
X-597513Y93418D01*
X-596179Y93418D01*
X-595646Y93196D01*
X-595379Y92752D01*
X-595379Y90529D01*
X-595646Y90085D01*
X-596179Y89863D01*
X-597513Y89863D01*
G54D11*
X-592279Y90529D02*
X-592546Y90085D01*
X-593079Y89863D01*
X-593613Y89863D01*
X-594146Y90085D01*
X-594413Y90529D01*
X-594413Y92752D01*
X-594146Y93196D01*
X-593613Y93418D01*
X-593079Y93418D01*
X-592546Y93196D01*
X-592279Y92752D01*
G54D11*
X-589179Y92752D02*
X-589179Y90529D01*
X-589446Y90085D01*
X-589979Y89863D01*
X-590513Y89863D01*
X-591046Y90085D01*
X-591313Y90529D01*
X-591313Y92752D01*
X-591046Y93196D01*
X-590513Y93418D01*
X-589979Y93418D01*
X-589446Y93196D01*
X-589179Y92752D01*
G54D11*
X-588213Y89863D02*
X-586079Y93418D01*
G54D11*
X-585113Y89863D02*
X-585113Y93418D01*
X-583779Y93418D01*
X-583246Y93196D01*
X-582979Y92752D01*
X-582979Y92307D01*
X-583246Y91863D01*
X-583779Y91640D01*
X-585113Y91640D01*
G54D11*
X-579879Y90529D02*
X-580146Y90085D01*
X-580679Y89863D01*
X-581213Y89863D01*
X-581746Y90085D01*
X-582013Y90529D01*
X-582013Y92752D01*
X-581746Y93196D01*
X-581213Y93418D01*
X-580679Y93418D01*
X-580146Y93196D01*
X-579879Y92752D01*
G54D11*
X-578913Y89863D02*
X-578913Y93418D01*
G54D11*
X-577913Y89863D02*
X-577913Y93418D01*
X-575779Y89863D01*
X-575779Y93418D01*
G54D11*
X-573746Y89863D02*
X-573746Y93418D01*
G54D11*
X-574813Y93418D02*
X-572679Y93418D01*
G54D11*
X-570379Y91640D02*
X-570913Y91640D01*
X-571446Y91863D01*
X-571713Y92307D01*
X-571713Y92752D01*
X-571446Y93196D01*
X-570913Y93418D01*
X-570379Y93418D01*
X-569846Y93196D01*
X-569579Y92752D01*
X-569579Y92307D01*
X-569846Y91863D01*
X-570379Y91640D01*
X-569846Y91418D01*
X-569579Y90974D01*
X-569579Y90529D01*
X-569846Y90085D01*
X-570379Y89863D01*
X-570913Y89863D01*
X-571446Y90085D01*
X-571713Y90529D01*
X-571713Y90974D01*
X-571446Y91418D01*
X-570913Y91640D01*
G54D11*
X-568613Y93418D02*
X-568079Y93196D01*
X-567813Y92752D01*
X-567813Y90529D01*
X-568079Y90085D01*
X-568613Y89863D01*
G54D11*
X-581696Y71740D02*
X-580629Y71740D01*
X-580629Y70629D01*
X-580896Y70185D01*
X-581429Y69963D01*
X-581963Y69963D01*
X-582496Y70185D01*
X-582763Y70629D01*
X-582763Y72852D01*
X-582496Y73296D01*
X-581963Y73518D01*
X-581429Y73518D01*
X-580896Y73296D01*
X-580629Y72852D01*
G54D11*
X-579663Y69963D02*
X-579663Y73518D01*
X-577529Y69963D01*
X-577529Y73518D01*
G54D11*
X-576563Y69963D02*
X-576563Y73518D01*
X-575229Y73518D01*
X-574696Y73296D01*
X-574429Y72852D01*
X-574429Y70629D01*
X-574696Y70185D01*
X-575229Y69963D01*
X-576563Y69963D01*
G54D11*
X-584663Y44463D02*
X-583329Y48018D01*
X-581996Y44463D01*
G54D11*
X-584129Y45796D02*
X-582529Y45796D01*
G54D11*
X-579896Y46240D02*
X-579096Y45796D01*
X-578829Y45352D01*
X-578829Y44463D01*
G54D11*
X-580963Y44463D02*
X-580963Y48018D01*
X-579629Y48018D01*
X-579096Y47796D01*
X-578829Y47352D01*
X-578829Y46907D01*
X-579096Y46463D01*
X-579629Y46240D01*
X-580963Y46240D01*
G54D11*
X-575996Y44463D02*
X-577863Y44463D01*
X-577863Y48018D01*
X-575996Y48018D01*
G54D11*
X-577863Y46240D02*
X-575996Y46240D01*
G54D11*
X-574963Y44463D02*
X-574963Y48018D01*
X-573096Y48018D01*
G54D11*
X-574963Y46240D02*
X-573096Y46240D01*
G54D11*
X-588063Y19163D02*
X-586729Y22718D01*
X-585396Y19163D01*
G54D11*
X-587529Y20496D02*
X-585929Y20496D01*
G54D11*
X-584363Y22718D02*
X-583029Y19163D01*
X-581696Y22718D01*
G54D11*
X-578529Y19829D02*
X-578796Y19385D01*
X-579329Y19163D01*
X-579863Y19163D01*
X-580396Y19385D01*
X-580663Y19829D01*
X-580663Y22052D01*
X-580396Y22496D01*
X-579863Y22718D01*
X-579329Y22718D01*
X-578796Y22496D01*
X-578529Y22052D01*
G54D11*
X-575429Y19829D02*
X-575696Y19385D01*
X-576229Y19163D01*
X-576763Y19163D01*
X-577296Y19385D01*
X-577563Y19829D01*
X-577563Y22052D01*
X-577296Y22496D01*
X-576763Y22718D01*
X-576229Y22718D01*
X-575696Y22496D01*
X-575429Y22052D01*
G54D11*
X-612113Y-11237D02*
X-612113Y-7682D01*
X-610779Y-7682D01*
X-610246Y-7904D01*
X-609979Y-8348D01*
X-609979Y-8793D01*
X-610246Y-9237D01*
X-610779Y-9460D01*
X-612113Y-9460D01*
G54D11*
X-609013Y-11237D02*
X-609013Y-7682D01*
X-607679Y-7682D01*
X-607146Y-7904D01*
X-606879Y-8348D01*
X-606879Y-8793D01*
X-607146Y-9237D01*
X-607679Y-9460D01*
X-607146Y-9682D01*
X-606879Y-10126D01*
X-606879Y-10571D01*
X-607146Y-11015D01*
X-607679Y-11237D01*
X-609013Y-11237D01*
G54D11*
X-609013Y-9460D02*
X-607679Y-9460D01*
G54D11*
X-603779Y-7682D02*
X-605913Y-7682D01*
X-605913Y-9237D01*
X-605646Y-9237D01*
X-605113Y-9015D01*
X-604579Y-9015D01*
X-604046Y-9237D01*
X-603779Y-9682D01*
X-603779Y-10571D01*
X-604046Y-11015D01*
X-604579Y-11237D01*
X-605113Y-11237D01*
X-605646Y-11015D01*
X-605913Y-10571D01*
G54D11*
X-600913Y-7682D02*
X-601446Y-7904D01*
X-601713Y-8348D01*
X-601713Y-10571D01*
X-601446Y-11015D01*
X-600913Y-11237D01*
G54D11*
X-599913Y-10571D02*
X-599646Y-11015D01*
X-599113Y-11237D01*
X-598579Y-11237D01*
X-598046Y-11015D01*
X-597779Y-10571D01*
X-597779Y-10126D01*
X-598046Y-9682D01*
X-598579Y-9460D01*
X-599113Y-9460D01*
X-599646Y-9237D01*
X-599913Y-8793D01*
X-599913Y-8348D01*
X-599646Y-7904D01*
X-599113Y-7682D01*
X-598579Y-7682D01*
X-598046Y-7904D01*
X-597779Y-8348D01*
G54D11*
X-594679Y-10571D02*
X-594946Y-11015D01*
X-595479Y-11237D01*
X-596013Y-11237D01*
X-596546Y-11015D01*
X-596813Y-10571D01*
X-596813Y-8348D01*
X-596546Y-7904D01*
X-596013Y-7682D01*
X-595479Y-7682D01*
X-594946Y-7904D01*
X-594679Y-8348D01*
G54D11*
X-593713Y-11237D02*
X-593713Y-7682D01*
G54D11*
X-593713Y-10126D02*
X-591579Y-7682D01*
G54D11*
X-592913Y-9460D02*
X-591579Y-11237D01*
G54D11*
X-590613Y-11237D02*
X-588479Y-7682D01*
G54D11*
X-587513Y-11237D02*
X-587513Y-7682D01*
X-586179Y-7682D01*
X-585646Y-7904D01*
X-585379Y-8348D01*
X-585379Y-8793D01*
X-585646Y-9237D01*
X-586179Y-9460D01*
X-587513Y-9460D01*
G54D11*
X-582279Y-10571D02*
X-582546Y-11015D01*
X-583079Y-11237D01*
X-583613Y-11237D01*
X-584146Y-11015D01*
X-584413Y-10571D01*
X-584413Y-8348D01*
X-584146Y-7904D01*
X-583613Y-7682D01*
X-583079Y-7682D01*
X-582546Y-7904D01*
X-582279Y-8348D01*
G54D11*
X-581313Y-11237D02*
X-581313Y-7682D01*
G54D11*
X-580313Y-11237D02*
X-580313Y-7682D01*
X-578179Y-11237D01*
X-578179Y-7682D01*
G54D11*
X-576146Y-11237D02*
X-576146Y-7682D01*
G54D11*
X-577213Y-7682D02*
X-575079Y-7682D01*
G54D11*
X-571979Y-7682D02*
X-574113Y-7682D01*
X-574113Y-9237D01*
X-573846Y-9237D01*
X-573313Y-9015D01*
X-572779Y-9015D01*
X-572246Y-9237D01*
X-571979Y-9682D01*
X-571979Y-10571D01*
X-572246Y-11015D01*
X-572779Y-11237D01*
X-573313Y-11237D01*
X-573846Y-11015D01*
X-574113Y-10571D01*
G54D11*
X-571013Y-7682D02*
X-570479Y-7904D01*
X-570213Y-8348D01*
X-570213Y-10571D01*
X-570479Y-11015D01*
X-571013Y-11237D01*
G54D11*
X-613363Y-34137D02*
X-613363Y-30582D01*
X-612029Y-30582D01*
X-611496Y-30804D01*
X-611229Y-31248D01*
X-611229Y-31693D01*
X-611496Y-32137D01*
X-612029Y-32360D01*
X-613363Y-32360D01*
G54D11*
X-610263Y-34137D02*
X-610263Y-30582D01*
X-608929Y-30582D01*
X-608396Y-30804D01*
X-608129Y-31248D01*
X-608129Y-31693D01*
X-608396Y-32137D01*
X-608929Y-32360D01*
X-608396Y-32582D01*
X-608129Y-33026D01*
X-608129Y-33470D01*
X-608396Y-33915D01*
X-608929Y-34137D01*
X-610263Y-34137D01*
G54D11*
X-610263Y-32360D02*
X-608929Y-32360D01*
G54D11*
X-605563Y-34137D02*
X-605563Y-30582D01*
X-607163Y-32804D01*
X-607163Y-33248D01*
X-605029Y-33248D01*
G54D11*
X-602163Y-30582D02*
X-602696Y-30804D01*
X-602963Y-31248D01*
X-602963Y-33470D01*
X-602696Y-33915D01*
X-602163Y-34137D01*
G54D11*
X-601163Y-34137D02*
X-601163Y-30582D01*
X-599829Y-32804D01*
X-598496Y-30582D01*
X-598496Y-34137D01*
G54D11*
X-597463Y-34137D02*
X-597463Y-30582D01*
G54D11*
X-596463Y-33470D02*
X-596196Y-33915D01*
X-595663Y-34137D01*
X-595129Y-34137D01*
X-594596Y-33915D01*
X-594329Y-33470D01*
X-594329Y-33026D01*
X-594596Y-32582D01*
X-595129Y-32360D01*
X-595663Y-32360D01*
X-596196Y-32137D01*
X-596463Y-31693D01*
X-596463Y-31248D01*
X-596196Y-30804D01*
X-595663Y-30582D01*
X-595129Y-30582D01*
X-594596Y-30804D01*
X-594329Y-31248D01*
G54D11*
X-591229Y-31248D02*
X-591229Y-33470D01*
X-591496Y-33915D01*
X-592029Y-34137D01*
X-592563Y-34137D01*
X-593096Y-33915D01*
X-593363Y-33470D01*
X-593363Y-31248D01*
X-593096Y-30804D01*
X-592563Y-30582D01*
X-592029Y-30582D01*
X-591496Y-30804D01*
X-591229Y-31248D01*
G54D11*
X-590263Y-34137D02*
X-588129Y-30582D01*
G54D11*
X-587163Y-34137D02*
X-587163Y-30582D01*
X-585829Y-30582D01*
X-585296Y-30804D01*
X-585029Y-31248D01*
X-585029Y-31693D01*
X-585296Y-32137D01*
X-585829Y-32360D01*
X-587163Y-32360D01*
G54D11*
X-581929Y-33470D02*
X-582196Y-33915D01*
X-582729Y-34137D01*
X-583263Y-34137D01*
X-583796Y-33915D01*
X-584063Y-33470D01*
X-584063Y-31248D01*
X-583796Y-30804D01*
X-583263Y-30582D01*
X-582729Y-30582D01*
X-582196Y-30804D01*
X-581929Y-31248D01*
G54D11*
X-580963Y-34137D02*
X-580963Y-30582D01*
G54D11*
X-579963Y-34137D02*
X-579963Y-30582D01*
X-577829Y-34137D01*
X-577829Y-30582D01*
G54D11*
X-575796Y-34137D02*
X-575796Y-30582D01*
G54D11*
X-576863Y-30582D02*
X-574729Y-30582D01*
G54D11*
X-572163Y-34137D02*
X-572163Y-30582D01*
X-573763Y-32804D01*
X-573763Y-33248D01*
X-571629Y-33248D01*
G54D11*
X-570663Y-30582D02*
X-570129Y-30804D01*
X-569863Y-31248D01*
X-569863Y-33470D01*
X-570129Y-33915D01*
X-570663Y-34137D01*
G54D12*
X-595263Y-62537D02*
X-595263Y-58982D01*
X-593929Y-58982D01*
X-593396Y-59204D01*
X-593129Y-59648D01*
X-593129Y-60093D01*
X-593396Y-60537D01*
X-593929Y-60760D01*
X-595263Y-60760D01*
G54D12*
X-592152Y-62537D02*
X-592152Y-58982D01*
X-590818Y-58982D01*
X-590285Y-59204D01*
X-590018Y-59648D01*
X-590018Y-60093D01*
X-590285Y-60537D01*
X-590818Y-60760D01*
X-590285Y-60982D01*
X-590018Y-61426D01*
X-590018Y-61871D01*
X-590285Y-62315D01*
X-590818Y-62537D01*
X-592152Y-62537D01*
G54D12*
X-592152Y-60760D02*
X-590818Y-60760D01*
G54D12*
X-589041Y-59648D02*
X-588774Y-59204D01*
X-588241Y-58982D01*
X-587707Y-58982D01*
X-587174Y-59204D01*
X-586907Y-59648D01*
X-586907Y-60093D01*
X-587174Y-60537D01*
X-587707Y-60760D01*
X-587174Y-60982D01*
X-586907Y-61426D01*
X-586907Y-61871D01*
X-587174Y-62315D01*
X-587707Y-62537D01*
X-588241Y-62537D01*
X-588774Y-62315D01*
X-589041Y-61871D01*
G54D12*
X-584099Y-58982D02*
X-584632Y-59204D01*
X-584899Y-59648D01*
X-584899Y-61871D01*
X-584632Y-62315D01*
X-584099Y-62537D01*
G54D12*
X-583121Y-62537D02*
X-583121Y-58982D01*
X-581787Y-61204D01*
X-580454Y-58982D01*
X-580454Y-62537D01*
G54D12*
X-577342Y-59648D02*
X-577342Y-61871D01*
X-577609Y-62315D01*
X-578142Y-62537D01*
X-578676Y-62537D01*
X-579209Y-62315D01*
X-579476Y-61871D01*
X-579476Y-59648D01*
X-579209Y-59204D01*
X-578676Y-58982D01*
X-578142Y-58982D01*
X-577609Y-59204D01*
X-577342Y-59648D01*
G54D12*
X-576365Y-61871D02*
X-576098Y-62315D01*
X-575565Y-62537D01*
X-575031Y-62537D01*
X-574498Y-62315D01*
X-574231Y-61871D01*
X-574231Y-61426D01*
X-574498Y-60982D01*
X-575031Y-60760D01*
X-575565Y-60760D01*
X-576098Y-60537D01*
X-576365Y-60093D01*
X-576365Y-59648D01*
X-576098Y-59204D01*
X-575565Y-58982D01*
X-575031Y-58982D01*
X-574498Y-59204D01*
X-574231Y-59648D01*
G54D12*
X-573254Y-62537D02*
X-573254Y-58982D01*
G54D12*
X-583038Y-87937D02*
X-583038Y-84382D01*
X-581704Y-84382D01*
X-581171Y-84604D01*
X-580904Y-85048D01*
X-580904Y-85493D01*
X-581171Y-85937D01*
X-581704Y-86160D01*
X-583038Y-86160D01*
G54D12*
X-579927Y-87937D02*
X-579927Y-84382D01*
X-578593Y-84382D01*
X-578060Y-84604D01*
X-577793Y-85048D01*
X-577793Y-85493D01*
X-578060Y-85937D01*
X-578593Y-86160D01*
X-578060Y-86382D01*
X-577793Y-86826D01*
X-577793Y-87271D01*
X-578060Y-87715D01*
X-578593Y-87937D01*
X-579927Y-87937D01*
G54D12*
X-579927Y-86160D02*
X-578593Y-86160D01*
G54D12*
X-574682Y-87937D02*
X-576816Y-87937D01*
X-576816Y-87715D01*
X-576549Y-87271D01*
X-574949Y-85937D01*
X-574682Y-85493D01*
X-574682Y-85048D01*
X-574949Y-84604D01*
X-575482Y-84382D01*
X-576016Y-84382D01*
X-576549Y-84604D01*
X-576816Y-85048D01*
G54D11*
X-611263Y-112837D02*
X-611263Y-109282D01*
X-609929Y-109282D01*
X-609396Y-109504D01*
X-609129Y-109948D01*
X-609129Y-110393D01*
X-609396Y-110837D01*
X-609929Y-111060D01*
X-611263Y-111060D01*
G54D11*
X-608163Y-112837D02*
X-608163Y-109282D01*
X-606829Y-109282D01*
X-606296Y-109504D01*
X-606029Y-109948D01*
X-606029Y-110393D01*
X-606296Y-110837D01*
X-606829Y-111060D01*
X-606296Y-111282D01*
X-606029Y-111726D01*
X-606029Y-112170D01*
X-606296Y-112615D01*
X-606829Y-112837D01*
X-608163Y-112837D01*
G54D11*
X-608163Y-111060D02*
X-606829Y-111060D01*
G54D11*
X-605063Y-110615D02*
X-603729Y-109282D01*
X-603729Y-112837D01*
G54D11*
X-600863Y-109282D02*
X-601396Y-109504D01*
X-601663Y-109948D01*
X-601663Y-112170D01*
X-601396Y-112615D01*
X-600863Y-112837D01*
G54D11*
X-597729Y-109948D02*
X-597729Y-112170D01*
X-597996Y-112615D01*
X-598529Y-112837D01*
X-599063Y-112837D01*
X-599596Y-112615D01*
X-599863Y-112170D01*
X-599863Y-109948D01*
X-599596Y-109504D01*
X-599063Y-109282D01*
X-598529Y-109282D01*
X-597996Y-109504D01*
X-597729Y-109948D01*
G54D11*
X-594629Y-112170D02*
X-594896Y-112615D01*
X-595429Y-112837D01*
X-595963Y-112837D01*
X-596496Y-112615D01*
X-596763Y-112170D01*
X-596763Y-109948D01*
X-596496Y-109504D01*
X-595963Y-109282D01*
X-595429Y-109282D01*
X-594896Y-109504D01*
X-594629Y-109948D01*
G54D11*
X-593663Y-110615D02*
X-592329Y-109282D01*
X-592329Y-112837D01*
G54D11*
X-591363Y-112837D02*
X-590029Y-109282D01*
X-588696Y-112837D01*
G54D11*
X-590829Y-111504D02*
X-589229Y-111504D01*
G54D11*
X-587663Y-112837D02*
X-585529Y-109282D01*
G54D11*
X-584563Y-112837D02*
X-584563Y-109282D01*
X-583229Y-109282D01*
X-582696Y-109504D01*
X-582429Y-109948D01*
X-582429Y-110393D01*
X-582696Y-110837D01*
X-583229Y-111060D01*
X-584563Y-111060D01*
G54D11*
X-579329Y-112170D02*
X-579596Y-112615D01*
X-580129Y-112837D01*
X-580663Y-112837D01*
X-581196Y-112615D01*
X-581463Y-112170D01*
X-581463Y-109948D01*
X-581196Y-109504D01*
X-580663Y-109282D01*
X-580129Y-109282D01*
X-579596Y-109504D01*
X-579329Y-109948D01*
G54D11*
X-578363Y-112837D02*
X-578363Y-109282D01*
G54D11*
X-577363Y-112837D02*
X-577363Y-109282D01*
X-575229Y-112837D01*
X-575229Y-109282D01*
G54D11*
X-573196Y-112837D02*
X-573196Y-109282D01*
G54D11*
X-574263Y-109282D02*
X-572129Y-109282D01*
G54D11*
X-571163Y-110615D02*
X-569829Y-109282D01*
X-569829Y-112837D01*
G54D11*
X-568863Y-109282D02*
X-568329Y-109504D01*
X-568063Y-109948D01*
X-568063Y-112170D01*
X-568329Y-112615D01*
X-568863Y-112837D01*
G54D11*
X-635263Y223785D02*
X-633930Y225118D01*
X-633930Y221563D01*
G54D11*
X-632630Y197563D02*
X-634763Y197563D01*
X-634763Y197785D01*
X-634496Y198229D01*
X-632896Y199563D01*
X-632630Y200007D01*
X-632630Y200452D01*
X-632896Y200896D01*
X-633430Y201118D01*
X-633963Y201118D01*
X-634496Y200896D01*
X-634763Y200452D01*
G54D11*
X-634763Y174452D02*
X-634496Y174896D01*
X-633963Y175118D01*
X-633430Y175118D01*
X-632896Y174896D01*
X-632630Y174452D01*
X-632630Y174007D01*
X-632896Y173563D01*
X-633430Y173340D01*
X-632896Y173118D01*
X-632630Y172674D01*
X-632630Y172229D01*
X-632896Y171785D01*
X-633430Y171563D01*
X-633963Y171563D01*
X-634496Y171785D01*
X-634763Y172229D01*
G54D11*
X-633663Y146063D02*
X-633663Y149618D01*
X-635263Y147396D01*
X-635263Y146952D01*
X-633130Y146952D01*
G54D11*
X-632630Y124118D02*
X-634763Y124118D01*
X-634763Y122563D01*
X-634496Y122563D01*
X-633963Y122785D01*
X-633430Y122785D01*
X-632896Y122563D01*
X-632630Y122118D01*
X-632630Y121229D01*
X-632896Y120785D01*
X-633430Y120563D01*
X-633963Y120563D01*
X-634496Y120785D01*
X-634763Y121229D01*
G54D11*
X-633130Y96952D02*
X-633396Y97396D01*
X-633930Y97618D01*
X-634463Y97618D01*
X-634996Y97396D01*
X-635263Y96952D01*
X-635263Y95840D01*
X-635263Y95618D01*
X-634463Y96063D01*
X-633930Y96063D01*
X-633396Y95840D01*
X-633130Y95396D01*
X-633130Y94729D01*
X-633396Y94285D01*
X-633930Y94063D01*
X-634463Y94063D01*
X-634996Y94285D01*
X-635263Y94729D01*
X-635263Y95840D01*
G54D11*
X-634763Y73618D02*
X-632630Y73618D01*
X-632896Y73174D01*
X-633430Y72507D01*
X-633963Y71618D01*
X-634230Y70952D01*
X-634230Y70063D01*
G54D11*
X-632930Y45340D02*
X-633463Y45340D01*
X-633996Y45563D01*
X-634263Y46007D01*
X-634263Y46452D01*
X-633996Y46896D01*
X-633463Y47118D01*
X-632930Y47118D01*
X-632396Y46896D01*
X-632130Y46452D01*
X-632130Y46007D01*
X-632396Y45563D01*
X-632930Y45340D01*
X-632396Y45118D01*
X-632130Y44674D01*
X-632130Y44229D01*
X-632396Y43785D01*
X-632930Y43563D01*
X-633463Y43563D01*
X-633996Y43785D01*
X-634263Y44229D01*
X-634263Y44674D01*
X-633996Y45118D01*
X-633463Y45340D01*
G54D11*
X-635263Y20229D02*
X-634996Y19785D01*
X-634463Y19563D01*
X-633930Y19563D01*
X-633396Y19785D01*
X-633130Y20229D01*
X-633130Y21340D01*
X-633130Y21563D01*
X-633930Y21118D01*
X-634463Y21118D01*
X-634996Y21340D01*
X-635263Y21785D01*
X-635263Y22452D01*
X-634996Y22896D01*
X-634463Y23118D01*
X-633930Y23118D01*
X-633396Y22896D01*
X-633130Y22452D01*
X-633130Y21340D01*
G54D11*
X-635763Y-3715D02*
X-634430Y-2382D01*
X-634430Y-5937D01*
G54D11*
X-631330Y-3048D02*
X-631330Y-5271D01*
X-631596Y-5715D01*
X-632130Y-5937D01*
X-632663Y-5937D01*
X-633196Y-5715D01*
X-633463Y-5271D01*
X-633463Y-3048D01*
X-633196Y-2604D01*
X-632663Y-2382D01*
X-632130Y-2382D01*
X-631596Y-2604D01*
X-631330Y-3048D01*
G54D11*
X-635263Y-29715D02*
X-633930Y-28382D01*
X-633930Y-31937D01*
G54D11*
X-632963Y-29715D02*
X-631630Y-28382D01*
X-631630Y-31937D01*
G54D11*
X-635763Y-54715D02*
X-634430Y-53382D01*
X-634430Y-56937D01*
G54D11*
X-631330Y-56937D02*
X-633463Y-56937D01*
X-633463Y-56715D01*
X-633196Y-56270D01*
X-631596Y-54937D01*
X-631330Y-54493D01*
X-631330Y-54048D01*
X-631596Y-53604D01*
X-632130Y-53382D01*
X-632663Y-53382D01*
X-633196Y-53604D01*
X-633463Y-54048D01*
G54D11*
X-636263Y-80215D02*
X-634930Y-78882D01*
X-634930Y-82437D01*
G54D11*
X-633963Y-79548D02*
X-633696Y-79104D01*
X-633163Y-78882D01*
X-632630Y-78882D01*
X-632096Y-79104D01*
X-631830Y-79548D01*
X-631830Y-79993D01*
X-632096Y-80437D01*
X-632630Y-80660D01*
X-632096Y-80882D01*
X-631830Y-81326D01*
X-631830Y-81770D01*
X-632096Y-82215D01*
X-632630Y-82437D01*
X-633163Y-82437D01*
X-633696Y-82215D01*
X-633963Y-81770D01*
G54D11*
X-635763Y-105215D02*
X-634430Y-103882D01*
X-634430Y-107437D01*
G54D11*
X-631863Y-107437D02*
X-631863Y-103882D01*
X-633463Y-106104D01*
X-633463Y-106548D01*
X-631330Y-106548D01*
G54D11*
X-570763Y-105215D02*
X-569430Y-103882D01*
X-569430Y-107437D01*
G54D11*
X-566330Y-103882D02*
X-568463Y-103882D01*
X-568463Y-105437D01*
X-568196Y-105437D01*
X-567663Y-105215D01*
X-567130Y-105215D01*
X-566596Y-105437D01*
X-566330Y-105882D01*
X-566330Y-106770D01*
X-566596Y-107215D01*
X-567130Y-107437D01*
X-567663Y-107437D01*
X-568196Y-107215D01*
X-568463Y-106770D01*
G54D11*
X-570763Y-80215D02*
X-569430Y-78882D01*
X-569430Y-82437D01*
G54D11*
X-566330Y-79548D02*
X-566596Y-79104D01*
X-567130Y-78882D01*
X-567663Y-78882D01*
X-568196Y-79104D01*
X-568463Y-79548D01*
X-568463Y-80660D01*
X-568463Y-80882D01*
X-567663Y-80437D01*
X-567130Y-80437D01*
X-566596Y-80660D01*
X-566330Y-81104D01*
X-566330Y-81770D01*
X-566596Y-82215D01*
X-567130Y-82437D01*
X-567663Y-82437D01*
X-568196Y-82215D01*
X-568463Y-81770D01*
X-568463Y-80660D01*
G54D11*
X-570263Y-55715D02*
X-568930Y-54382D01*
X-568930Y-57937D01*
G54D11*
X-567963Y-54382D02*
X-565830Y-54382D01*
X-566096Y-54826D01*
X-566630Y-55493D01*
X-567163Y-56382D01*
X-567430Y-57048D01*
X-567430Y-57937D01*
G54D11*
X-570763Y-30215D02*
X-569430Y-28882D01*
X-569430Y-32437D01*
G54D11*
X-567130Y-30660D02*
X-567663Y-30660D01*
X-568196Y-30437D01*
X-568463Y-29993D01*
X-568463Y-29548D01*
X-568196Y-29104D01*
X-567663Y-28882D01*
X-567130Y-28882D01*
X-566596Y-29104D01*
X-566330Y-29548D01*
X-566330Y-29993D01*
X-566596Y-30437D01*
X-567130Y-30660D01*
X-566596Y-30882D01*
X-566330Y-31326D01*
X-566330Y-31770D01*
X-566596Y-32215D01*
X-567130Y-32437D01*
X-567663Y-32437D01*
X-568196Y-32215D01*
X-568463Y-31770D01*
X-568463Y-31326D01*
X-568196Y-30882D01*
X-567663Y-30660D01*
G54D11*
X-570263Y-5715D02*
X-568930Y-4382D01*
X-568930Y-7937D01*
G54D11*
X-567963Y-7271D02*
X-567696Y-7715D01*
X-567163Y-7937D01*
X-566630Y-7937D01*
X-566096Y-7715D01*
X-565830Y-7271D01*
X-565830Y-6160D01*
X-565830Y-5937D01*
X-566630Y-6382D01*
X-567163Y-6382D01*
X-567696Y-6160D01*
X-567963Y-5715D01*
X-567963Y-5048D01*
X-567696Y-4604D01*
X-567163Y-4382D01*
X-566630Y-4382D01*
X-566096Y-4604D01*
X-565830Y-5048D01*
X-565830Y-6160D01*
G54D11*
X-569130Y19563D02*
X-571263Y19563D01*
X-571263Y19785D01*
X-570996Y20229D01*
X-569396Y21563D01*
X-569130Y22007D01*
X-569130Y22452D01*
X-569396Y22896D01*
X-569930Y23118D01*
X-570463Y23118D01*
X-570996Y22896D01*
X-571263Y22452D01*
G54D11*
X-566030Y22452D02*
X-566030Y20229D01*
X-566296Y19785D01*
X-566830Y19563D01*
X-567363Y19563D01*
X-567896Y19785D01*
X-568163Y20229D01*
X-568163Y22452D01*
X-567896Y22896D01*
X-567363Y23118D01*
X-566830Y23118D01*
X-566296Y22896D01*
X-566030Y22452D01*
G54D11*
X-568130Y45063D02*
X-570263Y45063D01*
X-570263Y45285D01*
X-569996Y45729D01*
X-568396Y47063D01*
X-568130Y47507D01*
X-568130Y47952D01*
X-568396Y48396D01*
X-568930Y48618D01*
X-569463Y48618D01*
X-569996Y48396D01*
X-570263Y47952D01*
G54D11*
X-567163Y47285D02*
X-565830Y48618D01*
X-565830Y45063D01*
G54D11*
X-570130Y70063D02*
X-572263Y70063D01*
X-572263Y70285D01*
X-571996Y70729D01*
X-570396Y72063D01*
X-570130Y72507D01*
X-570130Y72952D01*
X-570396Y73396D01*
X-570930Y73618D01*
X-571463Y73618D01*
X-571996Y73396D01*
X-572263Y72952D01*
G54D11*
X-567030Y70063D02*
X-569163Y70063D01*
X-569163Y70285D01*
X-568896Y70729D01*
X-567296Y72063D01*
X-567030Y72507D01*
X-567030Y72952D01*
X-567296Y73396D01*
X-567830Y73618D01*
X-568363Y73618D01*
X-568896Y73396D01*
X-569163Y72952D01*
G54D11*
X-569130Y95063D02*
X-571263Y95063D01*
X-571263Y95285D01*
X-570996Y95729D01*
X-569396Y97063D01*
X-569130Y97507D01*
X-569130Y97952D01*
X-569396Y98396D01*
X-569930Y98618D01*
X-570463Y98618D01*
X-570996Y98396D01*
X-571263Y97952D01*
G54D11*
X-568163Y97952D02*
X-567896Y98396D01*
X-567363Y98618D01*
X-566830Y98618D01*
X-566296Y98396D01*
X-566030Y97952D01*
X-566030Y97507D01*
X-566296Y97063D01*
X-566830Y96840D01*
X-566296Y96618D01*
X-566030Y96174D01*
X-566030Y95729D01*
X-566296Y95285D01*
X-566830Y95063D01*
X-567363Y95063D01*
X-567896Y95285D01*
X-568163Y95729D01*
G54D11*
X-568630Y120563D02*
X-570763Y120563D01*
X-570763Y120785D01*
X-570496Y121229D01*
X-568896Y122563D01*
X-568630Y123007D01*
X-568630Y123452D01*
X-568896Y123896D01*
X-569430Y124118D01*
X-569963Y124118D01*
X-570496Y123896D01*
X-570763Y123452D01*
G54D11*
X-566063Y120563D02*
X-566063Y124118D01*
X-567663Y121896D01*
X-567663Y121452D01*
X-565530Y121452D01*
G54D11*
X-569130Y146063D02*
X-571263Y146063D01*
X-571263Y146285D01*
X-570996Y146729D01*
X-569396Y148063D01*
X-569130Y148507D01*
X-569130Y148952D01*
X-569396Y149396D01*
X-569930Y149618D01*
X-570463Y149618D01*
X-570996Y149396D01*
X-571263Y148952D01*
G54D11*
X-566030Y149618D02*
X-568163Y149618D01*
X-568163Y148063D01*
X-567896Y148063D01*
X-567363Y148285D01*
X-566830Y148285D01*
X-566296Y148063D01*
X-566030Y147618D01*
X-566030Y146729D01*
X-566296Y146285D01*
X-566830Y146063D01*
X-567363Y146063D01*
X-567896Y146285D01*
X-568163Y146729D01*
G54D11*
X-569130Y170063D02*
X-571263Y170063D01*
X-571263Y170285D01*
X-570996Y170729D01*
X-569396Y172063D01*
X-569130Y172507D01*
X-569130Y172952D01*
X-569396Y173396D01*
X-569930Y173618D01*
X-570463Y173618D01*
X-570996Y173396D01*
X-571263Y172952D01*
G54D11*
X-566030Y172952D02*
X-566296Y173396D01*
X-566830Y173618D01*
X-567363Y173618D01*
X-567896Y173396D01*
X-568163Y172952D01*
X-568163Y171840D01*
X-568163Y171618D01*
X-567363Y172063D01*
X-566830Y172063D01*
X-566296Y171840D01*
X-566030Y171396D01*
X-566030Y170729D01*
X-566296Y170285D01*
X-566830Y170063D01*
X-567363Y170063D01*
X-567896Y170285D01*
X-568163Y170729D01*
X-568163Y171840D01*
G54D11*
X-569130Y196563D02*
X-571263Y196563D01*
X-571263Y196785D01*
X-570996Y197229D01*
X-569396Y198563D01*
X-569130Y199007D01*
X-569130Y199452D01*
X-569396Y199896D01*
X-569930Y200118D01*
X-570463Y200118D01*
X-570996Y199896D01*
X-571263Y199452D01*
G54D11*
X-568163Y200118D02*
X-566030Y200118D01*
X-566296Y199674D01*
X-566830Y199007D01*
X-567363Y198118D01*
X-567630Y197452D01*
X-567630Y196563D01*
G54D11*
X-569130Y223063D02*
X-571263Y223063D01*
X-571263Y223285D01*
X-570996Y223729D01*
X-569396Y225063D01*
X-569130Y225507D01*
X-569130Y225952D01*
X-569396Y226396D01*
X-569930Y226618D01*
X-570463Y226618D01*
X-570996Y226396D01*
X-571263Y225952D01*
G54D11*
X-566830Y224840D02*
X-567363Y224840D01*
X-567896Y225063D01*
X-568163Y225507D01*
X-568163Y225952D01*
X-567896Y226396D01*
X-567363Y226618D01*
X-566830Y226618D01*
X-566296Y226396D01*
X-566030Y225952D01*
X-566030Y225507D01*
X-566296Y225063D01*
X-566830Y224840D01*
X-566296Y224618D01*
X-566030Y224174D01*
X-566030Y223729D01*
X-566296Y223285D01*
X-566830Y223063D01*
X-567363Y223063D01*
X-567896Y223285D01*
X-568163Y223729D01*
X-568163Y224174D01*
X-567896Y224618D01*
X-567363Y224840D01*
G54D13*
X-630813Y-39537D02*
X-628813Y-34204D01*
X-626813Y-39537D01*
G54D13*
X-630013Y-37537D02*
X-627613Y-37537D01*
G54D13*
X-623713Y-39537D02*
X-623713Y-34204D01*
G54D13*
X-625313Y-34204D02*
X-622113Y-34204D01*
G54D13*
X-620613Y-39537D02*
X-620613Y-34204D01*
X-618613Y-37537D01*
X-616613Y-34204D01*
X-616613Y-39537D01*
G54D13*
X-612713Y-39204D02*
X-613353Y-39537D01*
X-614153Y-39537D01*
X-614953Y-39204D01*
X-615113Y-38537D01*
X-615113Y-37404D01*
X-614713Y-36737D01*
X-613913Y-36537D01*
X-613113Y-36737D01*
X-612713Y-37204D01*
X-612713Y-37870D01*
X-615113Y-37870D01*
G54D13*
X-611213Y-40537D02*
X-610413Y-40870D01*
X-609853Y-40870D01*
X-609053Y-40537D01*
X-608813Y-39870D01*
X-608813Y-36537D01*
G54D13*
X-608813Y-37404D02*
X-609213Y-36737D01*
X-610013Y-36537D01*
X-610813Y-36737D01*
X-611213Y-37404D01*
X-611213Y-38737D01*
X-610813Y-39404D01*
X-610013Y-39537D01*
X-609213Y-39404D01*
X-608813Y-38737D01*
G54D13*
X-607313Y-36870D02*
X-606513Y-36537D01*
X-605553Y-36537D01*
X-604913Y-37204D01*
X-604913Y-39537D01*
G54D13*
X-604913Y-38537D02*
X-605313Y-37870D01*
X-606113Y-37737D01*
X-606913Y-37870D01*
X-607313Y-38537D01*
X-607153Y-39204D01*
X-606513Y-39537D01*
X-606113Y-39537D01*
X-605953Y-39537D01*
X-605313Y-39204D01*
X-604913Y-38537D01*
G54D13*
X-603413Y-35204D02*
X-603013Y-34537D01*
X-602213Y-34204D01*
X-601413Y-34204D01*
X-600613Y-34537D01*
X-600213Y-35204D01*
X-600213Y-35870D01*
X-600613Y-36537D01*
X-601413Y-36870D01*
X-600613Y-37204D01*
X-600213Y-37870D01*
X-600213Y-38537D01*
X-600613Y-39204D01*
X-601413Y-39537D01*
X-602213Y-39537D01*
X-603013Y-39204D01*
X-603413Y-38537D01*
G54D13*
X-595513Y-39537D02*
X-598713Y-39537D01*
X-598713Y-39204D01*
X-598313Y-38537D01*
X-595913Y-36537D01*
X-595513Y-35870D01*
X-595513Y-35204D01*
X-595913Y-34537D01*
X-596713Y-34204D01*
X-597513Y-34204D01*
X-598313Y-34537D01*
X-598713Y-35204D01*
G54D13*
X-592013Y-36870D02*
X-592813Y-36870D01*
X-593613Y-36537D01*
X-594013Y-35870D01*
X-594013Y-35204D01*
X-593613Y-34537D01*
X-592813Y-34204D01*
X-592013Y-34204D01*
X-591213Y-34537D01*
X-590813Y-35204D01*
X-590813Y-35870D01*
X-591213Y-36537D01*
X-592013Y-36870D01*
X-591213Y-37204D01*
X-590813Y-37870D01*
X-590813Y-38537D01*
X-591213Y-39204D01*
X-592013Y-39537D01*
X-592813Y-39537D01*
X-593613Y-39204D01*
X-594013Y-38537D01*
X-594013Y-37870D01*
X-593613Y-37204D01*
X-592813Y-36870D01*
G54D13*
X-589313Y-39537D02*
X-589313Y-34204D01*
X-587313Y-34204D01*
X-586513Y-34537D01*
X-586113Y-35204D01*
X-586113Y-35870D01*
X-586513Y-36537D01*
X-587313Y-36870D01*
X-589313Y-36870D01*
G54D13*
X-584613Y-37204D02*
X-581413Y-37204D01*
G54D13*
X-576713Y-39537D02*
X-579913Y-39537D01*
X-579913Y-39204D01*
X-579513Y-38537D01*
X-577113Y-36537D01*
X-576713Y-35870D01*
X-576713Y-35204D01*
X-577113Y-34537D01*
X-577913Y-34204D01*
X-578713Y-34204D01*
X-579513Y-34537D01*
X-579913Y-35204D01*
G54D13*
X-572013Y-35204D02*
X-572013Y-38537D01*
X-572413Y-39204D01*
X-573213Y-39537D01*
X-574013Y-39537D01*
X-574813Y-39204D01*
X-575213Y-38537D01*
X-575213Y-35204D01*
X-574813Y-34537D01*
X-574013Y-34204D01*
X-573213Y-34204D01*
X-572413Y-34537D01*
X-572013Y-35204D01*
G54D13*
X-570513Y-39537D02*
X-570513Y-34204D01*
X-568513Y-34204D01*
X-567713Y-34537D01*
X-567313Y-35204D01*
X-567313Y-35870D01*
X-567713Y-36537D01*
X-568513Y-36870D01*
X-570513Y-36870D01*
G54D13*
X-565813Y-34204D02*
X-565813Y-38537D01*
X-565413Y-39204D01*
X-564613Y-39537D01*
X-563813Y-39537D01*
X-563013Y-39204D01*
X-562613Y-38537D01*
X-562613Y-34204D01*
G54D14*
X-602663Y-46337D02*
X-602663Y-41893D01*
X-600996Y-41893D01*
X-600330Y-42170D01*
X-599996Y-42726D01*
X-599996Y-43282D01*
X-600330Y-43837D01*
X-600996Y-44115D01*
X-602663Y-44115D01*
G54D14*
X-598763Y-46337D02*
X-598763Y-41893D01*
X-597096Y-41893D01*
X-596430Y-42170D01*
X-596096Y-42726D01*
X-596096Y-45504D01*
X-596430Y-46060D01*
X-597096Y-46337D01*
X-598763Y-46337D01*
G54D14*
X-594863Y-46337D02*
X-594863Y-41893D01*
G54D14*
X-593663Y-46337D02*
X-593663Y-41893D01*
X-591996Y-41893D01*
X-591330Y-42170D01*
X-590996Y-42726D01*
X-590996Y-43282D01*
X-591330Y-43837D01*
X-591996Y-44115D01*
X-593663Y-44115D01*
G54D14*
X-589763Y-44393D02*
X-587096Y-44393D01*
G54D14*
X-583196Y-46337D02*
X-585863Y-46337D01*
X-585863Y-46060D01*
X-585530Y-45504D01*
X-583530Y-43837D01*
X-583196Y-43282D01*
X-583196Y-42726D01*
X-583530Y-42170D01*
X-584196Y-41893D01*
X-584863Y-41893D01*
X-585530Y-42170D01*
X-585863Y-42726D01*
G54D14*
X-580296Y-44115D02*
X-580963Y-44115D01*
X-581630Y-43837D01*
X-581963Y-43282D01*
X-581963Y-42726D01*
X-581630Y-42170D01*
X-580963Y-41893D01*
X-580296Y-41893D01*
X-579630Y-42170D01*
X-579296Y-42726D01*
X-579296Y-43282D01*
X-579630Y-43837D01*
X-580296Y-44115D01*
X-579630Y-44393D01*
X-579296Y-44948D01*
X-579296Y-45504D01*
X-579630Y-46060D01*
X-580296Y-46337D01*
X-580963Y-46337D01*
X-581630Y-46060D01*
X-581963Y-45504D01*
X-581963Y-44948D01*
X-581630Y-44393D01*
X-580963Y-44115D01*
G54D15*
X-605213Y-67170D02*
X-604213Y-66170D01*
X-604213Y-68837D01*
G54D15*
X-603513Y-68837D02*
X-603513Y-66170D01*
G54D15*
X-603513Y-68004D02*
X-601913Y-66170D01*
G54D15*
X-602913Y-67504D02*
X-601913Y-68837D01*
G54D15*
X-600513Y-68837D02*
X-600513Y-66170D01*
X-599513Y-66170D01*
X-599113Y-66337D01*
X-598913Y-66670D01*
X-598913Y-67004D01*
X-599113Y-67337D01*
X-599513Y-67504D01*
X-599113Y-67670D01*
X-598913Y-68004D01*
X-598913Y-68337D01*
X-599113Y-68670D01*
X-599513Y-68837D01*
X-600513Y-68837D01*
G54D15*
X-600513Y-67504D02*
X-599513Y-67504D01*
G54D15*
X-598213Y-67337D02*
X-597413Y-68837D01*
X-596613Y-67337D01*
G54D15*
X-597413Y-68837D02*
X-597613Y-69337D01*
X-597813Y-69504D01*
X-598013Y-69504D01*
G54D15*
X-595513Y-66170D02*
X-595513Y-68670D01*
X-595313Y-68837D01*
X-595113Y-68770D01*
G54D15*
X-595913Y-67337D02*
X-595113Y-67337D01*
G54D15*
X-593213Y-68670D02*
X-593533Y-68837D01*
X-593933Y-68837D01*
X-594333Y-68670D01*
X-594413Y-68337D01*
X-594413Y-67770D01*
X-594213Y-67437D01*
X-593813Y-67337D01*
X-593413Y-67437D01*
X-593213Y-67670D01*
X-593213Y-68004D01*
X-594413Y-68004D01*
G54D15*
X-592513Y-68670D02*
X-592113Y-68837D01*
X-591713Y-68837D01*
X-591313Y-68670D01*
X-591313Y-68337D01*
X-591513Y-68170D01*
X-592313Y-68004D01*
X-592513Y-67837D01*
X-592513Y-67504D01*
X-592113Y-67337D01*
X-591713Y-67337D01*
X-591313Y-67504D01*
G54D15*
X-588513Y-68837D02*
X-589913Y-68837D01*
X-589913Y-66170D01*
X-588513Y-66170D01*
G54D15*
X-589913Y-67504D02*
X-588513Y-67504D01*
G54D15*
X-586413Y-68837D02*
X-587813Y-68837D01*
X-587813Y-66170D01*
X-586413Y-66170D01*
G54D15*
X-587813Y-67504D02*
X-586413Y-67504D01*
G54D15*
X-585713Y-68837D02*
X-585713Y-66170D01*
X-584713Y-66170D01*
X-584313Y-66337D01*
X-584113Y-66670D01*
X-584113Y-67004D01*
X-584313Y-67337D01*
X-584713Y-67504D01*
X-585713Y-67504D01*
G54D15*
X-582613Y-67504D02*
X-582013Y-67837D01*
X-581813Y-68170D01*
X-581813Y-68837D01*
G54D15*
X-583413Y-68837D02*
X-583413Y-66170D01*
X-582413Y-66170D01*
X-582013Y-66337D01*
X-581813Y-66670D01*
X-581813Y-67004D01*
X-582013Y-67337D01*
X-582413Y-67504D01*
X-583413Y-67504D01*
G54D15*
X-579513Y-66670D02*
X-579513Y-68337D01*
X-579713Y-68670D01*
X-580113Y-68837D01*
X-580513Y-68837D01*
X-580913Y-68670D01*
X-581113Y-68337D01*
X-581113Y-66670D01*
X-580913Y-66337D01*
X-580513Y-66170D01*
X-580113Y-66170D01*
X-579713Y-66337D01*
X-579513Y-66670D01*
G54D15*
X-578813Y-68837D02*
X-578813Y-66170D01*
X-577813Y-67837D01*
X-576813Y-66170D01*
X-576813Y-68837D01*
G54D15*
X-608013Y-72837D02*
X-609613Y-72837D01*
X-609613Y-72670D01*
X-609413Y-72337D01*
X-608213Y-71337D01*
X-608013Y-71004D01*
X-608013Y-70670D01*
X-608213Y-70337D01*
X-608613Y-70170D01*
X-609013Y-70170D01*
X-609413Y-70337D01*
X-609613Y-70670D01*
G54D15*
X-607313Y-72837D02*
X-607313Y-70170D01*
G54D15*
X-607313Y-72004D02*
X-605713Y-70170D01*
G54D15*
X-606713Y-71504D02*
X-605713Y-72837D01*
G54D15*
X-604313Y-72837D02*
X-604313Y-70170D01*
X-603313Y-70170D01*
X-602913Y-70337D01*
X-602713Y-70670D01*
X-602713Y-71004D01*
X-602913Y-71337D01*
X-603313Y-71504D01*
X-602913Y-71670D01*
X-602713Y-72004D01*
X-602713Y-72337D01*
X-602913Y-72670D01*
X-603313Y-72837D01*
X-604313Y-72837D01*
G54D15*
X-604313Y-71504D02*
X-603313Y-71504D01*
G54D15*
X-602013Y-71337D02*
X-601213Y-72837D01*
X-600413Y-71337D01*
G54D15*
X-601213Y-72837D02*
X-601413Y-73337D01*
X-601613Y-73504D01*
X-601813Y-73504D01*
G54D15*
X-599313Y-70170D02*
X-599313Y-72670D01*
X-599113Y-72837D01*
X-598913Y-72770D01*
G54D15*
X-599713Y-71337D02*
X-598913Y-71337D01*
G54D15*
X-597013Y-72670D02*
X-597333Y-72837D01*
X-597733Y-72837D01*
X-598133Y-72670D01*
X-598213Y-72337D01*
X-598213Y-71770D01*
X-598013Y-71437D01*
X-597613Y-71337D01*
X-597213Y-71437D01*
X-597013Y-71670D01*
X-597013Y-72004D01*
X-598213Y-72004D01*
G54D15*
X-596313Y-72670D02*
X-595913Y-72837D01*
X-595513Y-72837D01*
X-595113Y-72670D01*
X-595113Y-72337D01*
X-595313Y-72170D01*
X-596113Y-72004D01*
X-596313Y-71837D01*
X-596313Y-71504D01*
X-595913Y-71337D01*
X-595513Y-71337D01*
X-595113Y-71504D01*
G54D15*
X-593713Y-72837D02*
X-593713Y-70170D01*
G54D15*
X-593013Y-72837D02*
X-593013Y-71337D01*
G54D15*
X-593013Y-71670D02*
X-592813Y-71437D01*
X-592413Y-71337D01*
X-592013Y-71437D01*
X-591813Y-71670D01*
X-591813Y-72837D01*
G54D15*
X-590713Y-70170D02*
X-590713Y-72670D01*
X-590513Y-72837D01*
X-590313Y-72770D01*
G54D15*
X-591113Y-71337D02*
X-590313Y-71337D01*
G54D15*
X-588413Y-72670D02*
X-588733Y-72837D01*
X-589133Y-72837D01*
X-589533Y-72670D01*
X-589613Y-72337D01*
X-589613Y-71770D01*
X-589413Y-71437D01*
X-589013Y-71337D01*
X-588613Y-71437D01*
X-588413Y-71670D01*
X-588413Y-72004D01*
X-589613Y-72004D01*
G54D15*
X-587713Y-72837D02*
X-587713Y-71337D01*
G54D15*
X-587713Y-71670D02*
X-587313Y-71337D01*
X-586913Y-71337D01*
G54D15*
X-586213Y-72837D02*
X-586213Y-71337D01*
G54D15*
X-586213Y-71670D02*
X-586013Y-71437D01*
X-585613Y-71337D01*
X-585213Y-71437D01*
X-585013Y-71670D01*
X-585013Y-72837D01*
G54D15*
X-584313Y-71504D02*
X-583913Y-71337D01*
X-583433Y-71337D01*
X-583113Y-71670D01*
X-583113Y-72837D01*
G54D15*
X-583113Y-72337D02*
X-583313Y-72004D01*
X-583713Y-71937D01*
X-584113Y-72004D01*
X-584313Y-72337D01*
X-584233Y-72670D01*
X-583913Y-72837D01*
X-583713Y-72837D01*
X-583633Y-72837D01*
X-583313Y-72670D01*
X-583113Y-72337D01*
G54D15*
X-582413Y-72837D02*
X-582413Y-70170D01*
G54D15*
X-581013Y-72337D02*
X-580813Y-72670D01*
X-580413Y-72837D01*
X-580013Y-72837D01*
X-579613Y-72670D01*
X-579413Y-72337D01*
X-579413Y-72004D01*
X-579613Y-71670D01*
X-580013Y-71504D01*
X-580413Y-71504D01*
X-580813Y-71337D01*
X-581013Y-71004D01*
X-581013Y-70670D01*
X-580813Y-70337D01*
X-580413Y-70170D01*
X-580013Y-70170D01*
X-579613Y-70337D01*
X-579413Y-70670D01*
G54D15*
X-577913Y-71504D02*
X-577313Y-71837D01*
X-577113Y-72170D01*
X-577113Y-72837D01*
G54D15*
X-578713Y-72837D02*
X-578713Y-70170D01*
X-577713Y-70170D01*
X-577313Y-70337D01*
X-577113Y-70670D01*
X-577113Y-71004D01*
X-577313Y-71337D01*
X-577713Y-71504D01*
X-578713Y-71504D01*
G54D15*
X-576413Y-72837D02*
X-575413Y-70170D01*
X-574413Y-72837D01*
G54D15*
X-576013Y-71837D02*
X-574813Y-71837D01*
G54D15*
X-573713Y-72837D02*
X-573713Y-70170D01*
X-572713Y-71837D01*
X-571713Y-70170D01*
X-571713Y-72837D01*
G54D10*
X-639794Y227056D02*
X-637794Y227056D01*
X-637794Y221056D01*
X-639794Y221056D01*
X-639794Y227056D01*
G54D10*
X-639794Y201656D02*
X-637794Y201656D01*
X-637794Y195656D01*
X-639794Y195656D01*
X-639794Y201656D01*
G54D10*
X-639794Y176256D02*
X-637794Y176256D01*
X-637794Y170256D01*
X-639794Y170256D01*
X-639794Y176256D01*
G54D10*
X-639794Y150856D02*
X-637794Y150856D01*
X-637794Y144856D01*
X-639794Y144856D01*
X-639794Y150856D01*
G54D10*
X-639794Y125456D02*
X-637794Y125456D01*
X-637794Y119456D01*
X-639794Y119456D01*
X-639794Y125456D01*
G54D10*
X-639794Y100056D02*
X-637794Y100056D01*
X-637794Y94056D01*
X-639794Y94056D01*
X-639794Y100056D01*
G54D10*
X-639794Y74656D02*
X-637794Y74656D01*
X-637794Y68656D01*
X-639794Y68656D01*
X-639794Y74656D01*
G54D10*
X-639794Y49256D02*
X-637794Y49256D01*
X-637794Y43256D01*
X-639794Y43256D01*
X-639794Y49256D01*
G54D10*
X-639794Y23856D02*
X-637794Y23856D01*
X-637794Y17856D01*
X-639794Y17856D01*
X-639794Y23856D01*
G54D10*
X-639794Y-1544D02*
X-637794Y-1544D01*
X-637794Y-7544D01*
X-639794Y-7544D01*
X-639794Y-1544D01*
G54D10*
X-639794Y-26944D02*
X-637794Y-26944D01*
X-637794Y-32944D01*
X-639794Y-32944D01*
X-639794Y-26944D01*
G54D10*
X-639794Y-52344D02*
X-637794Y-52344D01*
X-637794Y-58344D01*
X-639794Y-58344D01*
X-639794Y-52344D01*
G54D10*
X-639794Y-77744D02*
X-637794Y-77744D01*
X-637794Y-83744D01*
X-639794Y-83744D01*
X-639794Y-77744D01*
G54D10*
X-639794Y-103144D02*
X-637794Y-103144D01*
X-637794Y-109144D01*
X-639794Y-109144D01*
X-639794Y-103144D01*
G54D10*
X-563594Y227056D02*
X-561594Y227056D01*
X-561594Y221056D01*
X-563594Y221056D01*
X-563594Y227056D01*
G54D10*
X-563594Y201656D02*
X-561594Y201656D01*
X-561594Y195656D01*
X-563594Y195656D01*
X-563594Y201656D01*
G54D10*
X-563594Y176256D02*
X-561594Y176256D01*
X-561594Y170256D01*
X-563594Y170256D01*
X-563594Y176256D01*
G54D10*
X-563594Y150856D02*
X-561594Y150856D01*
X-561594Y144856D01*
X-563594Y144856D01*
X-563594Y150856D01*
G54D10*
X-563594Y125456D02*
X-561594Y125456D01*
X-561594Y119456D01*
X-563594Y119456D01*
X-563594Y125456D01*
G54D10*
X-563594Y100056D02*
X-561594Y100056D01*
X-561594Y94056D01*
X-563594Y94056D01*
X-563594Y100056D01*
G54D10*
X-563594Y74656D02*
X-561594Y74656D01*
X-561594Y68656D01*
X-563594Y68656D01*
X-563594Y74656D01*
G54D10*
X-563594Y49256D02*
X-561594Y49256D01*
X-561594Y43256D01*
X-563594Y43256D01*
X-563594Y49256D01*
G54D10*
X-563594Y23856D02*
X-561594Y23856D01*
X-561594Y17856D01*
X-563594Y17856D01*
X-563594Y23856D01*
G54D10*
X-563594Y-1544D02*
X-561594Y-1544D01*
X-561594Y-7544D01*
X-563594Y-7544D01*
X-563594Y-1544D01*
G54D10*
X-563594Y-26944D02*
X-561594Y-26944D01*
X-561594Y-32944D01*
X-563594Y-32944D01*
X-563594Y-26944D01*
G54D10*
X-563594Y-52344D02*
X-561594Y-52344D01*
X-561594Y-58344D01*
X-563594Y-58344D01*
X-563594Y-52344D01*
G54D10*
X-563594Y-77744D02*
X-561594Y-77744D01*
X-561594Y-83744D01*
X-563594Y-83744D01*
X-563594Y-77744D01*
G54D10*
X-563594Y-103144D02*
X-561594Y-103144D01*
X-561594Y-109144D01*
X-563594Y-109144D01*
X-563594Y-103144D01*
G54D10*
X-586513Y238181D02*
X-586513Y-120619D01*
G54D10*
X-615088Y-120619D02*
X-615088Y238181D01*
G54D10*
X-651700Y238181D02*
X-550100Y238181D01*
X-550100Y-120619D01*
X-651700Y-120619D01*
X-651700Y238181D01*
G54D10*
X-615188Y-90444D02*
X-586613Y-90444D01*
G54D10*
X-615188Y68306D02*
X-586613Y68306D01*
G54D10*
X-615132Y49281D02*
X-586556Y49281D01*
G54D10*
X-615132Y208825D02*
X-586556Y208825D01*
G54D10*
X-610369Y238194D02*
X-610369Y231050D01*
X-591319Y231050D01*
X-591319Y238194D01*
G54D14*
X-599532Y-96225D02*
X-599532Y-91780D01*
X-597865Y-91780D01*
X-597198Y-92058D01*
X-596865Y-92614D01*
X-596865Y-93169D01*
X-597198Y-93725D01*
X-597865Y-94003D01*
X-599532Y-94003D01*
G54D14*
X-595632Y-96225D02*
X-595632Y-91780D01*
X-593965Y-91780D01*
X-593298Y-92058D01*
X-592965Y-92614D01*
X-592965Y-95392D01*
X-593298Y-95947D01*
X-593965Y-96225D01*
X-595632Y-96225D01*
G54D14*
X-591732Y-96225D02*
X-591732Y-91780D01*
G54D14*
X-590532Y-96225D02*
X-590532Y-91780D01*
X-588865Y-91780D01*
X-588198Y-92058D01*
X-587865Y-92614D01*
X-587865Y-93169D01*
X-588198Y-93725D01*
X-588865Y-94003D01*
X-590532Y-94003D01*
G54D14*
X-586632Y-94280D02*
X-583965Y-94280D01*
G54D14*
X-580065Y-96225D02*
X-582732Y-96225D01*
X-582732Y-95947D01*
X-582398Y-95392D01*
X-580398Y-93725D01*
X-580065Y-93169D01*
X-580065Y-92614D01*
X-580398Y-92058D01*
X-581065Y-91780D01*
X-581732Y-91780D01*
X-582398Y-92058D01*
X-582732Y-92614D01*
G54D14*
X-577165Y-94003D02*
X-577832Y-94003D01*
X-578498Y-93725D01*
X-578832Y-93169D01*
X-578832Y-92614D01*
X-578498Y-92058D01*
X-577832Y-91780D01*
X-577165Y-91780D01*
X-576498Y-92058D01*
X-576165Y-92614D01*
X-576165Y-93169D01*
X-576498Y-93725D01*
X-577165Y-94003D01*
X-576498Y-94280D01*
X-576165Y-94836D01*
X-576165Y-95392D01*
X-576498Y-95947D01*
X-577165Y-96225D01*
X-577832Y-96225D01*
X-578498Y-95947D01*
X-578832Y-95392D01*
X-578832Y-94836D01*
X-578498Y-94280D01*
X-577832Y-94003D01*
G54D13*
X-599719Y-82606D02*
X-599319Y-83273D01*
X-598519Y-83606D01*
X-597719Y-83606D01*
X-596919Y-83273D01*
X-596519Y-82606D01*
X-596519Y-81939D01*
X-596919Y-81273D01*
X-597719Y-80939D01*
X-598519Y-80939D01*
X-599319Y-80606D01*
X-599719Y-79939D01*
X-599719Y-79273D01*
X-599319Y-78606D01*
X-598519Y-78273D01*
X-597719Y-78273D01*
X-596919Y-78606D01*
X-596519Y-79273D01*
G54D13*
X-591819Y-82606D02*
X-592219Y-83273D01*
X-593019Y-83606D01*
X-593819Y-83606D01*
X-594619Y-83273D01*
X-595019Y-82606D01*
X-595019Y-79273D01*
X-594619Y-78606D01*
X-593819Y-78273D01*
X-593019Y-78273D01*
X-592219Y-78606D01*
X-591819Y-79273D01*
G54D13*
X-590319Y-82606D02*
X-589919Y-83273D01*
X-589119Y-83606D01*
X-588319Y-83606D01*
X-587519Y-83273D01*
X-587119Y-82606D01*
X-587119Y-81939D01*
X-587519Y-81273D01*
X-588319Y-80939D01*
X-589119Y-80939D01*
X-589919Y-80606D01*
X-590319Y-79939D01*
X-590319Y-79273D01*
X-589919Y-78606D01*
X-589119Y-78273D01*
X-588319Y-78273D01*
X-587519Y-78606D01*
X-587119Y-79273D01*
G54D13*
X-585619Y-81273D02*
X-582419Y-81273D01*
G54D13*
X-577719Y-83606D02*
X-580919Y-83606D01*
X-580919Y-83273D01*
X-580519Y-82606D01*
X-578119Y-80606D01*
X-577719Y-79939D01*
X-577719Y-79273D01*
X-578119Y-78606D01*
X-578919Y-78273D01*
X-579719Y-78273D01*
X-580519Y-78606D01*
X-580919Y-79273D01*
G54D13*
X-574219Y-80939D02*
X-575019Y-80939D01*
X-575819Y-80606D01*
X-576219Y-79939D01*
X-576219Y-79273D01*
X-575819Y-78606D01*
X-575019Y-78273D01*
X-574219Y-78273D01*
X-573419Y-78606D01*
X-573019Y-79273D01*
X-573019Y-79939D01*
X-573419Y-80606D01*
X-574219Y-80939D01*
X-573419Y-81273D01*
X-573019Y-81939D01*
X-573019Y-82606D01*
X-573419Y-83273D01*
X-574219Y-83606D01*
X-575019Y-83606D01*
X-575819Y-83273D01*
X-576219Y-82606D01*
X-576219Y-81939D01*
X-575819Y-81273D01*
X-575019Y-80939D01*
G54D10*
X-586656Y216769D02*
X-599344Y216769D01*
X-599344Y208769D01*
X-586656Y208769D01*
G54D10*
X-588238Y-90500D02*
X-599338Y-90500D01*
X-599338Y-98500D01*
X-586650Y-98500D01*
G54D16*
X-739775Y298053D02*
X-739775Y323453D01*
X-485775Y323453D01*
X-485775Y298053D01*
X-739775Y298053D01*
G54D17*
X-615950Y187722D02*
X-615950Y205500D01*
G54D17*
X-599062Y191055D02*
X-600395Y188833D01*
X-603062Y187722D01*
X-605728Y187722D01*
X-608395Y188833D01*
X-609728Y191055D01*
X-609728Y202166D01*
X-608395Y204389D01*
X-605728Y205500D01*
X-603062Y205500D01*
X-600395Y204389D01*
X-599062Y202166D01*
G54D17*
X-592839Y198833D02*
X-586173Y205500D01*
X-586173Y187722D01*
G54D18*
X-735410Y284543D02*
X-734610Y283209D01*
X-733010Y282543D01*
X-731410Y282543D01*
X-729810Y283209D01*
X-729010Y284543D01*
X-729010Y287876D01*
X-729010Y288543D01*
X-731410Y287209D01*
X-733010Y287209D01*
X-734610Y287876D01*
X-735410Y289209D01*
X-735410Y291209D01*
X-734610Y292543D01*
X-733010Y293209D01*
X-731410Y293209D01*
X-729810Y292543D01*
X-729010Y291209D01*
X-729010Y287876D01*
G54D18*
X-725277Y293209D02*
X-721277Y282543D01*
X-717277Y293209D01*
G54D18*
X-703804Y290009D02*
X-703804Y286809D01*
X-707137Y286809D01*
X-708471Y287609D01*
X-709137Y289209D01*
X-709137Y290809D01*
X-708471Y292409D01*
X-707137Y293209D01*
X-700471Y293209D01*
X-699137Y292409D01*
X-698471Y290809D01*
X-698471Y289209D01*
X-699137Y287609D01*
X-700471Y286809D01*
G54D18*
X-709137Y283076D02*
X-698471Y283076D01*
X-709137Y276676D01*
X-698471Y276676D01*
G54D18*
X-709137Y272943D02*
X-698471Y272943D01*
X-698471Y268943D01*
X-699137Y267343D01*
X-700471Y266543D01*
X-707137Y266543D01*
X-708471Y267343D01*
X-709137Y268943D01*
X-709137Y272943D01*
G54D18*
X-675035Y293209D02*
X-681435Y293209D01*
X-681435Y288543D01*
X-680635Y288543D01*
X-679035Y289209D01*
X-677435Y289209D01*
X-675835Y288543D01*
X-675035Y287209D01*
X-675035Y284543D01*
X-675835Y283209D01*
X-677435Y282543D01*
X-679035Y282543D01*
X-680635Y283209D01*
X-681435Y284543D01*
G54D18*
X-671302Y293209D02*
X-667302Y282543D01*
X-663302Y293209D01*
G54D18*
X-652066Y289242D02*
X-648066Y293242D01*
X-648066Y282575D01*
G54D18*
X-623838Y282542D02*
X-630238Y282542D01*
X-630238Y283209D01*
X-629438Y284542D01*
X-624638Y288542D01*
X-623838Y289876D01*
X-623838Y291209D01*
X-624638Y292542D01*
X-626238Y293209D01*
X-627838Y293209D01*
X-629438Y292542D01*
X-630238Y291209D01*
G54D18*
X-602060Y291210D02*
X-601260Y292543D01*
X-599660Y293210D01*
X-598060Y293210D01*
X-596460Y292543D01*
X-595660Y291210D01*
X-595660Y289876D01*
X-596460Y288543D01*
X-598060Y287876D01*
X-596460Y287210D01*
X-595660Y285876D01*
X-595660Y284543D01*
X-596460Y283210D01*
X-598060Y282543D01*
X-599660Y282543D01*
X-601260Y283210D01*
X-602060Y284543D01*
G54D18*
X-573447Y282547D02*
X-573447Y293214D01*
X-578247Y286547D01*
X-578247Y285214D01*
X-571847Y285214D01*
G54D18*
X-545653Y293209D02*
X-552053Y293209D01*
X-552053Y288543D01*
X-551253Y288543D01*
X-549653Y289209D01*
X-548053Y289209D01*
X-546453Y288543D01*
X-545653Y287209D01*
X-545653Y284543D01*
X-546453Y283209D01*
X-548053Y282543D01*
X-549653Y282543D01*
X-551253Y283209D01*
X-552053Y284543D01*
G54D18*
X-529035Y282543D02*
X-529035Y293209D01*
G54D18*
X-522102Y287876D02*
X-519702Y286543D01*
X-518902Y285209D01*
X-518902Y282543D01*
G54D18*
X-525302Y282543D02*
X-525302Y293209D01*
X-521302Y293209D01*
X-519702Y292543D01*
X-518902Y291209D01*
X-518902Y289876D01*
X-519702Y288543D01*
X-521302Y287876D01*
X-525302Y287876D01*
G54D16*
X-509191Y185781D02*
X-509191Y211181D01*
X-483791Y211181D01*
X-483791Y185781D01*
X-509191Y185781D01*
G54D19*
X-537634Y-355630D02*
X-531334Y-349330D01*
X-531334Y-336530D01*
X-537634Y-330230D01*
X-550434Y-330230D01*
X-556734Y-336530D01*
X-556734Y-349330D01*
X-550434Y-355630D01*
X-537634Y-355630D01*
G54D19*
X-537634Y-330230D02*
X-531334Y-323930D01*
X-531334Y-311130D01*
X-537634Y-304830D01*
X-550434Y-304830D01*
X-556734Y-311130D01*
X-556734Y-323930D01*
X-550434Y-330230D01*
X-537634Y-330230D01*
G54D19*
X-537634Y-304830D02*
X-531334Y-298530D01*
X-531334Y-285730D01*
X-537634Y-279430D01*
X-550434Y-279430D01*
X-556734Y-285730D01*
X-556734Y-298530D01*
X-550434Y-304830D01*
X-537634Y-304830D01*
G54D19*
X-537634Y-279430D02*
X-531334Y-273130D01*
X-531334Y-260330D01*
X-537634Y-254030D01*
X-550434Y-254030D01*
X-556734Y-260330D01*
X-556734Y-273130D01*
X-550434Y-279430D01*
X-537634Y-279430D01*
G54D19*
X-537634Y-254030D02*
X-531334Y-247730D01*
X-531334Y-234930D01*
X-537634Y-228630D01*
X-550434Y-228630D01*
X-556734Y-234930D01*
X-556734Y-247730D01*
X-550434Y-254030D01*
X-537634Y-254030D01*
G54D19*
X-537634Y-228630D02*
X-531334Y-222330D01*
X-531334Y-209530D01*
X-537634Y-203230D01*
X-550434Y-203230D01*
X-556734Y-209530D01*
X-556734Y-222330D01*
X-550434Y-228630D01*
X-537634Y-228630D01*
G54D19*
X-537634Y-203230D02*
X-531334Y-196930D01*
X-531334Y-184130D01*
X-537634Y-177830D01*
X-550434Y-177830D01*
X-556734Y-184130D01*
X-556734Y-196930D01*
X-550434Y-203230D01*
X-537634Y-203230D01*
G54D19*
X-537634Y-177830D02*
X-531334Y-171530D01*
X-531334Y-158730D01*
X-537634Y-152430D01*
X-550434Y-152430D01*
X-556734Y-158730D01*
X-556734Y-171530D01*
X-550434Y-177830D01*
X-537634Y-177830D01*
G54D19*
X-690028Y-355599D02*
X-683728Y-349299D01*
X-683728Y-336499D01*
X-690028Y-330199D01*
X-702828Y-330199D01*
X-709128Y-336499D01*
X-709128Y-349299D01*
X-702828Y-355599D01*
X-690028Y-355599D01*
G54D19*
X-690028Y-330199D02*
X-683728Y-323899D01*
X-683728Y-311099D01*
X-690028Y-304799D01*
X-702828Y-304799D01*
X-709128Y-311099D01*
X-709128Y-323899D01*
X-702828Y-330199D01*
X-690028Y-330199D01*
G54D19*
X-690028Y-304799D02*
X-683728Y-298499D01*
X-683728Y-285699D01*
X-690028Y-279399D01*
X-702828Y-279399D01*
X-709128Y-285699D01*
X-709128Y-298499D01*
X-702828Y-304799D01*
X-690028Y-304799D01*
G54D19*
X-690028Y-279399D02*
X-683728Y-273099D01*
X-683728Y-260299D01*
X-690028Y-253999D01*
X-702828Y-253999D01*
X-709128Y-260299D01*
X-709128Y-273099D01*
X-702828Y-279399D01*
X-690028Y-279399D01*
G54D19*
X-690028Y-253999D02*
X-683728Y-247699D01*
X-683728Y-234899D01*
X-690028Y-228599D01*
X-702828Y-228599D01*
X-709128Y-234899D01*
X-709128Y-247699D01*
X-702828Y-253999D01*
X-690028Y-253999D01*
G54D19*
X-690028Y-228599D02*
X-683728Y-222299D01*
X-683728Y-209499D01*
X-690028Y-203199D01*
X-702828Y-203199D01*
X-709128Y-209499D01*
X-709128Y-222299D01*
X-702828Y-228599D01*
X-690028Y-228599D01*
G54D19*
X-690028Y-203199D02*
X-683728Y-196899D01*
X-683728Y-184099D01*
X-690028Y-177799D01*
X-702828Y-177799D01*
X-709128Y-184099D01*
X-709128Y-196899D01*
X-702828Y-203199D01*
X-690028Y-203199D01*
G54D19*
X-690028Y-177799D02*
X-683728Y-171499D01*
X-683728Y-158699D01*
X-690028Y-152399D01*
X-702828Y-152399D01*
X-709128Y-158699D01*
X-709128Y-171499D01*
X-702828Y-177799D01*
X-690028Y-177799D01*
G54D20*
X-523220Y-168468D02*
X-523220Y-162245D01*
X-520887Y-162245D01*
X-519954Y-162634D01*
X-519487Y-163412D01*
X-519487Y-164190D01*
X-519954Y-164968D01*
X-520887Y-165356D01*
X-523220Y-165356D01*
G54D20*
X-517776Y-162245D02*
X-517776Y-168468D01*
X-515443Y-164579D01*
X-513110Y-168468D01*
X-513110Y-162245D01*
G54D20*
X-511398Y-168468D02*
X-511398Y-162245D01*
X-509065Y-166134D01*
X-506732Y-162245D01*
X-506732Y-168468D01*
G54D20*
X-505020Y-168468D02*
X-502687Y-162245D01*
X-500354Y-168468D01*
G54D20*
X-504087Y-166134D02*
X-501287Y-166134D01*
G54D20*
X-523245Y-194265D02*
X-520912Y-188042D01*
X-518579Y-194265D01*
G54D20*
X-522312Y-191932D02*
X-519512Y-191932D01*
G54D20*
X-516867Y-194265D02*
X-516867Y-188042D01*
G54D20*
X-515156Y-194265D02*
X-515156Y-188042D01*
X-511423Y-194265D01*
X-511423Y-188042D01*
G54D20*
X-505979Y-194265D02*
X-509712Y-194265D01*
X-509712Y-193876D01*
X-509246Y-193098D01*
X-506446Y-190765D01*
X-505979Y-189987D01*
X-505979Y-189209D01*
X-506446Y-188432D01*
X-507379Y-188042D01*
X-508312Y-188042D01*
X-509246Y-188432D01*
X-509712Y-189209D01*
G54D20*
X-523245Y-219665D02*
X-520912Y-213442D01*
X-518578Y-219665D01*
G54D20*
X-522312Y-217332D02*
X-519512Y-217332D01*
G54D20*
X-516867Y-219665D02*
X-516867Y-213442D01*
G54D20*
X-515156Y-219665D02*
X-515156Y-213442D01*
X-511423Y-219665D01*
X-511423Y-213442D01*
G54D20*
X-509712Y-215776D02*
X-507378Y-213442D01*
X-507378Y-219665D01*
G54D20*
X-523220Y-270465D02*
X-523220Y-264242D01*
X-520887Y-264242D01*
X-519953Y-264632D01*
X-519487Y-265409D01*
X-519487Y-266187D01*
X-519953Y-266965D01*
X-520887Y-267354D01*
X-519953Y-267742D01*
X-519487Y-268520D01*
X-519487Y-269298D01*
X-519953Y-270076D01*
X-520887Y-270465D01*
X-523220Y-270465D01*
G54D20*
X-523220Y-267354D02*
X-520887Y-267354D01*
G54D20*
X-517776Y-270465D02*
X-517776Y-264242D01*
G54D20*
X-516065Y-270465D02*
X-516065Y-264242D01*
X-512332Y-270465D01*
X-512332Y-264242D01*
G54D20*
X-510621Y-266576D02*
X-508288Y-264242D01*
X-508288Y-270465D01*
G54D20*
X-523220Y-296659D02*
X-523220Y-290437D01*
X-520887Y-290437D01*
X-519953Y-290826D01*
X-519487Y-291604D01*
X-519486Y-292381D01*
X-519953Y-293159D01*
X-520887Y-293548D01*
X-519953Y-293937D01*
X-519487Y-294714D01*
X-519487Y-295492D01*
X-519953Y-296270D01*
X-520886Y-296659D01*
X-523220Y-296659D01*
G54D20*
X-523220Y-293548D02*
X-520887Y-293548D01*
G54D20*
X-517776Y-296659D02*
X-517776Y-290437D01*
G54D20*
X-516065Y-296659D02*
X-516064Y-290437D01*
X-512332Y-296659D01*
X-512332Y-290437D01*
G54D20*
X-506887Y-296659D02*
X-510621Y-296659D01*
X-510621Y-296270D01*
X-510154Y-295492D01*
X-507354Y-293159D01*
X-506887Y-292381D01*
X-506887Y-291604D01*
X-507354Y-290826D01*
X-508288Y-290437D01*
X-509221Y-290437D01*
X-510154Y-290826D01*
X-510620Y-291604D01*
G54D20*
X-523220Y-244295D02*
X-522754Y-245073D01*
X-521820Y-245462D01*
X-520887Y-245462D01*
X-519954Y-245073D01*
X-519487Y-244295D01*
X-519487Y-243517D01*
X-519954Y-242740D01*
X-520887Y-242351D01*
X-521820Y-242351D01*
X-522754Y-241962D01*
X-523220Y-241184D01*
X-523220Y-240406D01*
X-522754Y-239629D01*
X-521820Y-239240D01*
X-520887Y-239240D01*
X-519954Y-239629D01*
X-519487Y-240406D01*
G54D20*
X-515910Y-245462D02*
X-515910Y-239240D01*
G54D20*
X-517776Y-239240D02*
X-514043Y-239240D01*
G54D20*
X-512332Y-245462D02*
X-512332Y-239240D01*
X-509999Y-239240D01*
X-509066Y-239629D01*
X-508599Y-240406D01*
X-508599Y-241184D01*
X-509066Y-241962D01*
X-509999Y-242351D01*
X-509066Y-242740D01*
X-508599Y-243517D01*
X-508599Y-244295D01*
X-509066Y-245073D01*
X-509999Y-245462D01*
X-512332Y-245462D01*
G54D20*
X-512332Y-242351D02*
X-509999Y-242351D01*
G54D20*
X-506888Y-239240D02*
X-504555Y-242351D01*
X-504555Y-245462D01*
G54D20*
X-504555Y-242351D02*
X-502222Y-239240D01*
G54D20*
X-523220Y-320470D02*
X-523220Y-314248D01*
X-520886Y-314248D01*
X-519953Y-314637D01*
X-519486Y-315415D01*
X-519486Y-316193D01*
X-519953Y-316970D01*
X-520886Y-317359D01*
X-523220Y-317359D01*
G54D20*
X-517775Y-314248D02*
X-517776Y-320470D01*
X-515442Y-316582D01*
X-513109Y-320470D01*
X-513109Y-314248D01*
G54D20*
X-511398Y-320470D02*
X-511398Y-314248D01*
X-509064Y-318137D01*
X-506731Y-314248D01*
X-506731Y-320470D01*
G54D20*
X-505020Y-320470D02*
X-505020Y-314248D01*
X-502686Y-314248D01*
X-501753Y-314637D01*
X-501286Y-315415D01*
X-501286Y-316193D01*
X-501753Y-316970D01*
X-502686Y-317359D01*
X-501753Y-317748D01*
X-501286Y-318526D01*
X-501286Y-319304D01*
X-501753Y-320082D01*
X-502686Y-320470D01*
X-505020Y-320470D01*
G54D20*
X-505020Y-317359D02*
X-502686Y-317359D01*
G54D20*
X-730991Y-187248D02*
X-728657Y-193470D01*
X-726324Y-187248D01*
G54D20*
X-720879Y-192304D02*
X-721346Y-193082D01*
X-722279Y-193470D01*
X-723213Y-193470D01*
X-724146Y-193082D01*
X-724613Y-192304D01*
X-724613Y-188415D01*
X-724146Y-187637D01*
X-723213Y-187248D01*
X-722279Y-187248D01*
X-721346Y-187637D01*
X-720879Y-188415D01*
G54D20*
X-715435Y-192304D02*
X-715902Y-193082D01*
X-716835Y-193470D01*
X-717769Y-193470D01*
X-718702Y-193082D01*
X-719169Y-192304D01*
X-719169Y-188415D01*
X-718702Y-187637D01*
X-717769Y-187248D01*
X-716835Y-187248D01*
X-715902Y-187637D01*
X-715435Y-188415D01*
G54D20*
X-726529Y-162120D02*
X-724196Y-168342D01*
X-721863Y-162120D01*
G54D20*
X-720151Y-168342D02*
X-720151Y-162120D01*
X-717818Y-166008D01*
X-715485Y-162120D01*
X-715484Y-168342D01*
G54D20*
X-521353Y-343951D02*
X-519487Y-343951D01*
X-519487Y-345895D01*
X-519953Y-346673D01*
X-520887Y-347062D01*
X-521820Y-347062D01*
X-522753Y-346673D01*
X-523220Y-345895D01*
X-523220Y-342006D01*
X-522753Y-341228D01*
X-521820Y-340840D01*
X-520887Y-340840D01*
X-519953Y-341228D01*
X-519487Y-342006D01*
G54D20*
X-517776Y-347062D02*
X-517776Y-340840D01*
X-514043Y-347062D01*
X-514043Y-340840D01*
G54D20*
X-512332Y-347062D02*
X-512332Y-340840D01*
X-509999Y-340840D01*
X-509065Y-341228D01*
X-508599Y-342006D01*
X-508599Y-345895D01*
X-509065Y-346673D01*
X-509998Y-347062D01*
X-512332Y-347062D01*
G54D20*
X-728239Y-342759D02*
X-726372Y-342759D01*
X-726372Y-344704D01*
X-726839Y-345482D01*
X-727772Y-345870D01*
X-728706Y-345870D01*
X-729639Y-345482D01*
X-730106Y-344704D01*
X-730106Y-340815D01*
X-729639Y-340037D01*
X-728706Y-339648D01*
X-727772Y-339648D01*
X-726839Y-340037D01*
X-726372Y-340815D01*
G54D20*
X-724662Y-345870D02*
X-724662Y-339648D01*
X-720928Y-345870D01*
X-720928Y-339648D01*
G54D20*
X-719218Y-345870D02*
X-719218Y-339648D01*
X-716884Y-339648D01*
X-715951Y-340037D01*
X-715484Y-340815D01*
X-715484Y-344704D01*
X-715951Y-345482D01*
X-716884Y-345870D01*
X-719218Y-345870D01*
G54D20*
X-728706Y-319281D02*
X-728706Y-313059D01*
X-726372Y-313059D01*
X-725439Y-313448D01*
X-724972Y-314226D01*
X-724972Y-315003D01*
X-725439Y-315781D01*
X-726372Y-316170D01*
X-725439Y-316559D01*
X-724972Y-317337D01*
X-724972Y-318114D01*
X-725439Y-318892D01*
X-726372Y-319281D01*
X-728706Y-319281D01*
G54D20*
X-728706Y-316170D02*
X-726372Y-316170D01*
G54D20*
X-719528Y-314226D02*
X-719528Y-318114D01*
X-719995Y-318892D01*
X-720928Y-319281D01*
X-721862Y-319281D01*
X-722795Y-318892D01*
X-723262Y-318114D01*
X-723262Y-314226D01*
X-722795Y-313448D01*
X-721862Y-313059D01*
X-720928Y-313059D01*
X-719995Y-313448D01*
X-719528Y-314226D01*
G54D20*
X-717818Y-315392D02*
X-715484Y-313059D01*
X-715484Y-319281D01*
G54D20*
X-728706Y-294674D02*
X-728706Y-288452D01*
X-726372Y-288452D01*
X-725439Y-288841D01*
X-724972Y-289619D01*
X-724972Y-290397D01*
X-725439Y-291174D01*
X-726372Y-291563D01*
X-725439Y-291952D01*
X-724972Y-292730D01*
X-724972Y-293508D01*
X-725439Y-294286D01*
X-726372Y-294674D01*
X-728706Y-294674D01*
G54D20*
X-728706Y-291563D02*
X-726372Y-291563D01*
G54D20*
X-719528Y-289619D02*
X-719528Y-293508D01*
X-719995Y-294286D01*
X-720928Y-294674D01*
X-721862Y-294674D01*
X-722795Y-294286D01*
X-723262Y-293508D01*
X-723262Y-289619D01*
X-722795Y-288841D01*
X-721862Y-288452D01*
X-720928Y-288452D01*
X-719995Y-288841D01*
X-719528Y-289619D01*
G54D20*
X-714084Y-294674D02*
X-717818Y-294674D01*
X-717818Y-294286D01*
X-717351Y-293508D01*
X-714551Y-291174D01*
X-714084Y-290397D01*
X-714084Y-289619D01*
X-714551Y-288841D01*
X-715484Y-288452D01*
X-716418Y-288452D01*
X-717351Y-288841D01*
X-717818Y-289619D01*
G54D20*
X-731040Y-269274D02*
X-728706Y-263052D01*
X-726373Y-269274D01*
G54D20*
X-730106Y-266941D02*
X-727306Y-266941D01*
G54D20*
X-720928Y-264219D02*
X-720928Y-268108D01*
X-721395Y-268886D01*
X-722328Y-269274D01*
X-723262Y-269274D01*
X-724195Y-268886D01*
X-724662Y-268108D01*
X-724662Y-264219D01*
X-724195Y-263441D01*
X-723262Y-263052D01*
X-722328Y-263052D01*
X-721395Y-263441D01*
X-720928Y-264219D01*
G54D20*
X-715484Y-269274D02*
X-719218Y-269274D01*
X-719218Y-268886D01*
X-718751Y-268108D01*
X-715951Y-265774D01*
X-715484Y-264997D01*
X-715484Y-264219D01*
X-715951Y-263441D01*
X-716884Y-263052D01*
X-717818Y-263052D01*
X-718751Y-263441D01*
X-719218Y-264219D01*
G54D20*
X-729640Y-243874D02*
X-727306Y-237652D01*
X-724973Y-243874D01*
G54D20*
X-728706Y-241541D02*
X-725906Y-241541D01*
G54D20*
X-719528Y-238819D02*
X-719528Y-242708D01*
X-719995Y-243486D01*
X-720928Y-243874D01*
X-721862Y-243874D01*
X-722795Y-243486D01*
X-723262Y-242708D01*
X-723262Y-238819D01*
X-722795Y-238041D01*
X-721862Y-237652D01*
X-720928Y-237652D01*
X-719995Y-238041D01*
X-719528Y-238819D01*
G54D20*
X-717818Y-239986D02*
X-715484Y-237652D01*
X-715484Y-243874D01*
G54D20*
X-728239Y-216156D02*
X-726372Y-216156D01*
X-726372Y-218101D01*
X-726839Y-218879D01*
X-727772Y-219268D01*
X-728706Y-219268D01*
X-729639Y-218879D01*
X-730106Y-218101D01*
X-730106Y-214212D01*
X-729639Y-213434D01*
X-728706Y-213045D01*
X-727772Y-213045D01*
X-726839Y-213434D01*
X-726372Y-214212D01*
G54D20*
X-724662Y-219268D02*
X-724662Y-213045D01*
X-720928Y-219268D01*
X-720928Y-213045D01*
G54D20*
X-719218Y-219268D02*
X-719218Y-213045D01*
X-716884Y-213045D01*
X-715951Y-213434D01*
X-715484Y-214212D01*
X-715484Y-218101D01*
X-715951Y-218879D01*
X-716884Y-219268D01*
X-719218Y-219268D01*
G54D16*
X-509191Y246460D02*
X-509191Y271860D01*
X-483791Y271860D01*
X-483791Y246460D01*
X-509191Y246460D01*
G54D16*
X-543719Y160381D02*
X-543719Y185781D01*
X-518319Y185781D01*
X-518319Y160381D01*
X-543719Y160381D01*
G54D16*
X-543719Y236934D02*
X-543719Y262334D01*
X-518319Y262334D01*
X-518319Y236934D01*
X-543719Y236934D01*
G54D19*
X-322659Y-72628D02*
X-222250Y-72628D01*
X-222250Y-173038D01*
X-472678Y-173038D01*
X-472678Y-72628D01*
X-222250Y-72628D01*
X-322659Y-72628D01*
X-322659Y-171847D01*
X-322659Y-72628D01*
G54D19*
X-900509Y-72628D02*
X-1000918Y-72628D01*
X-1000918Y-173038D01*
X-750490Y-173038D01*
X-750490Y-72628D01*
X-1000918Y-72628D01*
X-900509Y-72628D01*
X-900509Y-171847D01*
X-900509Y-72628D01*
G54D19*
G75*
G01X-790616Y-376606D02*
G03X-790616Y-376606I-15000J0D01*
G01*
G54D19*
G75*
G01X-410012Y-376606D02*
G03X-410012Y-376606I-15000J0D01*
G01*
G54D19*
X-805616Y-376606D02*
X-425081Y-376606D01*
G54D19*
G75*
G01X-790616Y-555584D02*
G03X-790616Y-555584I-15000J0D01*
G01*
G54D19*
G75*
G01X-410012Y-555584D02*
G03X-410012Y-555584I-15000J0D01*
G01*
G54D19*
X-805616Y-555584D02*
X-425081Y-555584D01*
G54D19*
X-805616Y-376606D02*
X-805616Y-555584D01*
G54D19*
X-425081Y-376606D02*
X-425081Y-555516D01*
X-425012Y-555584D01*
G54D11*
X-311874Y-455028D02*
X-309588Y-457752D01*
X-310610Y-458609D01*
X-311161Y-458781D01*
X-311651Y-458612D01*
X-313079Y-456910D01*
X-313161Y-456398D01*
X-312895Y-455885D01*
X-311874Y-455028D01*
G54D11*
X-315066Y-457706D02*
X-312780Y-460430D01*
G54D11*
X-311963Y-459744D02*
X-313597Y-461116D01*
G54D11*
X-316195Y-459524D02*
X-316685Y-459355D01*
X-317236Y-459528D01*
X-317645Y-459870D01*
X-317911Y-460383D01*
X-317829Y-460895D01*
X-317543Y-461236D01*
X-317054Y-461405D01*
X-316502Y-461232D01*
X-316093Y-460889D01*
X-315542Y-460716D01*
X-315052Y-460886D01*
X-314766Y-461226D01*
X-314685Y-461738D01*
X-314950Y-462251D01*
X-315359Y-462594D01*
X-315911Y-462766D01*
X-316400Y-462598D01*
G54D11*
X-317998Y-462198D02*
X-319632Y-463569D01*
G54D11*
X-319516Y-465212D02*
X-319434Y-465723D01*
X-319700Y-466236D01*
X-320109Y-466579D01*
X-320660Y-466752D01*
X-321150Y-466582D01*
X-321436Y-466242D01*
X-321517Y-465730D01*
X-321251Y-465217D01*
X-321803Y-465390D01*
X-322293Y-465221D01*
X-322578Y-464881D01*
X-322660Y-464369D01*
X-322394Y-463856D01*
X-321985Y-463513D01*
X-321434Y-463340D01*
X-320944Y-463509D01*
G54D11*
X-325382Y-466362D02*
X-323747Y-464991D01*
X-323605Y-465161D01*
X-323523Y-465673D01*
X-323892Y-467723D01*
X-323810Y-468235D01*
X-323525Y-468575D01*
X-323035Y-468744D01*
X-322483Y-468572D01*
X-322075Y-468229D01*
X-321809Y-467716D01*
X-321890Y-467204D01*
G54D15*
X-311980Y-452724D02*
X-313051Y-451447D01*
X-313112Y-451063D01*
X-312913Y-450678D01*
X-312606Y-450421D01*
X-312192Y-450292D01*
X-311826Y-450418D01*
X-310754Y-451695D01*
X-310693Y-452079D01*
X-310892Y-452464D01*
X-311199Y-452721D01*
X-311612Y-452850D01*
X-311980Y-452724D01*
G54D15*
X-314215Y-451771D02*
X-314429Y-451516D01*
X-314490Y-451132D01*
X-314337Y-451003D01*
G54D15*
X-314584Y-454909D02*
X-315656Y-453632D01*
X-315716Y-453248D01*
X-315517Y-452864D01*
X-315211Y-452606D01*
X-314797Y-452477D01*
X-314430Y-452604D01*
X-313359Y-453881D01*
X-313298Y-454264D01*
X-313497Y-454649D01*
X-313803Y-454906D01*
X-314217Y-455036D01*
X-314584Y-454909D01*
G54D15*
X-316025Y-456770D02*
X-314799Y-455742D01*
X-315549Y-454848D01*
X-315702Y-454977D01*
X-315901Y-455362D01*
X-316208Y-455619D01*
X-316622Y-455748D01*
X-316989Y-455621D01*
X-317418Y-455110D01*
X-317478Y-454727D01*
X-317279Y-454342D01*
X-316973Y-454085D01*
X-316559Y-453956D01*
X-316192Y-454082D01*
G54D15*
X-318275Y-455178D02*
X-317327Y-457863D01*
X-319807Y-456463D01*
G54D15*
X-317939Y-456201D02*
X-318858Y-456972D01*
G54D15*
X-322105Y-458392D02*
X-320880Y-457363D01*
X-320772Y-457491D01*
X-320712Y-457875D01*
X-320988Y-459412D01*
X-320927Y-459796D01*
X-320713Y-460051D01*
X-320345Y-460178D01*
X-319932Y-460048D01*
X-319625Y-459792D01*
X-319426Y-459407D01*
X-319487Y-459023D01*
G54D15*
X-322153Y-461913D02*
X-320928Y-460884D01*
X-321677Y-459990D01*
X-321831Y-460119D01*
X-322030Y-460504D01*
X-322336Y-460761D01*
X-322750Y-460890D01*
X-323117Y-460764D01*
X-323546Y-460253D01*
X-323607Y-459869D01*
X-323408Y-459484D01*
X-323101Y-459227D01*
X-322688Y-459098D01*
X-322320Y-459225D01*
G54D15*
X-324237Y-463008D02*
X-325308Y-461732D01*
X-325369Y-461348D01*
X-325169Y-460963D01*
X-324863Y-460706D01*
X-324449Y-460576D01*
X-324082Y-460703D01*
X-323011Y-461980D01*
X-322950Y-462364D01*
X-323149Y-462748D01*
X-323455Y-463006D01*
X-323869Y-463135D01*
X-324237Y-463008D01*
G54D15*
X-324451Y-463841D02*
X-326931Y-462441D01*
X-325983Y-465126D01*
G54D10*
X-265285Y-449876D02*
X-312780Y-489729D01*
X-335921Y-462152D01*
X-288426Y-422299D01*
X-265285Y-449876D01*
G54D10*
X-269812Y-436704D02*
X-273642Y-439918D01*
X-280070Y-432257D01*
X-276240Y-429043D01*
X-269812Y-436704D01*
G54D10*
X-321136Y-479771D02*
X-324967Y-482984D01*
X-331395Y-475324D01*
X-327564Y-472110D01*
X-321136Y-479771D01*
G54D10*
X-276856Y-436087D02*
X-296773Y-452800D01*
X-297512Y-461253D01*
G54D10*
X-302135Y-457300D02*
X-324350Y-475940D01*
G54D10*
X-283970Y-452500D02*
X-306952Y-471784D01*
X-316593Y-460294D01*
X-293612Y-441010D01*
X-283970Y-452500D01*
G54D15*
X-319692Y-450688D02*
X-317978Y-452731D01*
G54D15*
X-319007Y-451506D02*
X-318946Y-451890D01*
X-319188Y-452223D01*
X-319558Y-452404D01*
X-319926Y-452277D01*
X-320612Y-451460D01*
G54D15*
X-320184Y-453058D02*
X-321410Y-454087D01*
G54D15*
X-320612Y-452548D02*
X-321838Y-453576D01*
G54D15*
X-322421Y-456459D02*
X-321196Y-455431D01*
X-321946Y-454537D01*
X-322098Y-454666D01*
X-322298Y-455050D01*
X-322605Y-455307D01*
X-323018Y-455437D01*
X-323386Y-455310D01*
X-323814Y-454800D01*
X-323875Y-454416D01*
X-323676Y-454031D01*
X-323369Y-453774D01*
X-322956Y-453644D01*
X-322588Y-453771D01*
G54D15*
X-324672Y-454866D02*
X-323707Y-456016D01*
G54D15*
X-323879Y-455811D02*
X-324014Y-456273D01*
X-324385Y-456453D01*
X-324688Y-456403D01*
X-325438Y-455509D01*
G54D15*
X-324645Y-456454D02*
X-324780Y-456916D01*
X-325151Y-457096D01*
X-325454Y-457046D01*
X-326204Y-456152D01*
G54D15*
X-326740Y-456602D02*
X-325776Y-457751D01*
G54D15*
X-325947Y-457547D02*
X-326082Y-458008D01*
X-326453Y-458189D01*
X-326756Y-458138D01*
X-327506Y-457245D01*
G54D15*
X-326713Y-458190D02*
X-326848Y-458651D01*
X-327219Y-458831D01*
X-327522Y-458781D01*
X-328272Y-457888D01*
G54D19*
X-940991Y-334962D02*
X-860028Y-334962D01*
X-860028Y-455612D01*
X-940991Y-455612D01*
X-940991Y-334962D01*
G54D11*
X-347421Y85811D02*
X-343866Y85811D01*
G54D11*
X-347421Y84811D02*
X-343866Y84811D01*
X-343866Y83477D01*
X-344088Y82944D01*
X-344532Y82678D01*
X-346754Y82678D01*
X-347199Y82944D01*
X-347421Y83477D01*
X-347421Y84811D01*
G54D11*
X-346754Y79577D02*
X-347199Y79844D01*
X-347421Y80377D01*
X-347421Y80911D01*
X-347199Y81444D01*
X-346755Y81711D01*
X-344532Y81711D01*
X-344088Y81444D01*
X-343866Y80911D01*
X-343866Y80377D01*
X-344088Y79844D01*
X-344532Y79577D01*
G54D11*
X-344532Y76477D02*
X-346755Y76477D01*
X-347199Y76744D01*
X-347421Y77278D01*
X-347421Y77811D01*
X-347199Y78344D01*
X-346755Y78611D01*
X-344532Y78611D01*
X-344088Y78344D01*
X-343866Y77811D01*
X-343866Y77278D01*
X-344088Y76744D01*
X-344532Y76477D01*
G54D11*
X-344532Y73378D02*
X-344088Y73644D01*
X-343866Y74177D01*
X-343866Y74711D01*
X-344088Y75244D01*
X-344532Y75511D01*
X-345644Y75511D01*
X-345866Y75511D01*
X-345421Y74711D01*
X-345421Y74177D01*
X-345643Y73644D01*
X-346088Y73378D01*
X-346754Y73377D01*
X-347199Y73644D01*
X-347421Y74177D01*
X-347421Y74711D01*
X-347199Y75244D01*
X-346755Y75511D01*
X-345644Y75511D01*
G54D11*
X-347421Y72411D02*
X-343866Y72411D01*
X-346088Y71077D01*
X-343866Y69744D01*
X-347421Y69744D01*
G54D15*
X-352421Y84811D02*
X-349754Y84811D01*
G54D15*
X-352421Y84111D02*
X-350921Y84111D01*
G54D15*
X-351255Y84111D02*
X-351021Y83911D01*
X-350921Y83511D01*
X-351021Y83111D01*
X-351255Y82911D01*
X-352421Y82911D01*
G54D15*
X-352021Y81011D02*
X-351354Y81011D01*
X-351021Y81211D01*
X-350921Y81611D01*
X-351021Y82011D01*
X-351354Y82211D01*
X-352021Y82211D01*
X-352355Y82011D01*
X-352421Y81611D01*
X-352355Y81211D01*
X-352021Y81011D01*
G54D15*
X-352421Y80311D02*
X-350921Y80311D01*
G54D15*
X-351188Y80311D02*
X-350921Y79911D01*
X-351021Y79511D01*
X-351255Y79311D01*
X-352421Y79311D01*
G54D15*
X-351188Y79311D02*
X-350921Y78911D01*
X-351021Y78511D01*
X-351255Y78311D01*
X-352421Y78311D01*
G54D15*
X-350921Y77611D02*
X-350921Y76011D01*
G54D15*
X-351588Y77611D02*
X-351588Y76011D01*
G54D15*
X-350755Y75311D02*
X-349755Y74311D01*
X-352421Y74311D01*
G54D15*
X-352421Y73611D02*
X-349755Y72611D01*
X-352421Y71611D01*
G54D15*
X-351421Y73211D02*
X-351421Y72011D01*
G54D11*
X-304921Y101033D02*
X-303588Y102366D01*
X-303588Y98811D01*
G54D11*
X-304421Y127200D02*
X-304155Y127644D01*
X-303621Y127866D01*
X-303088Y127866D01*
X-302555Y127644D01*
X-302288Y127200D01*
X-302288Y126755D01*
X-302555Y126311D01*
X-303088Y126088D01*
X-302554Y125866D01*
X-302288Y125422D01*
X-302288Y124978D01*
X-302554Y124533D01*
X-303088Y124311D01*
X-303621Y124311D01*
X-304154Y124533D01*
X-304421Y124978D01*
G54D11*
X-302288Y152866D02*
X-304421Y152866D01*
X-304421Y151311D01*
X-304155Y151311D01*
X-303621Y151533D01*
X-303088Y151533D01*
X-302554Y151311D01*
X-302288Y150866D01*
X-302288Y149978D01*
X-302554Y149533D01*
X-303088Y149311D01*
X-303621Y149311D01*
X-304155Y149533D01*
X-304421Y149978D01*
G54D11*
X-327788Y152200D02*
X-328055Y152644D01*
X-328588Y152866D01*
X-329121Y152866D01*
X-329655Y152644D01*
X-329921Y152200D01*
X-329921Y151088D01*
X-329921Y150866D01*
X-329121Y151311D01*
X-328588Y151311D01*
X-328055Y151088D01*
X-327788Y150644D01*
X-327788Y149978D01*
X-328055Y149533D01*
X-328588Y149311D01*
X-329121Y149311D01*
X-329655Y149533D01*
X-329921Y149978D01*
X-329921Y151088D01*
G54D11*
X-327821Y124311D02*
X-327821Y127866D01*
X-329421Y125644D01*
X-329421Y125200D01*
X-327288Y125200D01*
G54D11*
X-327788Y98311D02*
X-329921Y98311D01*
X-329921Y98533D01*
X-329655Y98978D01*
X-328055Y100311D01*
X-327788Y100755D01*
X-327788Y101200D01*
X-328055Y101644D01*
X-328588Y101866D01*
X-329121Y101866D01*
X-329655Y101644D01*
X-329921Y101200D01*
G54D10*
X-282421Y202811D02*
X-282421Y48811D01*
X-372421Y48811D01*
X-372421Y202811D01*
X-282421Y202811D01*
G54D10*
X-282421Y150811D02*
X-296421Y150811D01*
X-296421Y188811D01*
X-358421Y188811D01*
X-358421Y62811D01*
X-296421Y62811D01*
X-296421Y100811D01*
X-282421Y100811D01*
X-282421Y150811D01*
G54D10*
G75*
G01X-314721Y117811D02*
G03X-314721Y117811I0J8000D01*
G01*
G54D10*
X-311721Y128811D02*
X-311721Y122811D01*
X-317721Y122811D01*
X-317721Y128811D01*
X-311721Y128811D01*
G54D10*
X-311721Y103411D02*
X-311721Y97411D01*
X-317721Y97411D01*
X-317721Y103411D01*
X-311721Y103411D01*
G54D10*
X-337121Y103411D02*
X-337121Y97411D01*
X-343121Y97411D01*
X-343121Y103411D01*
X-337121Y103411D01*
G54D10*
X-337121Y128811D02*
X-337121Y122811D01*
X-343121Y122811D01*
X-343121Y128811D01*
X-337121Y128811D01*
G54D10*
X-337121Y154211D02*
X-337121Y148211D01*
X-343121Y148211D01*
X-343121Y154211D01*
X-337121Y154211D01*
G54D10*
X-311721Y154211D02*
X-311721Y148211D01*
X-317721Y148211D01*
X-317721Y154211D01*
X-311721Y154211D01*
G54D13*
X-291221Y96811D02*
X-291221Y91477D01*
X-293221Y94811D01*
X-295221Y91478D01*
X-295221Y96811D01*
G54D13*
X-296721Y96811D02*
X-296721Y91478D01*
G54D13*
X-298221Y95811D02*
X-298621Y96477D01*
X-299421Y96811D01*
X-300221Y96811D01*
X-301021Y96478D01*
X-301421Y95811D01*
X-301421Y95144D01*
X-301021Y94478D01*
X-300221Y94144D01*
X-299421Y94144D01*
X-298621Y93811D01*
X-298221Y93144D01*
X-298221Y92478D01*
X-298621Y91811D01*
X-299421Y91478D01*
X-300221Y91477D01*
X-301021Y91811D01*
X-301421Y92478D01*
G54D13*
X-306121Y92478D02*
X-306121Y95811D01*
X-305721Y96478D01*
X-304921Y96811D01*
X-304121Y96811D01*
X-303321Y96477D01*
X-302921Y95811D01*
X-302921Y92478D01*
X-303321Y91811D01*
X-304121Y91477D01*
X-304921Y91478D01*
X-305721Y91811D01*
X-306121Y92478D01*
G54D13*
X-292221Y121811D02*
X-292621Y122478D01*
X-293421Y122811D01*
X-294221Y122811D01*
X-295021Y122478D01*
X-295421Y121811D01*
X-295421Y121144D01*
X-295021Y120478D01*
X-294221Y120144D01*
X-293421Y120144D01*
X-292621Y119811D01*
X-292221Y119144D01*
X-292221Y118478D01*
X-292621Y117811D01*
X-293421Y117478D01*
X-294221Y117478D01*
X-295021Y117811D01*
X-295421Y118477D01*
G54D13*
X-300121Y121811D02*
X-299721Y122478D01*
X-298921Y122811D01*
X-298121Y122811D01*
X-297321Y122478D01*
X-296921Y121811D01*
X-296921Y118478D01*
X-297321Y117811D01*
X-298121Y117478D01*
X-298921Y117478D01*
X-299721Y117811D01*
X-300121Y118478D01*
G54D13*
X-301621Y122811D02*
X-301621Y117478D01*
G54D13*
X-301621Y121144D02*
X-304821Y117477D01*
G54D13*
X-302821Y120144D02*
X-304821Y122811D01*
G54D13*
X-292821Y145144D02*
X-294021Y145811D01*
X-294421Y146478D01*
X-294421Y147811D01*
G54D13*
X-291221Y147811D02*
X-291221Y142478D01*
X-293221Y142478D01*
X-294021Y142811D01*
X-294421Y143478D01*
X-294421Y144144D01*
X-294021Y144811D01*
X-293221Y145144D01*
X-291221Y145144D01*
G54D13*
X-295921Y146811D02*
X-296321Y147478D01*
X-297121Y147811D01*
X-297921Y147811D01*
X-298721Y147478D01*
X-299121Y146811D01*
X-299121Y146144D01*
X-298721Y145478D01*
X-297921Y145144D01*
X-297121Y145144D01*
X-296321Y144811D01*
X-295921Y144144D01*
X-295921Y143478D01*
X-296321Y142811D01*
X-297121Y142478D01*
X-297921Y142478D01*
X-298721Y142811D01*
X-299121Y143478D01*
G54D13*
X-302221Y147811D02*
X-302221Y142478D01*
G54D13*
X-300621Y142478D02*
X-303821Y142478D01*
G54D19*
X-290221Y141811D02*
X-303715Y141811D01*
G54D13*
X-346221Y96977D02*
X-348221Y102311D01*
X-350221Y96978D01*
G54D13*
X-354921Y101311D02*
X-354521Y101977D01*
X-353721Y102311D01*
X-352921Y102311D01*
X-352121Y101977D01*
X-351721Y101311D01*
X-351721Y97977D01*
X-352121Y97311D01*
X-352921Y96977D01*
X-353721Y96978D01*
X-354521Y97311D01*
X-354921Y97978D01*
G54D13*
X-359621Y101311D02*
X-359221Y101977D01*
X-358421Y102311D01*
X-357621Y102311D01*
X-356821Y101978D01*
X-356421Y101311D01*
X-356421Y97977D01*
X-356821Y97311D01*
X-357621Y96978D01*
X-358421Y96977D01*
X-359221Y97311D01*
X-359621Y97977D01*
G54D13*
X-349821Y150144D02*
X-351421Y150144D01*
X-351421Y151811D01*
X-351021Y152478D01*
X-350221Y152811D01*
X-349421Y152811D01*
X-348621Y152478D01*
X-348221Y151811D01*
X-348221Y148478D01*
X-348621Y147811D01*
X-349421Y147478D01*
X-350221Y147478D01*
X-351021Y147811D01*
X-351421Y148478D01*
G54D13*
X-352921Y152811D02*
X-352921Y147478D01*
X-356121Y152811D01*
X-356121Y147478D01*
G54D13*
X-357621Y152811D02*
X-357621Y147478D01*
X-359621Y147478D01*
X-360421Y147811D01*
X-360821Y148478D01*
X-360821Y151811D01*
X-360421Y152478D01*
X-359621Y152811D01*
X-357621Y152811D01*
G54D13*
X-346221Y127811D02*
X-346221Y122478D01*
X-348221Y125811D01*
X-350221Y122478D01*
X-350221Y127811D01*
G54D13*
X-354921Y123478D02*
X-354921Y126811D01*
X-354521Y127478D01*
X-353721Y127811D01*
X-352921Y127811D01*
X-352121Y127478D01*
X-351721Y126811D01*
X-351721Y123478D01*
X-352121Y122811D01*
X-352921Y122478D01*
X-353721Y122478D01*
X-354521Y122811D01*
X-354921Y123478D01*
G54D13*
X-356421Y126811D02*
X-356821Y127478D01*
X-357621Y127811D01*
X-358421Y127811D01*
X-359221Y127478D01*
X-359621Y126811D01*
X-359621Y126144D01*
X-359221Y125478D01*
X-358421Y125144D01*
X-357621Y125144D01*
X-356821Y124811D01*
X-356421Y124144D01*
X-356421Y123478D01*
X-356821Y122811D01*
X-357621Y122478D01*
X-358421Y122478D01*
X-359221Y122811D01*
X-359621Y123478D01*
G54D13*
X-361121Y127811D02*
X-361121Y122478D01*
G54D10*
X-297621Y187811D02*
X-297621Y149811D01*
X-287621Y149811D01*
X-287621Y101811D01*
X-297621Y101811D01*
X-297621Y63811D01*
X-357621Y63811D01*
X-357621Y187811D01*
X-297621Y187811D01*
G54D21*
X-468709Y-96044D02*
X-464709Y-85377D01*
X-460709Y-96044D01*
G54D21*
X-467109Y-92044D02*
X-462309Y-92044D01*
G54D21*
X-451376Y-87377D02*
X-451376Y-94044D01*
X-452176Y-95377D01*
X-453776Y-96044D01*
X-455376Y-96044D01*
X-456976Y-95377D01*
X-457776Y-94044D01*
X-457776Y-87377D01*
X-456976Y-86044D01*
X-455376Y-85377D01*
X-453776Y-85377D01*
X-452176Y-86044D01*
X-451376Y-87377D01*
G54D21*
X-448443Y-89377D02*
X-444443Y-85377D01*
X-444443Y-96044D01*
G54D21*
X-468709Y-152003D02*
X-464709Y-141336D01*
X-460709Y-152003D01*
G54D21*
X-467109Y-148003D02*
X-462309Y-148003D01*
G54D21*
X-451376Y-143336D02*
X-451376Y-150003D01*
X-452176Y-151336D01*
X-453776Y-152003D01*
X-455376Y-152003D01*
X-456976Y-151336D01*
X-457776Y-150003D01*
X-457776Y-143336D01*
X-456976Y-142003D01*
X-455376Y-141336D01*
X-453776Y-141336D01*
X-452176Y-142003D01*
X-451376Y-143336D01*
G54D21*
X-442043Y-152003D02*
X-448443Y-152003D01*
X-448443Y-151336D01*
X-447643Y-150003D01*
X-442843Y-146003D01*
X-442043Y-144670D01*
X-442043Y-143336D01*
X-442843Y-142003D01*
X-444443Y-141336D01*
X-446043Y-141336D01*
X-447643Y-142003D01*
X-448443Y-143336D01*
G54D21*
X-701278Y-93662D02*
X-701278Y-82996D01*
X-697278Y-82996D01*
X-695678Y-83662D01*
X-694878Y-84996D01*
X-694878Y-86329D01*
X-695678Y-87662D01*
X-697278Y-88329D01*
X-695678Y-88996D01*
X-694878Y-90329D01*
X-694878Y-91662D01*
X-695678Y-92996D01*
X-697278Y-93662D01*
X-701278Y-93662D01*
G54D21*
X-701278Y-88329D02*
X-697278Y-88329D01*
G54D21*
X-685545Y-84996D02*
X-685545Y-91662D01*
X-686345Y-92996D01*
X-687945Y-93662D01*
X-689545Y-93662D01*
X-691145Y-92996D01*
X-691945Y-91662D01*
X-691945Y-84996D01*
X-691145Y-83662D01*
X-689545Y-82996D01*
X-687945Y-82996D01*
X-686345Y-83662D01*
X-685545Y-84996D01*
G54D21*
X-676212Y-93662D02*
X-682612Y-93662D01*
X-682612Y-92996D01*
X-681812Y-91662D01*
X-677012Y-87662D01*
X-676212Y-86329D01*
X-676212Y-84996D01*
X-677012Y-83662D01*
X-678612Y-82996D01*
X-680212Y-82996D01*
X-681812Y-83662D01*
X-682612Y-84996D01*
G54D21*
X-700881Y-145256D02*
X-700881Y-134590D01*
X-696881Y-134590D01*
X-695281Y-135256D01*
X-694481Y-136590D01*
X-694481Y-137923D01*
X-695281Y-139256D01*
X-696881Y-139923D01*
X-695281Y-140590D01*
X-694481Y-141923D01*
X-694481Y-143256D01*
X-695281Y-144590D01*
X-696881Y-145256D01*
X-700881Y-145256D01*
G54D21*
X-700881Y-139923D02*
X-696881Y-139923D01*
G54D21*
X-685148Y-136590D02*
X-685148Y-143256D01*
X-685948Y-144590D01*
X-687548Y-145256D01*
X-689148Y-145256D01*
X-690748Y-144590D01*
X-691548Y-143256D01*
X-691548Y-136590D01*
X-690748Y-135256D01*
X-689148Y-134590D01*
X-687548Y-134590D01*
X-685948Y-135256D01*
X-685148Y-136590D01*
G54D21*
X-682215Y-138590D02*
X-678215Y-134590D01*
X-678215Y-145256D01*
G54D19*
X-908794Y140097D02*
X-902494Y146397D01*
X-902494Y159197D01*
X-908794Y165497D01*
X-921594Y165497D01*
X-927894Y159197D01*
X-927894Y146397D01*
X-921594Y140097D01*
X-908794Y140097D01*
G54D19*
X-908794Y190897D02*
X-902494Y197197D01*
X-902494Y209997D01*
X-908794Y216297D01*
X-921594Y216297D01*
X-927894Y209997D01*
X-927894Y197197D01*
X-921594Y190897D01*
X-908794Y190897D01*
G54D22*
X-780414Y-400447D02*
X-780414Y-384447D01*
G54D22*
X-787080Y-392447D02*
X-773747Y-392447D01*
G54D22*
X-931623Y119459D02*
X-931623Y135459D01*
G54D22*
X-938290Y127459D02*
X-924956Y127459D01*
G36*
X-813891Y-51808D02*
X-813891Y36992D01*
X-820291Y36992D01*
X-820291Y-51808D01*
X-813891Y-51808D01*
G37*
G54D19*
X-813891Y-51808D02*
X-813891Y36992D01*
X-820291Y36992D01*
X-820291Y-51808D01*
X-813891Y-51808D01*
G54D19*
X-820291Y-51808D02*
X-782291Y-51808D01*
X-782291Y37192D01*
X-820291Y37192D01*
X-820291Y-51808D01*
G54D23*
X-770991Y-35908D02*
X-778091Y-35908D01*
G54D23*
X-770991Y-33908D02*
X-778091Y-33908D01*
X-770991Y-29608D01*
X-778091Y-29608D01*
G54D23*
X-774591Y-13208D02*
X-774591Y-11008D01*
X-772291Y-11008D01*
X-771391Y-11608D01*
X-770991Y-12608D01*
X-770991Y-13708D01*
X-771391Y-14808D01*
X-772291Y-15308D01*
X-776791Y-15308D01*
X-777691Y-14808D01*
X-778091Y-13708D01*
X-778091Y-12608D01*
X-777691Y-11608D01*
X-776791Y-11008D01*
G54D23*
X-770991Y-9008D02*
X-778091Y-9008D01*
X-770991Y-4708D01*
X-778091Y-4708D01*
G54D23*
X-770991Y-2708D02*
X-778091Y-2708D01*
X-778091Y-8D01*
X-777691Y992D01*
X-776791Y1592D01*
X-772291Y1592D01*
X-771391Y992D01*
X-770991Y-8D01*
X-770991Y-2708D01*
G54D23*
X-776791Y14392D02*
X-772291Y14392D01*
X-771391Y13792D01*
X-770991Y12792D01*
X-770991Y11692D01*
X-771391Y10592D01*
X-772291Y10092D01*
X-776791Y10092D01*
X-777691Y10592D01*
X-778091Y11692D01*
X-778091Y12792D01*
X-777691Y13792D01*
X-776791Y14392D01*
G54D23*
X-778091Y16392D02*
X-772291Y16392D01*
X-771391Y16892D01*
X-770991Y17992D01*
X-770991Y19092D01*
X-771391Y20092D01*
X-772291Y20692D01*
X-778091Y20692D01*
G54D23*
X-770991Y24792D02*
X-778091Y24792D01*
G54D23*
X-778091Y22692D02*
X-778091Y26992D01*
G54D19*
X-816247Y28808D02*
X-699963Y28808D01*
X-699963Y-43027D01*
X-816247Y-43027D01*
X-816247Y28808D01*
G54D22*
X-945576Y190562D02*
X-929576Y190562D01*
G36*
X-747373Y158685D02*
X-836173Y158685D01*
X-836173Y152285D01*
X-747373Y152285D01*
X-747373Y158685D01*
G37*
G54D19*
X-747373Y158685D02*
X-836173Y158685D01*
X-836173Y152285D01*
X-747373Y152285D01*
X-747373Y158685D01*
G54D19*
X-747373Y152285D02*
X-747373Y190285D01*
X-836373Y190285D01*
X-836373Y152285D01*
X-747373Y152285D01*
G54D23*
X-763273Y201585D02*
X-763273Y194485D01*
G54D23*
X-765273Y201585D02*
X-765273Y194485D01*
X-769573Y201585D01*
X-769573Y194485D01*
G54D23*
X-785973Y197985D02*
X-788173Y197985D01*
X-788173Y200285D01*
X-787573Y201185D01*
X-786573Y201585D01*
X-785473Y201585D01*
X-784373Y201185D01*
X-783873Y200285D01*
X-783873Y195785D01*
X-784373Y194885D01*
X-785473Y194485D01*
X-786573Y194485D01*
X-787573Y194885D01*
X-788173Y195785D01*
G54D23*
X-790173Y201585D02*
X-790173Y194485D01*
X-794473Y201585D01*
X-794473Y194485D01*
G54D23*
X-796473Y201585D02*
X-796473Y194485D01*
X-799173Y194485D01*
X-800173Y194885D01*
X-800773Y195785D01*
X-800773Y200285D01*
X-800173Y201185D01*
X-799173Y201585D01*
X-796473Y201585D01*
G54D23*
X-813573Y195785D02*
X-813573Y200285D01*
X-812973Y201185D01*
X-811973Y201585D01*
X-810873Y201585D01*
X-809773Y201185D01*
X-809273Y200285D01*
X-809273Y195785D01*
X-809773Y194885D01*
X-810873Y194485D01*
X-811973Y194485D01*
X-812973Y194885D01*
X-813573Y195785D01*
G54D23*
X-815573Y194485D02*
X-815573Y200285D01*
X-816073Y201185D01*
X-817173Y201585D01*
X-818273Y201585D01*
X-819273Y201185D01*
X-819873Y200285D01*
X-819873Y194485D01*
G54D23*
X-823973Y201585D02*
X-823973Y194485D01*
G54D23*
X-821873Y194485D02*
X-826173Y194485D01*
G54D19*
X-827988Y156329D02*
X-827989Y272613D01*
X-756154Y272613D01*
X-756154Y156328D01*
X-827988Y156329D01*
G54D19*
X-969219Y152003D02*
X-975519Y145703D01*
X-975519Y132903D01*
X-969219Y126603D01*
X-956419Y126603D01*
X-950119Y132903D01*
X-950119Y145703D01*
X-956419Y152003D01*
X-969219Y152003D01*
G54D19*
X-969219Y126603D02*
X-975519Y120303D01*
X-975519Y107503D01*
X-969219Y101203D01*
X-956419Y101203D01*
X-950119Y107503D01*
X-950119Y120303D01*
X-956419Y126603D01*
X-969219Y126603D01*
G54D19*
X-503555Y115947D02*
X-503555Y112847D01*
G54D19*
G75*
G01X-503555Y115947D02*
G03X-503555Y115947I0J12700D01*
G01*
G54D19*
X-468791Y187651D02*
X-468791Y162251D01*
X-397191Y162251D01*
X-397191Y187651D01*
X-468791Y187651D01*
G54D19*
X-434591Y182951D02*
X-434591Y166951D01*
G54D19*
X-431391Y182951D02*
X-431391Y166951D01*
G54D19*
X-447291Y174951D02*
X-434591Y174951D01*
G54D19*
X-431391Y174951D02*
X-418691Y174951D01*
G54D16*
X-457399Y231224D02*
X-431999Y231224D01*
X-431999Y205824D01*
X-457399Y205824D01*
X-457399Y231224D01*
G54D16*
X-380802Y231224D02*
X-355402Y231224D01*
X-355402Y205824D01*
X-380802Y205824D01*
X-380802Y231224D01*
G54D24*
X-361521Y-349578D02*
X-361521Y-362912D01*
X-356521Y-354578D01*
X-351521Y-362912D01*
X-351521Y-349578D01*
G54D24*
X-339854Y-362912D02*
X-347854Y-362912D01*
X-347854Y-362078D01*
X-346854Y-360412D01*
X-340854Y-355412D01*
X-339854Y-353745D01*
X-339854Y-352078D01*
X-340854Y-350412D01*
X-342854Y-349578D01*
X-344854Y-349578D01*
X-346854Y-350412D01*
X-347854Y-352078D01*
G54D10*
G75*
G01X-688441Y27531D02*
G03X-723441Y27531I-17500J0D01*
G01*
G54D10*
G75*
G01X-723441Y-35469D02*
G03X-688441Y-35469I17500J0D01*
G01*
G54D10*
X-688441Y27531D02*
X-688441Y-35469D01*
G54D10*
X-723441Y-35469D02*
X-723441Y27531D01*
G54D10*
G75*
G01X-683441Y28531D02*
G03X-728441Y28531I-22500J0D01*
G01*
G54D10*
G75*
G01X-728441Y-36469D02*
G03X-683441Y-36469I22500J0D01*
G01*
G54D10*
X-683441Y28531D02*
X-683441Y-36469D01*
G54D10*
X-728441Y-36469D02*
X-728441Y28531D01*
G54D25*
X-717991Y-32169D02*
X-716213Y-32169D01*
G54D25*
X-717991Y-33236D02*
X-716213Y-33236D01*
G54D25*
X-717102Y-32169D02*
X-717102Y-33236D01*
G54D25*
X-717658Y-34836D02*
X-717880Y-34703D01*
X-717991Y-34436D01*
X-717991Y-34169D01*
X-717880Y-33903D01*
X-717658Y-33769D01*
X-716547Y-33769D01*
X-716324Y-33903D01*
X-716213Y-34169D01*
X-716213Y-34436D01*
X-716324Y-34703D01*
X-716547Y-34836D01*
G54D25*
X-717213Y-35369D02*
X-717213Y-36436D01*
G54D25*
X-717991Y-37769D02*
X-716213Y-37769D01*
X-717324Y-36969D01*
X-717547Y-36969D01*
X-717547Y-38036D01*
G54D25*
X-717658Y-38569D02*
X-717880Y-38703D01*
X-717991Y-38969D01*
X-717991Y-39236D01*
X-717880Y-39503D01*
X-717658Y-39636D01*
X-717102Y-39636D01*
X-716991Y-39636D01*
X-717213Y-39236D01*
X-717213Y-38969D01*
X-717102Y-38703D01*
X-716880Y-38569D01*
X-716547Y-38569D01*
X-716324Y-38703D01*
X-716213Y-38969D01*
X-716213Y-39236D01*
X-716324Y-39503D01*
X-716547Y-39636D01*
X-717102Y-39636D01*
G54D25*
X-717991Y-40169D02*
X-716213Y-41236D01*
G54D25*
X-716213Y-41769D02*
X-717658Y-41769D01*
X-717880Y-41903D01*
X-717991Y-42169D01*
X-717991Y-42436D01*
X-717880Y-42703D01*
X-717658Y-42836D01*
X-716213Y-42836D01*
G54D25*
X-717658Y-43369D02*
X-717880Y-43503D01*
X-717991Y-43769D01*
X-717991Y-44036D01*
X-717880Y-44303D01*
X-717658Y-44436D01*
X-717436Y-44436D01*
X-717213Y-44303D01*
X-717102Y-44036D01*
X-717102Y-43769D01*
X-716991Y-43503D01*
X-716769Y-43369D01*
X-716547Y-43369D01*
X-716324Y-43503D01*
X-716213Y-43769D01*
X-716213Y-44036D01*
X-716324Y-44303D01*
X-716547Y-44436D01*
G54D25*
X-719530Y-30769D02*
X-718863Y-31436D01*
X-720641Y-31436D01*
G54D25*
X-720641Y-32769D02*
X-718863Y-32769D01*
X-719974Y-31969D01*
X-720197Y-31969D01*
X-720197Y-33036D01*
G54D25*
X-720641Y-33836D02*
X-720863Y-33836D01*
X-721086Y-33703D01*
X-721086Y-33569D01*
G54D25*
X-719197Y-34369D02*
X-718974Y-34503D01*
X-718863Y-34769D01*
X-718863Y-35036D01*
X-718974Y-35303D01*
X-719197Y-35436D01*
X-719419Y-35436D01*
X-719641Y-35303D01*
X-719752Y-35036D01*
X-719863Y-35303D01*
X-720086Y-35436D01*
X-720308Y-35436D01*
X-720530Y-35303D01*
X-720641Y-35036D01*
X-720641Y-34769D01*
X-720530Y-34503D01*
X-720308Y-34369D01*
G54D25*
X-719530Y-35969D02*
X-718863Y-36636D01*
X-720641Y-36636D01*
G54D25*
X-719752Y-37836D02*
X-719752Y-37569D01*
X-719641Y-37303D01*
X-719419Y-37169D01*
X-719197Y-37169D01*
X-718974Y-37303D01*
X-718863Y-37569D01*
X-718863Y-37836D01*
X-718974Y-38103D01*
X-719197Y-38236D01*
X-719419Y-38236D01*
X-719641Y-38103D01*
X-719752Y-37836D01*
X-719863Y-38103D01*
X-720086Y-38236D01*
X-720308Y-38236D01*
X-720530Y-38103D01*
X-720641Y-37836D01*
X-720641Y-37569D01*
X-720530Y-37303D01*
X-720308Y-37169D01*
X-720086Y-37169D01*
X-719863Y-37303D01*
X-719752Y-37569D01*
G54D25*
X-719530Y-38769D02*
X-718863Y-39436D01*
X-720641Y-39436D01*
G54D25*
X-719752Y-40636D02*
X-719752Y-40369D01*
X-719641Y-40103D01*
X-719419Y-39969D01*
X-719197Y-39969D01*
X-718974Y-40103D01*
X-718863Y-40369D01*
X-718863Y-40636D01*
X-718974Y-40903D01*
X-719197Y-41036D01*
X-719419Y-41036D01*
X-719641Y-40903D01*
X-719752Y-40636D01*
X-719863Y-40903D01*
X-720086Y-41036D01*
X-720308Y-41036D01*
X-720530Y-40903D01*
X-720641Y-40636D01*
X-720641Y-40369D01*
X-720530Y-40103D01*
X-720308Y-39969D01*
X-720086Y-39969D01*
X-719863Y-40103D01*
X-719752Y-40369D01*
G54D25*
X-720641Y-41569D02*
X-718863Y-41569D01*
X-719974Y-42236D01*
X-718863Y-42903D01*
X-720641Y-42903D01*
G54D25*
X-720641Y-43369D02*
X-718863Y-43369D01*
G54D25*
X-720641Y-44436D02*
X-718863Y-44436D01*
G54D25*
X-719752Y-43369D02*
X-719752Y-44436D01*
G54D25*
X-719641Y-44969D02*
X-719641Y-45769D01*
X-720641Y-44969D01*
X-720641Y-45769D01*
G54D25*
X-723141Y-33136D02*
X-723141Y-32069D01*
X-723030Y-32069D01*
X-722808Y-32203D01*
X-722141Y-33003D01*
X-721919Y-33136D01*
X-721697Y-33136D01*
X-721474Y-33003D01*
X-721363Y-32736D01*
X-721363Y-32469D01*
X-721474Y-32203D01*
X-721697Y-32069D01*
G54D25*
X-721697Y-34736D02*
X-722808Y-34736D01*
X-723030Y-34603D01*
X-723141Y-34336D01*
X-723141Y-34069D01*
X-723030Y-33803D01*
X-722808Y-33669D01*
X-721697Y-33669D01*
X-721474Y-33803D01*
X-721363Y-34069D01*
X-721363Y-34336D01*
X-721474Y-34603D01*
X-721697Y-34736D01*
G54D25*
X-722141Y-35269D02*
X-723586Y-35269D01*
G54D25*
X-722808Y-35269D02*
X-723097Y-35403D01*
X-723141Y-35669D01*
X-723097Y-35936D01*
X-722874Y-36069D01*
X-722430Y-36069D01*
X-722208Y-35936D01*
X-722141Y-35669D01*
X-722208Y-35403D01*
X-722474Y-35269D01*
G54D25*
X-722141Y-36569D02*
X-723586Y-36569D01*
G54D25*
X-722808Y-36569D02*
X-723097Y-36703D01*
X-723141Y-36969D01*
X-723097Y-37236D01*
X-722874Y-37369D01*
X-722430Y-37369D01*
X-722208Y-37236D01*
X-722141Y-36969D01*
X-722208Y-36703D01*
X-722474Y-36569D01*
G54D25*
X-723141Y-37869D02*
X-722141Y-37869D01*
G54D25*
X-722319Y-37869D02*
X-722141Y-38136D01*
X-722208Y-38403D01*
X-722363Y-38536D01*
X-723141Y-38536D01*
G54D25*
X-722319Y-38536D02*
X-722141Y-38803D01*
X-722208Y-39069D01*
X-722363Y-39203D01*
X-723141Y-39203D01*
G54D25*
X-723141Y-41236D02*
X-723141Y-40169D01*
X-723030Y-40169D01*
X-722808Y-40303D01*
X-722141Y-41103D01*
X-721919Y-41236D01*
X-721697Y-41236D01*
X-721474Y-41103D01*
X-721363Y-40836D01*
X-721363Y-40569D01*
X-721474Y-40303D01*
X-721697Y-40169D01*
G54D25*
X-721697Y-42836D02*
X-722808Y-42836D01*
X-723030Y-42703D01*
X-723141Y-42436D01*
X-723141Y-42169D01*
X-723030Y-41903D01*
X-722808Y-41769D01*
X-721697Y-41769D01*
X-721474Y-41903D01*
X-721363Y-42169D01*
X-721363Y-42436D01*
X-721474Y-42703D01*
X-721697Y-42836D01*
G54D25*
X-722141Y-43369D02*
X-723586Y-43369D01*
G54D25*
X-722808Y-43369D02*
X-723097Y-43503D01*
X-723141Y-43769D01*
X-723097Y-44036D01*
X-722874Y-44169D01*
X-722430Y-44169D01*
X-722208Y-44036D01*
X-722141Y-43769D01*
X-722208Y-43503D01*
X-722474Y-43369D01*
G54D25*
X-723141Y-44669D02*
X-721363Y-44669D01*
X-721363Y-45603D01*
G54D25*
X-722252Y-44669D02*
X-722252Y-45603D01*
G54D10*
X-705941Y9031D02*
X-705941Y3031D01*
G54D10*
X-697941Y3031D02*
X-713941Y3031D01*
G54D10*
X-697941Y-10969D02*
X-713941Y-10969D01*
G54D10*
X-705941Y-10969D02*
X-705941Y-16969D01*
G54D10*
X-694941Y31D02*
X-694941Y-7969D01*
X-716941Y-7969D01*
X-716941Y31D01*
X-694941Y31D01*
G54D19*
X-733425Y40165D02*
X-758825Y40165D01*
X-758825Y-6035D01*
X-733425Y-6035D01*
X-733425Y40165D01*
G54D19*
X-738125Y18665D02*
X-754125Y18665D01*
G54D19*
X-738125Y15465D02*
X-754125Y15465D01*
G54D19*
X-746125Y18665D02*
X-746125Y20265D01*
G54D19*
X-746125Y15465D02*
X-746125Y13865D01*
G54D19*
X-733425Y-7856D02*
X-758825Y-7856D01*
X-758825Y-54056D01*
X-733425Y-54056D01*
X-733425Y-7856D01*
G54D19*
X-738125Y-29356D02*
X-754125Y-29356D01*
G54D19*
X-738125Y-32556D02*
X-754125Y-32556D01*
G54D19*
X-746125Y-29356D02*
X-746125Y-27756D01*
G54D19*
X-746125Y-32556D02*
X-746125Y-34156D01*
G54D16*
X-683221Y47867D02*
X-657821Y47867D01*
X-657821Y22468D01*
X-683221Y22468D01*
X-683221Y47867D01*
G54D16*
X-683221Y-23570D02*
X-657821Y-23570D01*
X-657821Y-48970D01*
X-683221Y-48970D01*
X-683221Y-23570D01*
G54D16*
X-585788Y-167437D02*
X-585788Y-142037D01*
X-560388Y-142037D01*
X-560388Y-167437D01*
X-585788Y-167437D01*
G54D16*
X-650081Y-203200D02*
X-650081Y-177800D01*
X-624681Y-177800D01*
X-624681Y-203200D01*
X-650081Y-203200D01*
G54D16*
X-586581Y-203200D02*
X-586581Y-177800D01*
X-561181Y-177800D01*
X-561181Y-203200D01*
X-586581Y-203200D01*
G54D16*
X-674688Y-167437D02*
X-674688Y-142037D01*
X-649288Y-142037D01*
X-649288Y-167437D01*
X-674688Y-167437D01*
G54D10*
X-793329Y232966D02*
X-793329Y236166D01*
X-774329Y236166D01*
X-774329Y232966D01*
X-793329Y232966D01*
G54D10*
X-793329Y229766D02*
X-774329Y229766D01*
G54D26*
X-783729Y260666D02*
X-783729Y255366D01*
G54D26*
X-781529Y257966D02*
X-785929Y257966D01*
G54D10*
G75*
G01X-783829Y265467D02*
G03X-783829Y265467I0J-32500D01*
G01*
G54D15*
X-801546Y216116D02*
X-801546Y216916D01*
X-802379Y216916D01*
X-802713Y216716D01*
X-802879Y216316D01*
X-802879Y215916D01*
X-802713Y215516D01*
X-802379Y215316D01*
X-800713Y215316D01*
X-800379Y215516D01*
X-800213Y215916D01*
X-800213Y216316D01*
X-800379Y216716D01*
X-800713Y216916D01*
G54D15*
X-801546Y218416D02*
X-801879Y219016D01*
X-802213Y219216D01*
X-802879Y219216D01*
G54D15*
X-802879Y217616D02*
X-800213Y217616D01*
X-800213Y218616D01*
X-800379Y219016D01*
X-800713Y219216D01*
X-801046Y219216D01*
X-801379Y219016D01*
X-801546Y218616D01*
X-801546Y217616D01*
G54D15*
X-801713Y219916D02*
X-801713Y221516D01*
G54D15*
X-800213Y223816D02*
X-800213Y222216D01*
X-801379Y222216D01*
X-801379Y222416D01*
X-801213Y222816D01*
X-801213Y223216D01*
X-801379Y223616D01*
X-801713Y223816D01*
X-802379Y223816D01*
X-802713Y223616D01*
X-802879Y223216D01*
X-802879Y222816D01*
X-802713Y222416D01*
X-802379Y222216D01*
G54D15*
X-800713Y226116D02*
X-802379Y226116D01*
X-802713Y225916D01*
X-802879Y225516D01*
X-802879Y225116D01*
X-802713Y224716D01*
X-802379Y224516D01*
X-800713Y224516D01*
X-800379Y224716D01*
X-800213Y225116D01*
X-800213Y225516D01*
X-800379Y225916D01*
X-800713Y226116D01*
G54D15*
X-801713Y226816D02*
X-801713Y228416D01*
G54D15*
X-802879Y230716D02*
X-802879Y229116D01*
X-802713Y229116D01*
X-802379Y229316D01*
X-801379Y230516D01*
X-801046Y230716D01*
X-800713Y230716D01*
X-800379Y230516D01*
X-800213Y230116D01*
X-800213Y229716D01*
X-800379Y229316D01*
X-800713Y229116D01*
G54D15*
X-802879Y233016D02*
X-802879Y231416D01*
X-802713Y231416D01*
X-802379Y231616D01*
X-801379Y232816D01*
X-801046Y233016D01*
X-800713Y233016D01*
X-800379Y232816D01*
X-800213Y232416D01*
X-800213Y232016D01*
X-800379Y231616D01*
X-800713Y231416D01*
G54D15*
X-800713Y236016D02*
X-800379Y235816D01*
X-800213Y235416D01*
X-800213Y235016D01*
X-800379Y234616D01*
X-800713Y234416D01*
X-801546Y234416D01*
X-801713Y234416D01*
X-801379Y235016D01*
X-801379Y235416D01*
X-801546Y235816D01*
X-801879Y236016D01*
X-802379Y236016D01*
X-802713Y235816D01*
X-802879Y235416D01*
X-802879Y235016D01*
X-802713Y234616D01*
X-802379Y234416D01*
X-801546Y234416D01*
G54D15*
X-802879Y237116D02*
X-803213Y237116D01*
X-803546Y236916D01*
X-803546Y236716D01*
G54D15*
X-800713Y237816D02*
X-800379Y238016D01*
X-800213Y238416D01*
X-800213Y238816D01*
X-800379Y239216D01*
X-800713Y239416D01*
X-801046Y239416D01*
X-801379Y239216D01*
X-801546Y238816D01*
X-801713Y239216D01*
X-802046Y239416D01*
X-802379Y239416D01*
X-802713Y239216D01*
X-802879Y238816D01*
X-802879Y238416D01*
X-802713Y238016D01*
X-802379Y237816D01*
G54D15*
X-801379Y240116D02*
X-802879Y241716D01*
G54D15*
X-802879Y240116D02*
X-801379Y241716D01*
G54D15*
X-801213Y242416D02*
X-800213Y243416D01*
X-802879Y243416D01*
G54D15*
X-802879Y245716D02*
X-802879Y244116D01*
X-802713Y244116D01*
X-802379Y244316D01*
X-801379Y245516D01*
X-801046Y245716D01*
X-800713Y245716D01*
X-800379Y245516D01*
X-800213Y245116D01*
X-800213Y244716D01*
X-800379Y244316D01*
X-800713Y244116D01*
G54D15*
X-801213Y247116D02*
X-800213Y248116D01*
X-802879Y248116D01*
G54D15*
X-800713Y250416D02*
X-802379Y250416D01*
X-802713Y250216D01*
X-802879Y249816D01*
X-802879Y249416D01*
X-802713Y249016D01*
X-802379Y248816D01*
X-800713Y248816D01*
X-800379Y249016D01*
X-800213Y249416D01*
X-800213Y249816D01*
X-800379Y250216D01*
X-800713Y250416D01*
G54D15*
X-800213Y252716D02*
X-800213Y251116D01*
X-801379Y251116D01*
X-801379Y251316D01*
X-801213Y251716D01*
X-801213Y252116D01*
X-801379Y252516D01*
X-801713Y252716D01*
X-802379Y252716D01*
X-802713Y252516D01*
X-802879Y252116D01*
X-802879Y251716D01*
X-802713Y251316D01*
X-802379Y251116D01*
G54D15*
X-801713Y253416D02*
X-801713Y255016D01*
G54D15*
X-801046Y254216D02*
X-802379Y254216D01*
G54D15*
X-801213Y253616D02*
X-802213Y254816D01*
G54D15*
X-802213Y253616D02*
X-801213Y254816D01*
G54D15*
X-802379Y257316D02*
X-802713Y257116D01*
X-802879Y256716D01*
X-802879Y256316D01*
X-802713Y255916D01*
X-802379Y255716D01*
X-800713Y255716D01*
X-800379Y255916D01*
X-800213Y256316D01*
X-800213Y256716D01*
X-800379Y257116D01*
X-800713Y257316D01*
G54D10*
X-694136Y188095D02*
X-690936Y188095D01*
X-690936Y169095D01*
X-694136Y169095D01*
X-694136Y188095D01*
G54D10*
X-697336Y188095D02*
X-697336Y169095D01*
G54D26*
X-666436Y178495D02*
X-671736Y178495D01*
G54D26*
X-669136Y176295D02*
X-669136Y180695D01*
G54D10*
G75*
G01X-661636Y178595D02*
G03X-661636Y178595I-32500J0D01*
G01*
G54D15*
X-710986Y196311D02*
X-710186Y196311D01*
X-710186Y197145D01*
X-710386Y197478D01*
X-710786Y197645D01*
X-711186Y197645D01*
X-711586Y197478D01*
X-711786Y197145D01*
X-711786Y195478D01*
X-711586Y195145D01*
X-711186Y194978D01*
X-710786Y194978D01*
X-710386Y195145D01*
X-710186Y195478D01*
G54D15*
X-708686Y196311D02*
X-708086Y196645D01*
X-707886Y196978D01*
X-707886Y197645D01*
G54D15*
X-709486Y197645D02*
X-709486Y194978D01*
X-708486Y194978D01*
X-708086Y195145D01*
X-707886Y195478D01*
X-707886Y195811D01*
X-708086Y196145D01*
X-708486Y196311D01*
X-709486Y196311D01*
G54D15*
X-707186Y196478D02*
X-705586Y196478D01*
G54D15*
X-703286Y194978D02*
X-704886Y194978D01*
X-704886Y196145D01*
X-704686Y196145D01*
X-704286Y195978D01*
X-703886Y195978D01*
X-703486Y196145D01*
X-703286Y196478D01*
X-703286Y197145D01*
X-703486Y197478D01*
X-703886Y197645D01*
X-704286Y197645D01*
X-704686Y197478D01*
X-704886Y197145D01*
G54D15*
X-700986Y195478D02*
X-700986Y197145D01*
X-701186Y197478D01*
X-701586Y197645D01*
X-701986Y197645D01*
X-702386Y197478D01*
X-702586Y197145D01*
X-702586Y195478D01*
X-702386Y195145D01*
X-701986Y194978D01*
X-701586Y194978D01*
X-701186Y195145D01*
X-700986Y195478D01*
G54D15*
X-700286Y196478D02*
X-698686Y196478D01*
G54D15*
X-696386Y197645D02*
X-697986Y197645D01*
X-697986Y197478D01*
X-697786Y197145D01*
X-696586Y196145D01*
X-696386Y195811D01*
X-696386Y195478D01*
X-696586Y195145D01*
X-696986Y194978D01*
X-697386Y194978D01*
X-697786Y195145D01*
X-697986Y195478D01*
G54D15*
X-694086Y197645D02*
X-695686Y197645D01*
X-695686Y197478D01*
X-695486Y197145D01*
X-694286Y196145D01*
X-694086Y195811D01*
X-694086Y195478D01*
X-694286Y195145D01*
X-694686Y194978D01*
X-695086Y194978D01*
X-695486Y195145D01*
X-695686Y195478D01*
G54D15*
X-691086Y195478D02*
X-691286Y195145D01*
X-691686Y194978D01*
X-692086Y194978D01*
X-692486Y195145D01*
X-692686Y195478D01*
X-692686Y196311D01*
X-692686Y196478D01*
X-692086Y196145D01*
X-691686Y196145D01*
X-691286Y196311D01*
X-691086Y196645D01*
X-691086Y197145D01*
X-691286Y197478D01*
X-691686Y197645D01*
X-692086Y197645D01*
X-692486Y197478D01*
X-692686Y197145D01*
X-692686Y196311D01*
G54D15*
X-689986Y197645D02*
X-689986Y197978D01*
X-690186Y198311D01*
X-690386Y198311D01*
G54D15*
X-689286Y195478D02*
X-689086Y195145D01*
X-688686Y194978D01*
X-688286Y194978D01*
X-687886Y195145D01*
X-687686Y195478D01*
X-687686Y195811D01*
X-687886Y196145D01*
X-688286Y196311D01*
X-687886Y196478D01*
X-687686Y196811D01*
X-687686Y197145D01*
X-687886Y197478D01*
X-688286Y197645D01*
X-688686Y197645D01*
X-689086Y197478D01*
X-689286Y197145D01*
G54D15*
X-686986Y196145D02*
X-685386Y197645D01*
G54D15*
X-686986Y197645D02*
X-685386Y196145D01*
G54D15*
X-684686Y195978D02*
X-683686Y194978D01*
X-683686Y197645D01*
G54D15*
X-681386Y197645D02*
X-682986Y197645D01*
X-682986Y197478D01*
X-682786Y197145D01*
X-681586Y196145D01*
X-681386Y195811D01*
X-681386Y195478D01*
X-681586Y195145D01*
X-681986Y194978D01*
X-682386Y194978D01*
X-682786Y195145D01*
X-682986Y195478D01*
G54D15*
X-679986Y195978D02*
X-678986Y194978D01*
X-678986Y197645D01*
G54D15*
X-676686Y195478D02*
X-676686Y197145D01*
X-676886Y197478D01*
X-677286Y197645D01*
X-677686Y197645D01*
X-678086Y197478D01*
X-678286Y197145D01*
X-678286Y195478D01*
X-678086Y195145D01*
X-677686Y194978D01*
X-677286Y194978D01*
X-676886Y195145D01*
X-676686Y195478D01*
G54D15*
X-674386Y194978D02*
X-675986Y194978D01*
X-675986Y196145D01*
X-675786Y196145D01*
X-675386Y195978D01*
X-674986Y195978D01*
X-674586Y196145D01*
X-674386Y196478D01*
X-674386Y197145D01*
X-674586Y197478D01*
X-674986Y197645D01*
X-675386Y197645D01*
X-675786Y197478D01*
X-675986Y197145D01*
G54D15*
X-673686Y196478D02*
X-672086Y196478D01*
G54D15*
X-672886Y195811D02*
X-672886Y197145D01*
G54D15*
X-673486Y195978D02*
X-672286Y196978D01*
G54D15*
X-673486Y196978D02*
X-672286Y195978D01*
G54D15*
X-669786Y197145D02*
X-669986Y197478D01*
X-670386Y197645D01*
X-670786Y197645D01*
X-671186Y197478D01*
X-671386Y197145D01*
X-671386Y195478D01*
X-671186Y195145D01*
X-670786Y194978D01*
X-670386Y194978D01*
X-669986Y195145D01*
X-669786Y195478D01*
G54D19*
X-364306Y-429072D02*
X-345306Y-429072D01*
X-345306Y-467072D01*
X-364306Y-467072D01*
X-364306Y-429072D01*
G54D19*
X-354806Y-428972D02*
X-354806Y-408372D01*
G54D19*
X-354806Y-487772D02*
X-354806Y-467172D01*
G54D11*
X-379675Y-272796D02*
X-379675Y-276764D01*
G54D11*
X-378088Y-273589D02*
X-381263Y-273589D01*
G54D11*
X-379675Y-273589D02*
X-381263Y-275970D01*
X-378088Y-275970D01*
X-378088Y-275970D01*
X-379675Y-273589D01*
G54D25*
X-382056Y-275970D02*
X-383644Y-274383D01*
G54D25*
X-382056Y-274383D02*
X-383644Y-272796D01*
G54D25*
X-383644Y-275177D02*
X-383644Y-274383D01*
X-382850Y-274383D01*
G54D25*
X-383644Y-273589D02*
X-383644Y-272796D01*
X-382850Y-272796D01*
G54D10*
X-382056Y-289464D02*
X-382056Y-284702D01*
X-377294Y-284702D01*
X-377294Y-289464D01*
X-382056Y-289464D01*
G54D10*
X-382056Y-264064D02*
X-382056Y-259302D01*
X-377294Y-259302D01*
X-377294Y-264064D01*
X-382056Y-264064D01*
G54D25*
X-370678Y-276914D02*
X-368900Y-276914D01*
X-368900Y-275981D01*
G54D25*
X-369678Y-275514D02*
X-369678Y-274448D01*
G54D25*
X-369234Y-273914D02*
X-369011Y-273781D01*
X-368900Y-273514D01*
X-368900Y-273248D01*
X-369011Y-272981D01*
X-369233Y-272848D01*
X-369789Y-272848D01*
X-369900Y-272848D01*
X-369678Y-273248D01*
X-369678Y-273514D01*
X-369789Y-273781D01*
X-370011Y-273914D01*
X-370345Y-273914D01*
X-370567Y-273781D01*
X-370678Y-273514D01*
X-370678Y-273248D01*
X-370567Y-272981D01*
X-370345Y-272848D01*
X-369789Y-272848D01*
G54D25*
X-370345Y-272314D02*
X-370567Y-272181D01*
X-370678Y-271914D01*
X-370678Y-271648D01*
X-370567Y-271381D01*
X-370345Y-271248D01*
X-370122Y-271248D01*
X-369900Y-271381D01*
X-369789Y-271648D01*
X-369678Y-271381D01*
X-369456Y-271248D01*
X-369233Y-271248D01*
X-369011Y-271381D01*
X-368900Y-271648D01*
X-368900Y-271914D01*
X-369011Y-272181D01*
X-369234Y-272314D01*
G54D25*
X-368900Y-269914D02*
X-370678Y-269914D01*
X-369567Y-270714D01*
X-369345Y-270714D01*
X-369345Y-269648D01*
G54D25*
X-369233Y-268048D02*
X-369011Y-268181D01*
X-368900Y-268448D01*
X-368900Y-268714D01*
X-369011Y-268981D01*
X-369234Y-269114D01*
X-370345Y-269114D01*
X-370567Y-268981D01*
X-370678Y-268714D01*
X-370678Y-268448D01*
X-370567Y-268181D01*
X-370345Y-268048D01*
G54D25*
X-368900Y-267514D02*
X-370678Y-267514D01*
X-370678Y-266848D01*
X-370567Y-266581D01*
X-370345Y-266448D01*
X-370122Y-266448D01*
X-369900Y-266581D01*
X-369789Y-266848D01*
X-369678Y-266581D01*
X-369456Y-266448D01*
X-369234Y-266448D01*
X-369011Y-266581D01*
X-368900Y-266848D01*
X-368900Y-267514D01*
G54D25*
X-369789Y-267514D02*
X-369789Y-266848D01*
G54D25*
X-368900Y-265914D02*
X-370678Y-264848D01*
G54D25*
X-369234Y-264314D02*
X-369011Y-264181D01*
X-368900Y-263914D01*
X-368900Y-263648D01*
X-369011Y-263381D01*
X-369234Y-263248D01*
X-369456Y-263248D01*
X-369678Y-263381D01*
X-369789Y-263648D01*
X-369789Y-263914D01*
X-369900Y-264181D01*
X-370122Y-264314D01*
X-370345Y-264314D01*
X-370567Y-264181D01*
X-370678Y-263914D01*
X-370678Y-263648D01*
X-370567Y-263381D01*
X-370345Y-263248D01*
G54D25*
X-369789Y-262181D02*
X-369567Y-261781D01*
X-369345Y-261648D01*
X-368900Y-261648D01*
G54D25*
X-368900Y-262714D02*
X-370678Y-262714D01*
X-370678Y-262048D01*
X-370567Y-261781D01*
X-370345Y-261648D01*
X-370122Y-261648D01*
X-369900Y-261781D01*
X-369789Y-262048D01*
X-369789Y-262714D01*
G54D25*
X-368900Y-261114D02*
X-370678Y-261114D01*
X-370678Y-260448D01*
X-370567Y-260181D01*
X-370345Y-260048D01*
X-369234Y-260048D01*
X-369011Y-260181D01*
X-368900Y-260448D01*
X-368900Y-261114D01*
G54D11*
X-380541Y-282089D02*
X-381874Y-280756D01*
X-378319Y-280756D01*
G54D11*
X-378319Y-266462D02*
X-378319Y-268596D01*
X-378541Y-268596D01*
X-378986Y-268329D01*
X-380319Y-266729D01*
X-380763Y-266462D01*
X-381208Y-266462D01*
X-381652Y-266729D01*
X-381874Y-267262D01*
X-381874Y-267796D01*
X-381652Y-268329D01*
X-381208Y-268596D01*
G54D15*
X-373363Y-289333D02*
X-376029Y-289333D01*
G54D15*
X-373763Y-287433D02*
X-374429Y-287433D01*
X-374763Y-287633D01*
X-374863Y-288033D01*
X-374763Y-288433D01*
X-374429Y-288633D01*
X-373763Y-288633D01*
X-373429Y-288433D01*
X-373363Y-288033D01*
X-373429Y-287633D01*
X-373763Y-287433D01*
G54D15*
X-373363Y-286733D02*
X-374863Y-286733D01*
G54D15*
X-374529Y-286733D02*
X-374763Y-286533D01*
X-374863Y-286133D01*
X-374763Y-285733D01*
X-374529Y-285533D01*
X-373363Y-285533D01*
G54D15*
X-372863Y-284833D02*
X-372696Y-284433D01*
X-372696Y-284153D01*
X-372863Y-283753D01*
X-373196Y-283633D01*
X-374863Y-283633D01*
G54D15*
X-374429Y-283633D02*
X-374763Y-283833D01*
X-374863Y-284233D01*
X-374763Y-284633D01*
X-374429Y-284833D01*
X-373763Y-284833D01*
X-373429Y-284633D01*
X-373363Y-284233D01*
X-373429Y-283833D01*
X-373763Y-283633D01*
G54D10*
G75*
G01X-379675Y-260083D02*
G03X-379675Y-260083I0J-14300D01*
G01*
G54D10*
G75*
G01X-379675Y-258483D02*
G03X-379675Y-258483I0J-15900D01*
G01*
G54D19*
X-332953Y-304850D02*
X-313953Y-304850D01*
X-313953Y-342850D01*
X-332953Y-342850D01*
X-332953Y-304850D01*
G54D19*
X-323453Y-304750D02*
X-323453Y-284150D01*
G54D19*
X-323453Y-363550D02*
X-323453Y-342950D01*
G54D19*
X-790128Y127819D02*
X-790128Y146819D01*
X-752128Y146819D01*
X-752128Y127819D01*
X-790128Y127819D01*
G54D19*
X-790228Y137319D02*
X-798128Y137319D01*
G54D19*
X-752128Y137319D02*
X-744228Y137319D01*
G54D19*
X-827881Y6432D02*
X-853281Y6432D01*
X-853281Y-65168D01*
X-827881Y-65168D01*
X-827881Y6432D01*
G54D19*
X-832581Y-27768D02*
X-848581Y-27768D01*
G54D19*
X-832581Y-30968D02*
X-848581Y-30968D01*
G54D19*
X-840581Y-15068D02*
X-840581Y-27768D01*
G54D19*
X-840581Y-30968D02*
X-840581Y-43668D01*
G54D19*
X-460690Y46038D02*
X-460690Y71438D01*
X-532290Y71438D01*
X-532290Y46038D01*
X-460690Y46038D01*
G54D19*
X-494890Y50738D02*
X-494890Y66738D01*
G54D19*
X-498090Y50738D02*
X-498090Y66738D01*
G54D19*
X-482190Y58738D02*
X-494890Y58738D01*
G54D19*
X-498090Y58738D02*
X-510790Y58738D01*
G54D19*
X-746522Y205897D02*
X-721122Y205897D01*
X-721122Y277497D01*
X-746522Y277497D01*
X-746522Y205897D01*
G54D19*
X-741822Y240097D02*
X-725822Y240097D01*
G54D19*
X-741822Y243297D02*
X-725822Y243297D01*
G54D19*
X-733822Y227397D02*
X-733822Y240097D01*
G54D19*
X-733822Y243297D02*
X-733822Y255997D01*
G54D19*
X-873522Y153906D02*
X-848122Y153906D01*
X-848122Y225506D01*
X-873522Y225506D01*
X-873522Y153906D01*
G54D19*
X-868822Y188106D02*
X-852822Y188106D01*
G54D19*
X-868822Y191306D02*
X-852822Y191306D01*
G54D19*
X-860822Y175406D02*
X-860822Y188106D01*
G54D19*
X-860822Y191306D02*
X-860822Y204006D01*
G54D11*
X-733386Y104061D02*
X-736426Y106612D01*
G54D11*
X-732974Y105787D02*
X-735015Y103355D01*
G54D11*
X-733994Y104571D02*
X-736839Y104886D01*
X-734798Y107318D01*
X-734798Y107318D01*
X-733994Y104571D01*
G54D25*
X-737349Y104278D02*
X-737153Y102041D01*
G54D25*
X-736133Y103257D02*
X-735937Y101020D01*
G54D25*
X-737761Y102551D02*
X-737153Y102041D01*
X-736643Y102649D01*
G54D25*
X-736545Y101531D02*
X-735937Y101020D01*
X-735427Y101629D01*
G54D10*
X-747686Y112951D02*
X-744037Y109890D01*
X-740976Y113538D01*
X-744624Y116599D01*
X-747686Y112951D01*
G54D10*
X-728228Y96624D02*
X-724580Y93563D01*
X-721519Y97211D01*
X-725167Y100273D01*
X-728228Y96624D01*
G54D25*
X-730758Y113600D02*
X-729615Y114962D01*
X-728900Y114362D01*
G54D25*
X-729043Y113467D02*
X-728226Y112781D01*
G54D25*
X-727531Y112779D02*
X-727286Y112863D01*
X-727011Y112777D01*
X-726806Y112606D01*
X-726674Y112349D01*
X-726714Y112093D01*
X-727071Y111668D01*
X-727143Y111582D01*
X-727306Y112010D01*
X-727511Y112181D01*
X-727786Y112267D01*
X-728031Y112183D01*
X-728246Y111928D01*
X-728286Y111672D01*
X-728153Y111415D01*
X-727949Y111244D01*
X-727673Y111157D01*
X-727428Y111242D01*
X-727071Y111668D01*
G54D25*
X-727020Y110899D02*
X-727061Y110643D01*
X-726928Y110387D01*
X-726724Y110215D01*
X-726448Y110129D01*
X-726203Y110214D01*
X-726060Y110384D01*
X-726019Y110640D01*
X-726152Y110896D01*
X-725876Y110810D01*
X-725631Y110894D01*
X-725488Y111065D01*
X-725448Y111321D01*
X-725581Y111577D01*
X-725785Y111748D01*
X-726061Y111835D01*
X-726306Y111750D01*
G54D25*
X-724253Y110463D02*
X-725396Y109101D01*
X-725294Y110466D01*
X-725151Y110637D01*
X-724334Y109951D01*
G54D25*
X-723037Y109008D02*
X-722996Y109264D01*
X-723129Y109520D01*
X-723334Y109692D01*
X-723609Y109778D01*
X-723854Y109693D01*
X-724568Y108842D01*
X-724609Y108586D01*
X-724476Y108330D01*
X-724272Y108158D01*
X-723996Y108072D01*
X-723751Y108156D01*
G54D25*
X-722414Y108920D02*
X-723557Y107558D01*
X-723046Y107130D01*
X-722771Y107044D01*
X-722526Y107128D01*
X-722383Y107298D01*
X-722342Y107554D01*
X-722475Y107811D01*
X-722199Y107724D01*
X-721954Y107809D01*
X-721812Y107979D01*
X-721771Y108235D01*
X-721904Y108492D01*
X-722414Y108920D01*
G54D25*
X-722986Y108239D02*
X-722475Y107811D01*
G54D25*
X-721189Y107892D02*
X-721514Y105844D01*
G54D25*
X-720177Y106608D02*
X-719932Y106692D01*
X-719657Y106606D01*
X-719452Y106435D01*
X-719319Y106178D01*
X-719360Y105922D01*
X-719503Y105752D01*
X-719748Y105668D01*
X-720024Y105754D01*
X-720228Y105925D01*
X-720504Y106012D01*
X-720749Y105927D01*
X-720892Y105757D01*
X-720932Y105501D01*
X-720799Y105244D01*
X-720595Y105073D01*
X-720319Y104986D01*
X-720074Y105071D01*
G54D25*
X-718900Y104811D02*
X-718451Y104724D01*
X-718206Y104809D01*
X-717920Y105149D01*
G54D25*
X-718737Y105835D02*
X-719880Y104473D01*
X-719370Y104044D01*
X-719094Y103958D01*
X-718849Y104043D01*
X-718706Y104213D01*
X-718665Y104469D01*
X-718798Y104725D01*
X-719309Y105154D01*
G54D25*
X-717512Y104806D02*
X-718654Y103444D01*
X-718144Y103016D01*
X-717868Y102930D01*
X-717623Y103014D01*
X-716909Y103865D01*
X-716868Y104121D01*
X-717001Y104378D01*
X-717512Y104806D01*
G54D11*
X-741062Y109371D02*
X-740898Y107493D01*
X-738612Y110217D01*
G54D11*
X-727663Y101029D02*
X-729297Y102400D01*
X-729440Y102230D01*
X-729521Y101718D01*
X-729152Y99668D01*
X-729234Y99156D01*
X-729520Y98816D01*
X-730010Y98647D01*
X-730561Y98819D01*
X-730970Y99162D01*
X-731235Y99675D01*
X-731154Y100187D01*
G54D15*
X-741997Y119527D02*
X-743711Y117484D01*
G54D15*
X-740799Y117999D02*
X-741227Y117488D01*
X-741594Y117361D01*
X-741965Y117542D01*
X-742207Y117876D01*
X-742146Y118260D01*
X-741718Y118770D01*
X-741350Y118897D01*
X-741001Y118691D01*
X-740738Y118383D01*
X-740799Y117999D01*
G54D15*
X-740005Y117855D02*
X-740969Y116706D01*
G54D15*
X-740755Y116962D02*
X-740752Y116654D01*
X-740510Y116320D01*
X-740139Y116140D01*
X-739836Y116190D01*
X-739086Y117084D01*
G54D15*
X-738228Y117017D02*
X-737815Y116888D01*
X-737600Y116708D01*
X-737401Y116323D01*
X-737523Y115990D01*
X-738595Y114714D01*
G54D15*
X-738316Y115046D02*
X-738684Y114919D01*
X-739054Y115099D01*
X-739296Y115433D01*
X-739235Y115817D01*
X-738807Y116328D01*
X-738439Y116454D01*
X-738090Y116248D01*
X-737827Y115940D01*
X-737888Y115556D01*
G54D10*
G75*
G01X-723648Y95890D02*
G03X-723648Y95890I-10954J9191D01*
G01*
G54D10*
G75*
G01X-722422Y94861D02*
G03X-722422Y94861I-12180J10220D01*
G01*
G54D19*
X-541337Y-146131D02*
X-515937Y-146131D01*
X-515937Y-74531D01*
X-541337Y-74531D01*
X-541337Y-146131D01*
G54D19*
X-536637Y-111931D02*
X-520637Y-111931D01*
G54D19*
X-536637Y-108731D02*
X-520637Y-108731D01*
G54D19*
X-528637Y-124631D02*
X-528637Y-111931D01*
G54D19*
X-528637Y-108731D02*
X-528637Y-96031D01*
G54D19*
X-707231Y-139384D02*
X-681831Y-139384D01*
X-681831Y-67784D01*
X-707231Y-67784D01*
X-707231Y-139384D01*
G54D19*
X-702531Y-105184D02*
X-686531Y-105184D01*
G54D19*
X-702531Y-101984D02*
X-686531Y-101984D01*
G54D19*
X-694531Y-117884D02*
X-694531Y-105184D01*
G54D19*
X-694531Y-101984D02*
X-694531Y-89284D01*
G54D27*
X-981869Y31535D02*
X-981002Y30091D01*
X-979269Y29369D01*
X-977535Y29369D01*
X-975802Y30091D01*
X-974935Y31535D01*
X-974935Y32980D01*
X-975802Y34424D01*
X-977535Y35146D01*
X-979269Y35146D01*
X-981002Y35869D01*
X-981869Y37313D01*
X-981869Y38758D01*
X-981002Y40202D01*
X-979269Y40924D01*
X-977535Y40924D01*
X-975802Y40202D01*
X-974935Y38758D01*
G54D27*
X-966558Y35869D02*
X-966558Y29369D01*
G54D27*
X-966558Y30813D02*
X-967424Y29658D01*
X-969158Y29369D01*
X-970891Y29658D01*
X-971758Y30813D01*
X-971758Y35869D01*
G54D27*
X-963380Y29369D02*
X-963380Y35869D01*
G54D27*
X-963380Y34713D02*
X-961646Y35869D01*
X-959913Y35435D01*
X-959046Y34424D01*
X-959046Y29369D01*
G54D27*
X-959046Y34713D02*
X-957313Y35869D01*
X-955580Y35435D01*
X-954713Y34424D01*
X-954713Y29369D01*
G54D27*
X-946335Y30091D02*
X-947721Y29369D01*
X-949455Y29369D01*
X-951188Y30091D01*
X-951535Y31535D01*
X-951535Y33991D01*
X-950668Y35435D01*
X-948935Y35869D01*
X-947201Y35435D01*
X-946335Y34424D01*
X-946335Y32980D01*
X-951535Y32980D01*
G54D27*
X-937957Y29369D02*
X-937957Y40924D01*
G54D27*
X-937957Y33991D02*
X-938823Y35435D01*
X-940557Y35869D01*
X-942290Y35435D01*
X-943157Y33991D01*
X-943157Y31102D01*
X-942290Y29658D01*
X-940557Y29369D01*
X-938823Y29658D01*
X-937957Y31102D01*
G54D27*
X-934779Y29369D02*
X-934779Y40924D01*
G54D27*
X-934779Y33991D02*
X-933912Y35435D01*
X-932179Y35869D01*
X-930445Y35435D01*
X-929579Y33991D01*
X-929579Y29369D01*
G54D27*
X-926401Y35146D02*
X-924667Y35869D01*
X-922587Y35869D01*
X-921201Y34424D01*
X-921201Y29369D01*
G54D27*
X-921201Y31535D02*
X-922067Y32980D01*
X-923801Y33269D01*
X-925534Y32980D01*
X-926401Y31535D01*
X-926054Y30091D01*
X-924667Y29369D01*
X-923801Y29369D01*
X-923454Y29369D01*
X-922067Y30091D01*
X-921201Y31535D01*
G54D27*
X-907738Y31535D02*
X-908605Y30091D01*
X-910338Y29369D01*
X-912072Y29369D01*
X-913805Y30091D01*
X-914672Y31535D01*
X-914672Y38758D01*
X-913805Y40202D01*
X-912072Y40924D01*
X-910338Y40924D01*
X-908605Y40202D01*
X-907738Y38758D01*
G54D27*
X-899361Y31102D02*
X-899361Y33991D01*
X-900227Y35435D01*
X-901961Y35869D01*
X-903694Y35435D01*
X-904561Y33991D01*
X-904561Y31102D01*
X-903694Y29658D01*
X-901961Y29369D01*
X-900227Y29658D01*
X-899361Y31102D01*
G54D27*
X-896183Y29369D02*
X-896183Y40924D01*
G54D27*
X-893005Y29369D02*
X-893005Y40924D01*
G54D27*
X-884627Y30091D02*
X-886013Y29369D01*
X-887747Y29369D01*
X-889480Y30091D01*
X-889827Y31535D01*
X-889827Y33991D01*
X-888960Y35435D01*
X-887227Y35869D01*
X-885493Y35435D01*
X-884627Y34424D01*
X-884627Y32980D01*
X-889827Y32980D01*
G54D27*
X-881449Y27202D02*
X-879715Y26480D01*
X-878502Y26480D01*
X-876769Y27202D01*
X-876249Y28646D01*
X-876249Y35869D01*
G54D27*
X-876249Y33991D02*
X-877115Y35435D01*
X-878849Y35869D01*
X-880582Y35435D01*
X-881449Y33991D01*
X-881449Y31102D01*
X-880582Y29658D01*
X-878849Y29369D01*
X-877115Y29658D01*
X-876249Y31102D01*
G54D27*
X-867871Y30091D02*
X-869257Y29369D01*
X-870991Y29369D01*
X-872724Y30091D01*
X-873071Y31535D01*
X-873071Y33991D01*
X-872204Y35435D01*
X-870471Y35869D01*
X-868737Y35435D01*
X-867871Y34424D01*
X-867871Y32980D01*
X-873071Y32980D01*
G54D27*
X-658416Y-593178D02*
X-655816Y-599678D01*
X-653216Y-593178D01*
X-650616Y-599678D01*
X-648882Y-593178D01*
G54D27*
X-645705Y-593178D02*
X-643105Y-599678D01*
X-640505Y-593178D01*
X-637905Y-599678D01*
X-636171Y-593178D01*
G54D27*
X-632994Y-593178D02*
X-630394Y-599678D01*
X-627794Y-593178D01*
X-625194Y-599678D01*
X-623460Y-593178D01*
G54D27*
X-620283Y-599678D02*
X-620283Y-599678D01*
G54D27*
X-611905Y-599678D02*
X-611905Y-588122D01*
G54D27*
X-611905Y-595056D02*
X-612771Y-593612D01*
X-614505Y-593178D01*
X-616238Y-593612D01*
X-617105Y-595056D01*
X-617105Y-597945D01*
X-616238Y-599389D01*
X-614505Y-599678D01*
X-612771Y-599389D01*
X-611905Y-597945D01*
G54D27*
X-604393Y-593612D02*
X-606127Y-593178D01*
X-607860Y-593612D01*
X-608727Y-595056D01*
X-608727Y-597945D01*
X-607860Y-599389D01*
X-606127Y-599678D01*
X-604393Y-599389D01*
G54D27*
X-596016Y-593178D02*
X-596016Y-599678D01*
G54D27*
X-596016Y-598234D02*
X-596882Y-599389D01*
X-598616Y-599678D01*
X-600349Y-599389D01*
X-601216Y-598234D01*
X-601216Y-593178D01*
G54D27*
X-592838Y-599678D02*
X-592838Y-588122D01*
G54D27*
X-592838Y-595056D02*
X-591971Y-593612D01*
X-590238Y-593178D01*
X-588504Y-593612D01*
X-587638Y-595056D01*
X-587638Y-597945D01*
X-588504Y-599389D01*
X-590238Y-599678D01*
X-591971Y-599389D01*
X-592838Y-597945D01*
G54D27*
X-579260Y-598956D02*
X-580646Y-599678D01*
X-582380Y-599678D01*
X-584113Y-598956D01*
X-584460Y-597512D01*
X-584460Y-595056D01*
X-583593Y-593612D01*
X-581860Y-593178D01*
X-580126Y-593612D01*
X-579260Y-594622D01*
X-579260Y-596067D01*
X-584460Y-596067D01*
G54D27*
X-576082Y-599678D02*
X-576082Y-599678D01*
G54D27*
X-572904Y-599678D02*
X-572904Y-588122D01*
G54D27*
X-569726Y-599678D02*
X-569726Y-588122D01*
G54D27*
X-567126Y-595345D02*
X-564526Y-599678D01*
G54D27*
X-569726Y-596789D02*
X-564526Y-593178D01*
G54D19*
X-930171Y30003D02*
X-912771Y30003D01*
X-912771Y60403D01*
X-930171Y60403D01*
X-930171Y30003D01*
G36*
X-930071Y30103D02*
X-913371Y30103D01*
X-913371Y37303D01*
X-930071Y37303D01*
X-930071Y30103D01*
G37*
G54D19*
X-930071Y30103D02*
X-913371Y30103D01*
X-913371Y37303D01*
X-930071Y37303D01*
X-930071Y30103D01*
G54D19*
X-921471Y19003D02*
X-921471Y30104D01*
G54D19*
X-921471Y60304D02*
X-921471Y71403D01*
G54D11*
X-442345Y278545D02*
X-438789Y278544D01*
X-438789Y277211D01*
X-439011Y276678D01*
X-439456Y276411D01*
X-441678Y276411D01*
X-442122Y276678D01*
X-442345Y277211D01*
X-442345Y278545D01*
G54D11*
X-442344Y274378D02*
X-438789Y274378D01*
G54D11*
X-438789Y275444D02*
X-438789Y273311D01*
G54D11*
X-441678Y272344D02*
X-442122Y272078D01*
X-442345Y271545D01*
X-442345Y271011D01*
X-442122Y270478D01*
X-441678Y270211D01*
X-441233Y270211D01*
X-440789Y270478D01*
X-440567Y271011D01*
X-440567Y271544D01*
X-440344Y272078D01*
X-439900Y272344D01*
X-439456Y272344D01*
X-439011Y272078D01*
X-438789Y271544D01*
X-438789Y271011D01*
X-439011Y270478D01*
X-439456Y270211D01*
G54D11*
X-440789Y269244D02*
X-440789Y267111D01*
G54D11*
X-439456Y266144D02*
X-439011Y265878D01*
X-438789Y265344D01*
X-438789Y264811D01*
X-439011Y264278D01*
X-439456Y264011D01*
X-439900Y264011D01*
X-440344Y264278D01*
X-440567Y264811D01*
X-440789Y264278D01*
X-441233Y264011D01*
X-441678Y264011D01*
X-442122Y264278D01*
X-442345Y264811D01*
X-442345Y265345D01*
X-442122Y265878D01*
X-441678Y266144D01*
G54D11*
X-442344Y260911D02*
X-442344Y263044D01*
X-442122Y263045D01*
X-441678Y262778D01*
X-440344Y261178D01*
X-439900Y260911D01*
X-439456Y260911D01*
X-439011Y261178D01*
X-438789Y261711D01*
X-438789Y262245D01*
X-439011Y262778D01*
X-439456Y263044D01*
G54D15*
X-444178Y279944D02*
X-445844Y279944D01*
X-446178Y280144D01*
X-446344Y280544D01*
X-446344Y280944D01*
X-446178Y281344D01*
X-445844Y281544D01*
X-444178Y281544D01*
X-443844Y281344D01*
X-443678Y280944D01*
X-443678Y280544D01*
X-443844Y280144D01*
X-444178Y279944D01*
G54D15*
X-446344Y278844D02*
X-446678Y278844D01*
X-447011Y279044D01*
X-447011Y279244D01*
G54D15*
X-444178Y276544D02*
X-445844Y276544D01*
X-446178Y276744D01*
X-446344Y277144D01*
X-446345Y277544D01*
X-446178Y277944D01*
X-445844Y278144D01*
X-444178Y278144D01*
X-443844Y277944D01*
X-443678Y277544D01*
X-443678Y277144D01*
X-443844Y276744D01*
X-444178Y276544D01*
G54D15*
X-443678Y274245D02*
X-443678Y275845D01*
X-444844Y275844D01*
X-444844Y275644D01*
X-444678Y275245D01*
X-444678Y274844D01*
X-444845Y274444D01*
X-445178Y274245D01*
X-445844Y274245D01*
X-446178Y274444D01*
X-446345Y274844D01*
X-446344Y275244D01*
X-446178Y275644D01*
X-445844Y275844D01*
G54D15*
X-446344Y273544D02*
X-443678Y272544D01*
X-446344Y271544D01*
G54D15*
X-445345Y273144D02*
X-445344Y271944D01*
G54D15*
X-446344Y268544D02*
X-446344Y270144D01*
X-446178Y270144D01*
X-445844Y269945D01*
X-444844Y268744D01*
X-444511Y268544D01*
X-444178Y268544D01*
X-443844Y268744D01*
X-443678Y269144D01*
X-443678Y269544D01*
X-443845Y269944D01*
X-444178Y270144D01*
G54D15*
X-443678Y266244D02*
X-443678Y267844D01*
X-444844Y267844D01*
X-444844Y267644D01*
X-444678Y267244D01*
X-444678Y266844D01*
X-444844Y266444D01*
X-445178Y266244D01*
X-445844Y266244D01*
X-446178Y266444D01*
X-446344Y266844D01*
X-446344Y267244D01*
X-446178Y267644D01*
X-445844Y267844D01*
G54D15*
X-444178Y263944D02*
X-445844Y263944D01*
X-446178Y264144D01*
X-446344Y264544D01*
X-446344Y264945D01*
X-446178Y265344D01*
X-445844Y265544D01*
X-444178Y265544D01*
X-443845Y265344D01*
X-443678Y264944D01*
X-443678Y264545D01*
X-443845Y264144D01*
X-444178Y263944D01*
G54D15*
X-443678Y263244D02*
X-446344Y262245D01*
X-443678Y261245D01*
G54D10*
X-416344Y317544D02*
X-416344Y255544D01*
X-452344Y255544D01*
X-452344Y317544D01*
X-416344Y317544D01*
G54D10*
X-429344Y322544D02*
X-429344Y317544D01*
X-439344Y317544D01*
X-439345Y322544D01*
X-429344Y322544D01*
G54D10*
X-429345Y255544D02*
X-429344Y250544D01*
X-439344Y250544D01*
X-439345Y255544D01*
X-429345Y255544D01*
G54D10*
X-434344Y317544D02*
X-434344Y291544D01*
X-428345Y285544D01*
G54D10*
X-434344Y284544D02*
X-434344Y255544D01*
G54D10*
X-426344Y301545D02*
X-426344Y271544D01*
X-441344Y271544D01*
X-441344Y301544D01*
X-426344Y301545D01*
G54D15*
X-450694Y275344D02*
X-448028Y275344D01*
G54D15*
X-449628Y275344D02*
X-449294Y275144D01*
X-449194Y274744D01*
X-449294Y274344D01*
X-449628Y274144D01*
X-450695Y274144D01*
G54D15*
X-449194Y273444D02*
X-449195Y271844D01*
G54D15*
X-449861Y273444D02*
X-449861Y271844D01*
G54D15*
X-448028Y269544D02*
X-448028Y271144D01*
X-449194Y271145D01*
X-449194Y270944D01*
X-449028Y270545D01*
X-449028Y270144D01*
X-449195Y269744D01*
X-449528Y269544D01*
X-450195Y269544D01*
X-450528Y269744D01*
X-450695Y270144D01*
X-450694Y270544D01*
X-450528Y270944D01*
X-450195Y271144D01*
G54D15*
X-450695Y268844D02*
X-449194Y268844D01*
G54D15*
X-449461Y268845D02*
X-449194Y268445D01*
X-449294Y268045D01*
X-449528Y267844D01*
X-450694Y267844D01*
G54D15*
X-449461Y267844D02*
X-449194Y267444D01*
X-449294Y267044D01*
X-449528Y266844D01*
X-450695Y266844D01*
G54D15*
X-450695Y266144D02*
X-449194Y266144D01*
G54D15*
X-449461Y266145D02*
X-449194Y265745D01*
X-449294Y265345D01*
X-449528Y265144D01*
X-450694Y265144D01*
G54D15*
X-449461Y265144D02*
X-449194Y264744D01*
X-449294Y264344D01*
X-449528Y264144D01*
X-450695Y264144D01*
M02*
