%FSLAX34Y34*%
%MOMM*%
%LNSOLDERMASK_TOP*%
G71*
G01*
%ADD10C, 2.60*%
%ADD11C, 2.20*%
%ADD12C, 2.60*%
%ADD13C, 3.10*%
%ADD14C, 3.60*%
%ADD15C, 2.60*%
%ADD16C, 2.60*%
%ADD17C, 2.40*%
%ADD18C, 3.20*%
%ADD19C, 3.10*%
%ADD20C, 2.40*%
%ADD21C, 3.60*%
%ADD22C, 2.40*%
%ADD23C, 2.00*%
%LPD*%
G36*
X-652000Y236881D02*
X-626000Y236881D01*
X-626000Y210881D01*
X-652000Y210881D01*
X-652000Y236881D01*
G37*
X-639000Y198481D02*
G54D10*
D03*
X-639000Y173081D02*
G54D10*
D03*
X-639000Y147681D02*
G54D10*
D03*
X-562800Y223881D02*
G54D10*
D03*
X-562800Y198481D02*
G54D10*
D03*
X-562800Y173081D02*
G54D10*
D03*
X-562800Y147681D02*
G54D10*
D03*
X-639000Y122281D02*
G54D10*
D03*
X-562800Y122281D02*
G54D10*
D03*
X-639000Y96881D02*
G54D10*
D03*
X-639000Y71481D02*
G54D10*
D03*
X-562800Y96881D02*
G54D11*
D03*
X-562800Y71481D02*
G54D11*
D03*
X-639000Y46081D02*
G54D10*
D03*
X-562800Y46081D02*
G54D10*
D03*
X-639000Y20681D02*
G54D10*
D03*
X-562800Y20681D02*
G54D10*
D03*
X-639000Y-4719D02*
G54D10*
D03*
X-562800Y-4719D02*
G54D10*
D03*
X-639000Y-30119D02*
G54D10*
D03*
X-639000Y-55519D02*
G54D10*
D03*
X-639000Y-80919D02*
G54D10*
D03*
X-639000Y-106319D02*
G54D10*
D03*
X-562800Y-30119D02*
G54D10*
D03*
X-562800Y-55519D02*
G54D10*
D03*
X-562800Y-80919D02*
G54D10*
D03*
X-562800Y-106319D02*
G54D10*
D03*
G36*
X-509491Y211481D02*
X-483491Y211481D01*
X-483491Y185481D01*
X-509491Y185481D01*
X-509491Y211481D01*
G37*
X-544034Y-241330D02*
G54D12*
D03*
X-544034Y-215930D02*
G54D12*
D03*
X-696428Y-292099D02*
G54D12*
D03*
X-696428Y-266699D02*
G54D12*
D03*
X-696428Y-241299D02*
G54D12*
D03*
G36*
X-509491Y272160D02*
X-483491Y272160D01*
X-483491Y246160D01*
X-509491Y246160D01*
X-509491Y272160D01*
G37*
G36*
X-544019Y186081D02*
X-518019Y186081D01*
X-518019Y160081D01*
X-544019Y160081D01*
X-544019Y186081D01*
G37*
G36*
X-544019Y262634D02*
X-518019Y262634D01*
X-518019Y236634D01*
X-544019Y236634D01*
X-544019Y262634D01*
G37*
X-804822Y-377400D02*
G54D13*
D03*
X-419853Y-377400D02*
G54D13*
D03*
X-419922Y-556378D02*
G54D13*
D03*
X-804822Y-556378D02*
G54D13*
D03*
X-326266Y-477547D02*
G54D14*
D03*
X-274941Y-434481D02*
G54D14*
D03*
X-340121Y125811D02*
G54D15*
D03*
X-314721Y125811D02*
G54D15*
D03*
G36*
X-301721Y113411D02*
X-301721Y87411D01*
X-327721Y87411D01*
X-327721Y113411D01*
X-301721Y113411D01*
G37*
X-340121Y100311D02*
G54D15*
D03*
X-340021Y151211D02*
G54D15*
D03*
X-314721Y151211D02*
G54D15*
D03*
X-503555Y128647D02*
G54D16*
D03*
X-503555Y103247D02*
G54D16*
D03*
G36*
X-431699Y231524D02*
X-431699Y205524D01*
X-457699Y205524D01*
X-457699Y231524D01*
X-431699Y231524D01*
G37*
G36*
X-355102Y231524D02*
X-355102Y205524D01*
X-381102Y205524D01*
X-381102Y231524D01*
X-355102Y231524D01*
G37*
X-705941Y21531D02*
G54D16*
D03*
X-705941Y-29469D02*
G54D16*
D03*
G36*
X-657521Y48167D02*
X-657521Y22167D01*
X-683521Y22167D01*
X-683521Y48167D01*
X-657521Y48167D01*
G37*
G36*
X-657521Y-23270D02*
X-657521Y-49270D01*
X-683521Y-49270D01*
X-683521Y-23270D01*
X-657521Y-23270D01*
G37*
X-371078Y25797D02*
G54D17*
D03*
X-738188Y-191294D02*
G54D18*
D03*
G36*
X-586088Y-141737D02*
X-560088Y-141737D01*
X-560088Y-167737D01*
X-586088Y-167737D01*
X-586088Y-141737D01*
G37*
G36*
X-650381Y-177500D02*
X-624381Y-177500D01*
X-624381Y-203500D01*
X-650381Y-203500D01*
X-650381Y-177500D01*
G37*
G36*
X-586881Y-177500D02*
X-560881Y-177500D01*
X-560881Y-203500D01*
X-586881Y-203500D01*
X-586881Y-177500D01*
G37*
G36*
X-674988Y-141737D02*
X-648988Y-141737D01*
X-648988Y-167737D01*
X-674988Y-167737D01*
X-674988Y-141737D01*
G37*
X-783829Y220266D02*
G54D17*
D03*
G36*
X-795829Y233666D02*
X-795829Y257666D01*
X-771829Y257666D01*
X-771829Y233666D01*
X-795829Y233666D01*
G37*
X-706836Y178595D02*
G54D17*
D03*
G36*
X-693436Y190595D02*
X-669436Y190595D01*
X-669436Y166595D01*
X-693436Y166595D01*
X-693436Y190595D01*
G37*
X-354806Y-397272D02*
G54D19*
D03*
X-354806Y-498872D02*
G54D19*
D03*
X-379675Y-261683D02*
G54D20*
D03*
G36*
X-391675Y-299083D02*
X-391675Y-275083D01*
X-367675Y-275083D01*
X-367675Y-299083D01*
X-391675Y-299083D01*
G37*
X-858441Y-257572D02*
G54D21*
D03*
X-888206Y-279400D02*
G54D21*
D03*
G54D22*
X-553030Y-342930D02*
X-535030Y-342930D01*
G54D22*
X-553034Y-215930D02*
X-535034Y-215930D01*
X-327818Y28576D02*
G54D17*
D03*
X-327818Y-39247D02*
G54D17*
D03*
X-379413Y-56312D02*
G54D17*
D03*
X-457597Y-55916D02*
G54D17*
D03*
X-380604Y-195616D02*
G54D17*
D03*
X-754658Y70092D02*
G54D17*
D03*
X-888008Y109780D02*
G54D17*
D03*
X-778471Y109779D02*
G54D17*
D03*
X-666155Y70092D02*
G54D17*
D03*
X-607616Y81006D02*
G54D17*
D03*
X-600075Y21078D02*
G54D17*
D03*
X-812403Y-229791D02*
G54D17*
D03*
X-650478Y-369491D02*
G54D23*
D03*
X-522684Y-390922D02*
G54D23*
D03*
X-853281Y-290909D02*
G54D21*
D03*
X-724873Y96918D02*
G54D20*
D03*
G36*
X-745810Y130151D02*
X-727425Y114724D01*
X-742852Y96339D01*
X-761237Y111766D01*
X-745810Y130151D01*
G37*
X-839788Y-190897D02*
G54D17*
D03*
X-421481Y-215900D02*
G54D23*
D03*
X-513556Y-195218D02*
G54D23*
D03*
X-434344Y253044D02*
G54D14*
D03*
X-434344Y320044D02*
G54D14*
D03*
M02*
